<svg width="4000" height="4000" viewBox="0 0 4000 4000" fill="none" xmlns="http://www.w3.org/2000/svg">
<path d="M1504.26 1424.26C1504.26 1424.26 1495.64 1463.59 1499.64 1474.44C1499.64 1474.44 1504.93 1414.94 1555.8 1369C1555.8 1369 1554.16 1407.46 1580.58 1426.97C1607 1446.48 1612.97 1476.84 1612.97 1476.84C1612.97 1476.84 1615.95 1456.11 1607 1422.9C1607 1422.9 1663.16 1475.93 1637.42 1535.12C1637.42 1535.12 1606.38 1600.31 1517.49 1571.78C1428.6 1543.26 1488.37 1434.49 1504.26 1424.26Z" fill="#F6AF62"/>
<path d="M1599.11 1474.52C1599.93 1491.19 1591.65 1495.57 1584.96 1496.44C1580.68 1497.01 1576.35 1496.01 1572.59 1494.12C1535.78 1475.97 1554.69 1431.61 1554.69 1431.61C1530.58 1452.56 1543.14 1496.09 1543.14 1496.09C1543.14 1496.09 1550.6 1520.77 1535.34 1522.91C1527.69 1524.01 1524.13 1521.21 1522.49 1518.19C1521 1515.39 1521 1512.11 1522.3 1509.22C1532.65 1485.86 1523.79 1472.64 1523.79 1472.64C1518.84 1486.03 1513.59 1494.87 1509.79 1500.16C1504.4 1507.69 1500.98 1516.26 1500.5 1525.23C1498.77 1558.66 1529.57 1572 1529.57 1572C1580.15 1595.45 1602.86 1552.57 1602.86 1552.57C1629 1506.9 1599.11 1474.52 1599.11 1474.52Z" fill="#FBD872"/>
<path d="M2012.26 1512.26C2012.26 1512.26 2003.64 1551.59 2007.64 1562.44C2007.64 1562.44 2012.93 1502.94 2063.8 1457C2063.8 1457 2062.16 1495.46 2088.58 1514.97C2115 1534.48 2120.97 1564.84 2120.97 1564.84C2120.97 1564.84 2123.95 1544.11 2115 1510.9C2115 1510.9 2171.16 1563.93 2145.42 1623.12C2145.42 1623.12 2114.38 1688.31 2025.49 1659.78C1936.6 1631.26 1996.37 1522.49 2012.26 1512.26Z" fill="#F6AF62"/>
<path d="M2107.11 1562.52C2107.93 1579.19 2099.65 1583.57 2092.96 1584.44C2088.68 1585.01 2084.35 1584.01 2080.59 1582.12C2043.78 1563.97 2062.69 1519.61 2062.69 1519.61C2038.58 1540.56 2051.14 1584.09 2051.14 1584.09C2051.14 1584.09 2058.6 1608.77 2043.34 1610.91C2035.69 1612.01 2032.13 1609.21 2030.49 1606.19C2029 1603.39 2029 1600.11 2030.3 1597.22C2040.65 1573.86 2031.79 1560.64 2031.79 1560.64C2026.84 1574.03 2021.59 1582.87 2017.79 1588.16C2012.4 1595.69 2008.98 1604.26 2008.5 1613.23C2006.77 1646.66 2037.57 1660 2037.57 1660C2088.15 1683.45 2110.86 1640.57 2110.86 1640.57C2137 1594.9 2107.11 1562.52 2107.11 1562.52Z" fill="#FBD872"/>
</svg>
