<svg width="4000" height="4000" viewBox="0 0 4000 4000" fill="none" xmlns="http://www.w3.org/2000/svg">
<g clip-path="url(#clip0_6_2)">
<path d="M2098.44 1407.17L1619.61 1322.74C1542.52 1309.15 1468.13 1365.64 1453.45 1448.91L1436.72 1543.81C1422.36 1625.22 1471.82 1701.99 1547.17 1715.28C1636.61 1731.05 1739.7 1682.54 1800.53 1607.96L1830.85 1613.31C1862.53 1704.2 1942.79 1785.04 2032.25 1800.81C2107.6 1814.1 2180.32 1758.86 2194.67 1677.46L2211.4 1582.56C2226.09 1499.29 2175.52 1420.76 2098.44 1407.17Z" fill="#212F3E"/>
<path d="M2040.92 1751.68C1971.78 1739.49 1901.7 1673.49 1874.27 1594.77L1865.17 1568.7L1783.56 1554.3L1766.09 1575.7C1713.39 1640.29 1624.97 1678.33 1555.83 1666.14C1505.66 1657.3 1472.64 1606.03 1482.2 1551.83L1498.93 1456.93C1508.81 1400.88 1559.06 1362.72 1610.93 1371.87L2089.78 1456.31C2141.65 1465.45 2175.81 1518.49 2165.93 1574.54L2149.2 1669.44C2139.64 1723.64 2091.08 1760.52 2040.92 1751.68Z" fill="#3E5163"/>
<path d="M1437.32 1540.43L1453.46 1448.92C1457.32 1427.04 1465.31 1407.02 1476.39 1389.63C1482.75 1379.65 1477.74 1365.28 1466.08 1363.23L1423.02 1355.64C1414.65 1354.16 1406.56 1360.28 1404.97 1369.34L1376.09 1533.13C1374.49 1542.17 1379.99 1550.71 1388.36 1552.18L1418.49 1557.5C1427.36 1559.06 1435.46 1552.49 1436.8 1543.59C1436.96 1542.54 1437.13 1541.48 1437.32 1540.43Z" fill="#6CA1E9"/>
<path d="M2201.94 1492.97C2201.94 1492.97 2201.94 1492.97 2201.94 1492.97C2213.1 1519.95 2216.99 1550.9 2211.4 1582.56L2195.27 1674.07C2195.08 1675.12 2194.88 1676.17 2194.67 1677.21C2192.89 1686.04 2198.26 1694.98 2207.12 1696.54L2237.26 1701.86C2245.64 1703.34 2253.71 1697.19 2255.31 1688.15L2284.19 1524.36C2285.78 1515.32 2280.3 1506.79 2271.92 1505.31L2201.94 1492.97C2201.94 1492.97 2201.94 1492.97 2201.94 1492.97V1492.97Z" fill="#6CA1E9"/>
<path d="M1539.23 1494.33C1535.35 1493.65 1531.75 1491.36 1529.36 1487.65C1524.56 1480.2 1526.39 1469.85 1533.44 1464.49L1605.63 1409.66C1612.69 1404.3 1622.27 1405.99 1627.07 1413.44C1631.86 1420.89 1630.04 1431.25 1622.98 1436.6L1550.79 1491.43C1547.28 1494.1 1543.11 1495.02 1539.23 1494.33Z" fill="#212F3E"/>
<path d="M1560.89 1548.82C1557 1548.13 1553.41 1545.84 1551.01 1542.13C1546.22 1534.68 1548.04 1524.33 1555.1 1518.97L1681.43 1423.03C1688.48 1417.67 1698.06 1419.36 1702.86 1426.81C1707.66 1434.26 1705.84 1444.61 1698.78 1449.97L1572.45 1545.91C1568.93 1548.58 1564.77 1549.5 1560.89 1548.82Z" fill="#212F3E"/>
</g>
<defs>
<clipPath id="clip0_6_2">
<rect width="892.782" height="964.625" fill="white" transform="translate(1468.51 1009) rotate(10)"/>
</clipPath>
</defs>
</svg>
