<svg width="4000" height="4000" viewBox="0 0 4000 4000" fill="none" xmlns="http://www.w3.org/2000/svg">
<g clip-path="url(#clip0_6_2)">
<path d="M1661.23 1710.19L1436.41 1670.55C1425.05 1668.54 1417 1660.32 1418.43 1652.17L1446.58 1492.56C1448.02 1484.41 1458.39 1479.43 1469.76 1481.44L1725.45 1526.52C1736.81 1528.53 1744.86 1536.75 1743.43 1544.9L1719.18 1682.4C1715.59 1702.76 1689.65 1715.2 1661.23 1710.19Z" fill="#C7E9F4"/>
<path d="M1444.76 1502.88C1422.03 1498.87 1401.27 1508.82 1398.4 1525.11C1395.53 1541.4 1411.63 1557.85 1434.36 1561.86L1444.76 1502.88Z" fill="#51B3DA"/>
<path d="M1862.51 1745.68L2087.33 1785.32C2098.7 1787.33 2109.08 1782.35 2110.51 1774.2L2138.66 1614.59C2140.09 1606.44 2132.04 1598.22 2120.68 1596.21L1864.99 1551.13C1853.62 1549.12 1843.25 1554.1 1841.81 1562.25L1817.57 1699.74C1813.98 1720.1 1834.1 1740.67 1862.51 1745.68Z" fill="#C7E9F4"/>
<path d="M2136.84 1624.91C2159.57 1628.92 2175.67 1645.37 2172.79 1661.66C2169.92 1677.95 2149.17 1687.9 2126.44 1683.89L2136.84 1624.91Z" fill="#51B3DA"/>
<path d="M1504.76 1605.19L1617.3 1551.2C1624.09 1547.95 1625.33 1540.94 1620.06 1535.56C1614.79 1530.18 1605.02 1528.46 1598.23 1531.71L1485.69 1585.69C1478.9 1588.95 1477.66 1595.95 1482.93 1601.34C1488.2 1606.72 1497.97 1608.44 1504.76 1605.19Z" fill="#13829B"/>
<path d="M1664.33 1550.92L1487.39 1635.79C1480.6 1639.04 1479.37 1646.04 1484.63 1651.43C1489.9 1656.81 1499.67 1658.53 1506.46 1655.27L1683.39 1570.41C1690.18 1567.15 1691.42 1560.15 1686.15 1554.77C1680.89 1549.39 1671.11 1547.66 1664.33 1550.92Z" fill="#13829B"/>
<path d="M1647.71 1609.8L1571.81 1646.2C1565.02 1649.46 1563.79 1656.46 1569.05 1661.84C1574.32 1667.23 1584.09 1668.95 1590.88 1665.69L1666.78 1629.29C1673.57 1626.03 1674.8 1619.03 1669.54 1613.65C1664.27 1608.27 1654.5 1606.54 1647.71 1609.8Z" fill="#13829B"/>
<path d="M2037 1627.44C2031.73 1622.06 2021.96 1620.33 2015.17 1623.59L1902.62 1677.57C1895.83 1680.83 1894.6 1687.83 1899.86 1693.21C1905.13 1698.59 1914.9 1700.31 1921.69 1697.06L2034.24 1643.08C2041.03 1639.82 2042.26 1632.82 2037 1627.44Z" fill="#13829B"/>
<path d="M2025.3 1669.64L1960.3 1700.82C1953.51 1704.07 1952.28 1711.08 1957.54 1716.46C1962.81 1721.84 1972.58 1723.56 1979.37 1720.3L2044.37 1689.13C2051.16 1685.87 2052.39 1678.87 2047.12 1673.49C2041.86 1668.11 2032.08 1666.38 2025.3 1669.64Z" fill="#13829B"/>
<path d="M2153.95 1618.12L2154.09 1617.31C2156.6 1603.08 2142.49 1588.65 2122.63 1585.15L1866.94 1540.07C1847.08 1536.57 1828.89 1545.29 1826.38 1559.52L1823.21 1577.49C1804.32 1564.85 1778.23 1560.05 1755.69 1565.59L1758.86 1547.62C1761.37 1533.39 1747.25 1518.96 1727.39 1515.46L1471.71 1470.38C1451.85 1466.88 1433.65 1475.6 1431.15 1489.83L1431 1490.64C1374.38 1492.13 1364.5 1547.87 1417.25 1568.65L1403 1649.45C1400.49 1663.68 1414.61 1678.11 1434.46 1681.61L1659.28 1721.25C1696.16 1727.75 1729.96 1711.54 1734.61 1685.12L1748.73 1605.06C1751.08 1591.72 1768.14 1583.54 1786.76 1586.82C1805.37 1590.1 1818.6 1603.62 1816.25 1616.96L1802.13 1697.02C1797.47 1723.45 1823.69 1750.24 1860.56 1756.74L2085.38 1796.38C2105.24 1799.88 2123.44 1791.15 2125.95 1776.93L2140.19 1696.13C2196.82 1694.65 2206.69 1638.89 2153.95 1618.12ZM1426.72 1514.91L1421.53 1544.38C1409.12 1534.57 1411.7 1519.89 1426.72 1514.91ZM1703.75 1679.67C1701.24 1693.9 1683.04 1702.63 1663.18 1699.13L1438.36 1659.49C1435.53 1658.99 1433.51 1656.93 1433.87 1654.89C1436.94 1637.47 1459.21 1511.17 1462.01 1495.28C1462.37 1493.24 1464.97 1492 1467.81 1492.5L1723.5 1537.58C1726.33 1538.08 1728.35 1540.14 1727.99 1542.17L1703.75 1679.67ZM2095.08 1771.48C2094.72 1773.52 2092.12 1774.76 2089.28 1774.26L1864.46 1734.62C1844.61 1731.12 1830.49 1716.69 1833 1702.46L1857.25 1564.97C1857.6 1562.93 1860.2 1561.69 1863.04 1562.19L2118.73 1607.27C2121.56 1607.77 2123.58 1609.83 2123.22 1611.86L2095.08 1771.48L2095.08 1771.48ZM2144.47 1671.86L2149.67 1642.38C2162.08 1652.2 2159.49 1666.88 2144.47 1671.86Z" fill="#13829B"/>
</g>
<defs>
<clipPath id="clip0_6_2">
<rect width="817.391" height="585.72" fill="white" transform="translate(1426.91 1274) rotate(10)"/>
</clipPath>
</defs>
</svg>
