<svg width="4000" height="4000" viewBox="0 0 4000 4000" fill="none" xmlns="http://www.w3.org/2000/svg">
<g clip-path="url(#clip0_6_2)">
<path d="M2268.37 1543.94L1427.93 1318.75L1406.31 1399.43L2246.75 1624.63L2268.37 1543.94Z" fill="#1E94A8"/>
<path d="M1510.99 1612.25L1499.83 1631.58C1498.69 1633.56 1497.35 1635.38 1495.89 1637.02C1482.48 1652.07 1456.48 1653.86 1438.74 1639.6C1419.1 1623.81 1400.67 1599.69 1403.71 1565.69C1405 1551.37 1407.62 1538.6 1411 1527.34C1424 1483.9 1447.99 1463.14 1447.99 1463.14L1510.99 1612.25Z" fill="#FFE473"/>
<path d="M2165.87 1769.91C2151.5 1800.88 2123.48 1812.55 2098.58 1816.4C2076.09 1819.89 2054.46 1805.33 2050.37 1785.6C2049.93 1783.44 2049.68 1781.2 2049.68 1778.92L2049.68 1756.59L2178.8 1658.96C2178.8 1658.96 2189.2 1688.92 2178.74 1733.02C2176.04 1744.46 2171.94 1756.85 2165.87 1769.91Z" fill="#FFE473"/>
<path d="M1909.46 1368.99L1826.23 1346.69L1878.59 1151.26C1907.89 1146.98 1938.59 1155.21 1961.82 1173.56L1909.46 1368.99Z" fill="#26A3BF"/>
<path d="M1447.99 1463.14L1510.99 1612.25L1499.83 1631.58C1498.69 1633.56 1497.35 1635.38 1495.89 1637.02C1481.81 1629.47 1469.12 1620.41 1458.05 1610.22C1432.76 1586.96 1416 1557.83 1411 1527.34C1424 1483.9 1447.99 1463.14 1447.99 1463.14Z" fill="#E5CD65"/>
<path d="M2178.74 1733.02C2150.61 1767.41 2102.82 1787.2 2050.37 1785.6C2049.93 1783.44 2049.68 1781.2 2049.68 1778.92L2049.68 1756.59L2178.8 1658.96C2178.8 1658.96 2189.2 1688.92 2178.74 1733.02Z" fill="#E5CD65"/>
<path d="M2096.8 1399.97L1648.5 1279.85C1633.27 1275.77 1618 1283.36 1614.4 1296.81L1594.5 1371.07L2097.95 1505.97L2117.85 1431.71C2121.45 1418.26 2112.03 1404.05 2096.8 1399.97Z" fill="#FFE473"/>
<path d="M2213.2 1530.58L2178.8 1658.96C2159.26 1731.89 2076.46 1773.08 1993.88 1750.96L1562.13 1635.27C1532.58 1627.35 1507.04 1612.4 1487.34 1593.09C1452.01 1558.49 1435.44 1509.97 1447.99 1463.14L1482.38 1334.76C1493.46 1293.44 1540.38 1270.09 1587.17 1282.63L2148.52 1433.04C2156.15 1435.09 2163.32 1437.97 2169.92 1441.53C2189.34 1452.03 2203.8 1468.46 2210.81 1487.11C2216.02 1500.9 2217.14 1515.88 2213.2 1530.58Z" fill="#F98680"/>
<path d="M1403.72 1565.69L1389.72 1563C1373.53 1559.9 1362.4 1545.74 1364.85 1531.36L1406.25 1288.44C1407.22 1282.75 1414.87 1280.64 1419.78 1284.71L1428.86 1292.23C1439.38 1300.95 1444.54 1313.62 1442.56 1325.83L1403.72 1565.69Z" fill="#26A3BF"/>
<path d="M2164.84 1773.7L2178.31 1778.38C2193.88 1783.79 2210.61 1777.09 2215.67 1763.42L2301.28 1532.34C2303.28 1526.93 2297.71 1521.27 2291.42 1522.34L2279.8 1524.32C2266.33 1526.61 2255.52 1535 2251.13 1546.56L2164.84 1773.7Z" fill="#26A3BF"/>
<path opacity="0.5" d="M2054.95 1442.56L1675.88 1631.16L1570.78 1603C1551.9 1597.94 1534.61 1588.9 1520.33 1576.68L1882.68 1396.4L2054.95 1442.56Z" fill="white"/>
<path opacity="0.5" d="M2177.4 1503.74L1835.38 1673.89L1749.24 1650.81L2128.32 1462.22L2139.87 1465.32C2144.15 1466.46 2148.27 1468.09 2152.1 1470.17C2162.98 1476.04 2171.23 1485.27 2175.32 1496.09C2176.27 1498.61 2176.96 1501.16 2177.4 1503.74Z" fill="white"/>
</g>
<defs>
<clipPath id="clip0_6_2">
<rect width="927.721" height="819.351" fill="white" transform="translate(1503.06 927) rotate(15)"/>
</clipPath>
</defs>
</svg>
