<svg width="4000" height="4000" viewBox="0 0 4000 4000" fill="none" xmlns="http://www.w3.org/2000/svg">
<path d="M2186.32 1585.49L1505.99 1465.53C1497.8 1464.09 1489.86 1470.32 1488.26 1479.44C1486.65 1488.56 1491.97 1497.13 1500.16 1498.58L2180.5 1618.54C2188.64 1619.97 2196.58 1613.74 2198.18 1604.62C2199.79 1595.5 2194.47 1586.93 2186.32 1585.49Z" fill="#CCD1D9"/>
<path d="M1605.08 1653.28C1522.2 1638.67 1466.53 1560.12 1480.98 1478.16C1495.44 1396.2 1574.61 1341.43 1657.5 1356.04C1740.38 1370.66 1796.05 1449.21 1781.6 1531.17C1767.15 1613.12 1687.97 1667.9 1605.08 1653.28Z" fill="#F6BB42"/>
<path d="M1648.76 1405.58C1593.42 1395.82 1540.73 1432.28 1531.09 1486.99C1529.48 1496.11 1535.66 1504.84 1544.91 1506.47C1554.11 1508.09 1562.9 1502.01 1564.5 1492.89C1570.92 1456.48 1606.1 1432.1 1642.94 1438.6C1652.19 1440.23 1660.98 1434.15 1662.58 1425.05C1664.19 1415.91 1658.01 1407.21 1648.76 1405.58Z" fill="#FFCE54"/>
<path d="M2005.9 1723.96C1923.02 1709.34 1867.35 1630.79 1881.8 1548.83C1896.25 1466.88 1975.43 1412.1 2058.31 1426.72C2141.2 1441.33 2196.86 1519.88 2182.41 1601.84C2167.96 1683.8 2088.78 1738.57 2005.9 1723.96Z" fill="#F6BB42"/>
<path d="M1660.41 1339.52C1568.18 1323.26 1480.39 1384 1464.3 1475.22C1448.22 1566.44 1509.94 1653.54 1602.17 1669.81C1694.4 1686.07 1782.25 1625.34 1798.33 1534.12C1814.42 1442.9 1752.64 1355.78 1660.41 1339.52ZM1709.3 1614.72C1679.65 1635.23 1643.72 1643.06 1608 1636.76C1572.33 1630.47 1541.19 1610.82 1520.34 1581.4C1499.54 1552.02 1491.5 1516.4 1497.72 1481.11C1503.94 1445.82 1523.69 1415.08 1553.28 1394.61C1582.93 1374.09 1618.92 1366.27 1654.59 1372.56C1690.3 1378.86 1721.4 1398.51 1742.24 1427.93C1763.09 1457.29 1771.14 1492.93 1764.91 1528.22C1758.69 1563.52 1738.95 1594.23 1709.3 1614.72Z" fill="#E6E9ED"/>
<path d="M2061.23 1410.19C1969 1393.93 1881.2 1454.67 1865.12 1545.89C1849.03 1637.11 1910.76 1724.22 2002.99 1740.48C2095.22 1756.74 2183.06 1696.01 2199.15 1604.79C2215.23 1513.57 2153.45 1426.46 2061.23 1410.19ZM2110.12 1685.39C2080.47 1705.91 2044.53 1713.74 2008.81 1707.44C1973.15 1701.15 1942 1681.49 1921.16 1652.07C1900.36 1622.69 1892.31 1587.08 1898.53 1551.78C1904.76 1516.49 1924.5 1485.75 1954.09 1465.28C1983.74 1444.77 2019.73 1436.95 2055.4 1443.24C2091.12 1449.53 2122.21 1469.18 2143.05 1498.6C2163.91 1527.97 2171.95 1563.61 2165.73 1598.9C2159.5 1634.19 2139.76 1664.91 2110.12 1685.39Z" fill="#E6E9ED"/>
<path d="M2049.58 1476.26C1994.24 1466.5 1941.55 1502.95 1931.9 1557.67C1930.29 1566.79 1936.47 1575.51 1945.72 1577.14C1954.92 1578.76 1963.71 1572.68 1965.32 1563.56C1971.74 1527.16 2006.91 1502.78 2043.75 1509.27C2053 1510.91 2061.79 1504.82 2063.4 1495.73C2065.01 1486.59 2058.82 1477.89 2049.58 1476.26Z" fill="#FFCE54"/>
</svg>
