<svg width="4000" height="4000" viewBox="0 0 4000 4000" fill="none" xmlns="http://www.w3.org/2000/svg">
<g clip-path="url(#clip0_6_2)">
<path d="M1449.15 1349.08C1584.93 1349.18 1686.96 1383.49 1796.35 1437.2C1812.56 1445.16 1829.65 1453.81 1848.64 1458.81C1880.27 1467.14 1917.92 1467.46 1950.59 1466.81C2079.58 1464.26 2171.11 1502.21 2258.34 1543.05L2239.01 1595.85C2224.61 1592.86 2218.56 1598.52 2211.45 1610.64C2174.24 1674.11 2165.3 1796.04 2010.16 1745.64C1908.09 1712.48 1884.87 1676.98 1864.27 1539.72C1862.51 1528.04 1863.85 1509.72 1839.58 1504.81C1825.87 1502.03 1813.13 1501.63 1803.4 1524.38C1785.28 1566.76 1697.34 1672.97 1575.11 1644.61C1467.15 1619.56 1438.94 1553.86 1462.6 1428.91C1465.54 1413.39 1452.85 1407.39 1444.88 1405.36L1449.15 1349.08Z" fill="#7C54B8"/>
<path d="M1727.26 1421.25C1743.47 1429.21 1760.56 1437.86 1779.55 1442.86C1793.18 1446.45 1807.93 1448.54 1822.91 1449.72C1813.72 1445.78 1804.91 1441.4 1796.35 1437.2C1722.53 1400.95 1652.05 1373.56 1572.3 1359.54C1625.21 1374.7 1675.41 1395.79 1727.26 1421.25Z" fill="#674799"/>
<path d="M2056.36 1474.27C2084.64 1482.64 2111.27 1492.71 2137.02 1503.62C2166.53 1516.13 2147.78 1580.34 2142.36 1594.69C2119.92 1654.04 2099.19 1747.59 1997.3 1741.29C2001.44 1742.75 2005.72 1744.2 2010.16 1745.64C2165.3 1796.04 2174.24 1674.11 2211.45 1610.65C2218.56 1598.52 2224.61 1592.86 2239.01 1595.85L2258.34 1543.05C2197 1514.33 2133.5 1487.05 2056.36 1474.27Z" fill="#674799"/>
<path d="M1795.17 1523.77C1793.42 1512.09 1794.76 1493.77 1770.49 1488.86C1756.78 1486.08 1744.04 1485.68 1734.31 1508.43C1717.82 1547 1643.46 1638.45 1538.06 1633.17C1549.19 1637.65 1561.52 1641.45 1575.11 1644.61C1686.8 1670.52 1769.84 1584.09 1797.17 1536.65C1796.5 1532.46 1795.83 1528.17 1795.17 1523.77Z" fill="#674799"/>
<path d="M1618.28 1430.92L1588.13 1465.64L1542.53 1460.45C1535.37 1459.64 1530.38 1467.41 1534.08 1473.59L1557.67 1513.03L1538.62 1554.9C1535.62 1561.47 1541.45 1568.62 1548.47 1566.99L1593.2 1556.65L1627.02 1587.71C1632.33 1592.58 1640.92 1589.24 1641.55 1582.04L1645.61 1536.22L1685.57 1513.54C1691.84 1509.99 1691.33 1500.77 1684.7 1497.95L1642.48 1479.97L1633.35 1434.9C1631.92 1427.82 1623.01 1425.47 1618.28 1430.92Z" fill="#FFDB6C"/>
<path d="M2049.98 1530.59L2019.83 1565.3L1974.23 1560.12C1967.08 1559.31 1962.09 1567.07 1965.79 1573.26L1989.38 1612.69L1970.32 1654.56C1967.33 1661.13 1973.15 1668.28 1980.17 1666.66L2024.9 1656.32L2058.72 1687.38C2064.03 1692.25 2072.62 1688.91 2073.26 1681.71L2077.31 1635.89L2117.27 1613.21C2123.55 1609.65 2123.03 1600.44 2116.4 1597.61L2074.18 1579.64L2065.06 1534.56C2063.62 1527.49 2054.72 1525.14 2049.98 1530.59Z" fill="#FC4C59"/>
</g>
<defs>
<clipPath id="clip0_6_2">
<rect width="832.089" height="834.201" fill="white" transform="translate(1515.65 1061) rotate(13)"/>
</clipPath>
</defs>
</svg>
