<svg width="4000" height="4000" viewBox="0 0 4000 4000" fill="none" xmlns="http://www.w3.org/2000/svg">
<g opacity="0.8" clip-path="url(#clip0_6_2)">
<path d="M1554.75 1665.23C1651.33 1682.26 1743.04 1620.03 1759.57 1526.22C1776.11 1432.42 1711.23 1342.57 1614.65 1325.54C1518.06 1308.52 1426.36 1370.75 1409.82 1464.55C1393.28 1558.36 1458.17 1648.2 1554.75 1665.23Z" fill="#00233F"/>
<path d="M1560.64 1631.82C1638.38 1645.53 1712.17 1595.56 1725.45 1520.21C1738.74 1444.86 1686.49 1372.66 1608.75 1358.96C1531.02 1345.25 1457.23 1395.22 1443.94 1470.57C1430.66 1545.92 1482.9 1618.11 1560.64 1631.82Z" fill="#84B7B6"/>
<path d="M1675.23 1389.34C1657.29 1374.69 1636.94 1365.36 1613.02 1359.71L1442.96 1476.14C1440.46 1498.66 1442.22 1521.94 1450.4 1542.04L1675.23 1389.34Z" fill="#B3E2E2"/>
<path d="M1725.27 1471.37L1512.35 1614.69C1520.39 1618.98 1527.01 1623.02 1535.3 1625.92L1726.78 1496.04C1728.26 1487.69 1726.88 1478.83 1725.27 1471.37Z" fill="#B3E2E2"/>
<path d="M1573.44 1634.08C1641.24 1640.29 1704.6 1596.92 1721.82 1532.49L1573.44 1634.08Z" fill="#B3E2E2"/>
<path d="M2009.71 1745.45C2106.3 1762.48 2198 1700.25 2214.54 1606.45C2231.08 1512.64 2166.19 1422.8 2069.61 1405.77C1973.03 1388.74 1881.33 1450.97 1864.79 1544.78C1848.25 1638.58 1913.13 1728.42 2009.71 1745.45Z" fill="#00233F"/>
<path d="M2015.61 1712.04C2093.34 1725.75 2167.13 1675.78 2180.42 1600.43C2193.7 1525.08 2141.46 1452.89 2063.72 1439.18C1985.98 1425.47 1912.19 1475.44 1898.91 1550.79C1885.62 1626.14 1937.87 1698.34 2015.61 1712.04Z" fill="#84B7B6"/>
<path d="M2130.19 1469.56C2112.25 1454.91 2091.91 1445.59 2067.98 1439.93L1897.93 1556.36C1895.42 1578.89 1897.18 1602.16 1905.36 1622.27L2130.19 1469.56Z" fill="#B3E2E2"/>
<path d="M2180.23 1551.59L1967.32 1694.92C1975.36 1699.2 1981.97 1703.24 1990.26 1706.14L2181.75 1576.26C2183.22 1567.91 2181.85 1559.05 2180.23 1551.59Z" fill="#B3E2E2"/>
<path d="M2028.4 1714.3C2096.21 1720.51 2159.56 1677.14 2176.79 1612.71L2028.4 1714.3Z" fill="#B3E2E2"/>
<path d="M1431.15 1468.31C1429.18 1479.45 1420.16 1480.73 1408.79 1478.73L1381.77 1473.96C1370.4 1471.96 1362.36 1467.67 1364.32 1456.53C1366.29 1445.39 1375.31 1444.11 1386.68 1446.12L1413.7 1450.88C1425.07 1452.89 1433.11 1457.18 1431.15 1468.31Z" fill="#00233F"/>
<path d="M2260.04 1614.47C2258.07 1625.61 2249.05 1626.89 2237.68 1624.88L2210.66 1620.12C2199.29 1618.11 2191.25 1613.82 2193.21 1602.69C2195.18 1591.55 2204.2 1590.27 2215.57 1592.27L2242.59 1597.04C2252.54 1598.79 2262 1603.33 2260.04 1614.47Z" fill="#00233F"/>
<path d="M1894.64 1550.04C1892.68 1561.18 1870.86 1560.2 1843.85 1555.44L1775.6 1543.4C1748.59 1538.64 1727.75 1532.1 1729.72 1520.96C1731.68 1509.82 1753.5 1510.8 1780.51 1515.56L1848.76 1527.6C1875.77 1532.36 1896.61 1538.9 1894.64 1550.04Z" fill="#00233F"/>
</g>
<defs>
<clipPath id="clip0_6_2">
<rect width="909.529" height="890.592" fill="white" transform="translate(1441.65 1018) rotate(10)"/>
</clipPath>
</defs>
</svg>
