<svg width="4000" height="4000" viewBox="0 0 4000 4000" fill="none" xmlns="http://www.w3.org/2000/svg">
<path d="M2227.77 1706.94C2220.64 1730.46 2195.75 1744.85 2169.85 1740.45L1952.4 1702.11C1926.51 1697.43 1907.99 1675.36 1909.34 1650.81C1911.6 1610.07 1913.04 1573.91 1914.5 1537.89C1915.22 1519.8 1915.95 1501.75 1916.79 1483.16C1917.56 1465.83 1933.44 1452.56 1952.16 1453.57C2003.48 1456.37 2054.58 1462.26 2105.18 1471.18C2155.76 1480.1 2205.82 1492.05 2254.97 1506.97C2272.93 1512.43 2283.31 1530.32 2278.09 1546.87C2272.57 1564.47 2267.11 1581.55 2261.66 1598.66C2250.65 1633.16 2239.63 1667.75 2227.77 1706.94Z" fill="#53DCFF" fill-opacity="0.8"/>
<path d="M2076.38 1466.55C2039.32 1460.88 2002.01 1456.85 1964.57 1454.44L2183.25 1740.89C2203.89 1739.33 2221.89 1726.33 2227.77 1706.94C2230.89 1696.63 2233.95 1686.66 2236.97 1676.9L2076.38 1466.55Z" fill="#B3F4FF" fill-opacity="0.8"/>
<g opacity="0.8">
<path d="M1709.12 1615.49C1701.99 1639 1677.1 1653.39 1651.2 1649L1433.75 1610.66C1407.86 1605.98 1389.34 1583.91 1390.69 1559.35C1392.95 1518.62 1394.39 1482.46 1395.85 1446.43C1396.57 1428.35 1397.3 1410.3 1398.14 1391.71C1398.91 1374.37 1414.79 1361.11 1433.51 1362.12C1484.83 1364.92 1535.93 1370.81 1586.53 1379.73C1637.11 1388.65 1687.17 1400.6 1736.32 1415.51C1754.28 1420.97 1764.66 1438.87 1759.44 1455.42C1753.92 1473.02 1748.46 1490.1 1743.01 1507.21C1732 1541.71 1720.98 1576.3 1709.12 1615.49Z" fill="#53DCFF"/>
</g>
<path d="M2264.82 1476.83C2163.64 1446.12 2058.79 1427.63 1953.21 1421.89C1922.8 1420.23 1896.47 1437.52 1886.71 1462.55C1874.73 1452.18 1859.82 1444.62 1842.99 1441.65C1826.14 1438.68 1809.55 1440.69 1794.75 1446.33C1794.13 1419.47 1775.31 1394.23 1746.17 1385.38C1644.99 1354.66 1540.14 1336.18 1434.57 1330.44C1397.13 1328.4 1365.4 1354.9 1363.85 1389.5C1363.02 1408.15 1362.3 1426.23 1361.56 1444.35C1360.12 1480.25 1358.67 1516.26 1356.42 1556.84C1354.2 1597.49 1385.01 1634.01 1428.16 1641.83L1645.75 1680.19C1645.78 1680.2 1645.81 1680.2 1645.85 1680.21C1688.96 1687.58 1730.37 1663.78 1742.18 1624.85C1753.98 1585.79 1764.98 1551.34 1775.93 1516.97C1777.66 1511.56 1779.41 1506 1781.14 1500.58C1781.44 1500.1 1781.87 1499.75 1782.11 1499.23C1791.52 1479.6 1814.29 1468.75 1837.49 1472.84C1860.65 1476.93 1878.34 1494.88 1880.49 1516.5C1880.54 1517.03 1880.85 1517.45 1880.96 1517.96C1880.72 1523.72 1880.46 1529.61 1880.23 1535.36C1878.77 1571.4 1877.33 1607.54 1875.05 1648.29C1872.83 1688.94 1903.64 1725.46 1946.81 1733.28L2164.39 1771.64C2164.43 1771.65 2164.46 1771.65 2164.49 1771.66C2207.61 1779.03 2249 1755.22 2260.81 1716.3C2272.58 1677.41 2283.53 1643.07 2294.46 1608.84C2299.96 1591.56 2305.47 1574.32 2311.06 1556.52C2321.44 1523.48 2300.69 1487.73 2264.82 1476.83ZM1709.12 1615.49C1701.99 1639 1677.1 1653.39 1651.2 1649L1433.75 1610.66C1407.86 1605.98 1389.34 1583.91 1390.69 1559.35C1392.95 1518.62 1394.39 1482.46 1395.85 1446.43C1396.57 1428.35 1397.3 1410.3 1398.14 1391.71C1398.91 1374.37 1414.79 1361.11 1433.51 1362.12C1484.83 1364.92 1535.93 1370.81 1586.53 1379.73C1637.11 1388.65 1687.17 1400.6 1736.32 1415.51C1754.28 1420.97 1764.66 1438.87 1759.44 1455.42C1753.92 1473.02 1748.46 1490.1 1743.01 1507.21C1732 1541.71 1720.98 1576.3 1709.12 1615.49ZM2278.09 1546.87C2272.52 1564.62 2267.03 1581.84 2261.52 1599.08C2250.57 1633.43 2239.57 1667.9 2227.75 1706.94C2220.62 1730.46 2195.74 1744.85 2169.85 1740.45L1952.4 1702.11C1926.49 1697.43 1907.98 1675.36 1909.32 1650.81C1911.59 1609.91 1913.06 1573.64 1914.51 1537.45C1915.24 1519.51 1915.96 1501.6 1916.79 1483.15C1917.54 1465.83 1933.42 1452.56 1952.16 1453.58C2003.46 1456.37 2054.58 1462.26 2105.16 1471.18C2155.74 1480.1 2205.8 1492.05 2254.97 1506.97C2272.91 1512.42 2283.29 1530.32 2278.09 1546.87Z" fill="#453825"/>
<path d="M1557.73 1375.1C1520.67 1369.42 1483.36 1365.39 1445.92 1362.99L1664.6 1649.44C1685.24 1647.88 1703.24 1634.88 1709.12 1615.49C1712.24 1605.17 1715.3 1595.21 1718.32 1585.45L1557.73 1375.1Z" fill="#B3F4FF"/>
<path d="M1643.21 1535.05C1675.94 1540.82 1706.78 1521.06 1712.09 1490.92C1717.41 1460.78 1695.18 1431.67 1662.46 1425.9C1629.73 1420.13 1598.89 1439.88 1593.57 1470.03C1588.26 1500.17 1610.48 1529.28 1643.21 1535.05Z" fill="white"/>
<path d="M2159.63 1626.11C2187.68 1631.05 2214.11 1614.12 2218.67 1588.29C2223.23 1562.45 2204.18 1537.5 2176.12 1532.55C2148.07 1527.6 2121.63 1544.54 2117.08 1570.37C2112.52 1596.21 2131.57 1621.16 2159.63 1626.11Z" fill="white"/>
<path d="M2168.09 1627.6C2200.82 1633.37 2231.66 1613.62 2236.98 1583.47C2242.29 1553.33 2220.07 1524.22 2187.34 1518.45C2154.61 1512.68 2123.77 1532.44 2118.45 1562.58C2113.14 1592.72 2135.36 1621.83 2168.09 1627.6Z" fill="white"/>
</svg>
