<svg width="4000" height="4000" viewBox="0 0 4000 4000" fill="none" xmlns="http://www.w3.org/2000/svg">
<g clip-path="url(#clip0_6_2)">
<path d="M2201.78 1514.28C2165.48 1463.01 2097.63 1451.05 2065.02 1445.3L1631.2 1368.8C1631.2 1368.8 1631.2 1368.8 1631.2 1368.8C1598.59 1363.05 1530.74 1351.09 1479.09 1386.85C1446 1409.76 1426.48 1447.63 1421.09 1499.42C1416.68 1541.76 1426.69 1580.27 1450.03 1610.79C1474.01 1642.15 1510.37 1662.91 1555.19 1670.81C1601.32 1678.94 1652.2 1665.76 1698.47 1633.7C1737.92 1606.36 1769.68 1568.09 1785.84 1530.48C1796.73 1519.97 1812.77 1515.2 1828.54 1517.98C1844.32 1520.76 1857.76 1530.73 1864.4 1544.33C1866.72 1585.21 1883.47 1632.03 1911.2 1671.21C1943.71 1717.17 1987.02 1746.95 2033.14 1755.09C2077.96 1762.99 2119.23 1755.92 2152.49 1734.66C2184.86 1713.96 2207.44 1681.19 2217.78 1639.9C2230.43 1589.39 2225.04 1547.13 2201.78 1514.28ZM1966.47 1488.96C2000.89 1484.81 2040.91 1490.76 2056.52 1493.52C2078.3 1497.36 2115.1 1503.86 2141.01 1523.36L1955.6 1490.67C1959 1490 1962.61 1489.42 1966.47 1488.96ZM1622.7 1417.02C1638.3 1419.77 1677.94 1427.86 1708.87 1443.53C1712.34 1445.29 1715.53 1447.07 1718.5 1448.86L1533.08 1416.17C1564.11 1406.71 1600.91 1413.18 1622.7 1417.02ZM1563.69 1622.59C1542.72 1618.9 1524.66 1611.36 1510.33 1600.48L1615.28 1618.99C1597.41 1624.16 1579.91 1625.45 1563.69 1622.59ZM1683 1581.21L1475.36 1544.6C1473.99 1538.19 1473.18 1531.51 1472.92 1524.58L1700.51 1564.71C1695.04 1570.45 1689.18 1575.99 1683 1581.21ZM1732.56 1520.65L1479.07 1475.95C1480.96 1469.31 1483.21 1463.16 1485.86 1457.56L1740.34 1502.43C1738.35 1508.4 1735.74 1514.5 1732.56 1520.65ZM1875.16 1484.35C1863.76 1477.24 1850.83 1472.2 1837.05 1469.77C1823.27 1467.34 1809.4 1467.66 1796.24 1470.43C1794.86 1462.65 1791.99 1454.39 1786.94 1445.98L1892.26 1464.55C1884.65 1470.73 1879.13 1477.51 1875.16 1484.35ZM2041.65 1706.87C2025.43 1704.01 2009.43 1696.81 1994.41 1685.84L2099.36 1704.34C2082.17 1709.67 2062.62 1710.57 2041.65 1706.87ZM2151.33 1663.79L1943.69 1627.18C1939.68 1620.15 1936.06 1612.95 1932.88 1605.69L2160.47 1645.82C2157.86 1652.23 2154.81 1658.24 2151.33 1663.79ZM1917.83 1553.32C1916.95 1546.46 1916.58 1539.83 1916.76 1533.53L2171.23 1578.41C2171.81 1584.58 2171.82 1591.13 2171.32 1598.01L1917.83 1553.32Z" fill="black"/>
</g>
<defs>
<clipPath id="clip0_6_2">
<rect width="810.227" height="750.711" fill="white" transform="translate(1487.36 1120) rotate(10)"/>
</clipPath>
</defs>
</svg>
