<svg width="4000" height="4000" viewBox="0 0 4000 4000" fill="none" xmlns="http://www.w3.org/2000/svg">
<path fill-rule="evenodd" clip-rule="evenodd" d="M1605.8 1433.05L1584.77 1410.2L1572.64 1384.66V1358.4H1554.05L1526.02 1376.65L1509.58 1404.86L1507.15 1426.74L1486.67 1420.18L1479.93 1449.11L1540.3 1466.62L1612 1455.19L1605.8 1433.07" fill="#F63832"/>
<path fill-rule="evenodd" clip-rule="evenodd" d="M1550.01 1418.95L1524.13 1447.94L1543 1463.69L1567.79 1447.94L1550.01 1418.95Z" fill="#F1CA25"/>
<path fill-rule="evenodd" clip-rule="evenodd" d="M1623.74 1467.96L1598.28 1449.67L1573.61 1447.95L1542.53 1461.33L1536.4 1457.5L1513.8 1447.94L1492.62 1449.02L1464.84 1463.67L1456.6 1487.02L1458.96 1509.53L1485.32 1544.57L1510.29 1569.2L1544.65 1589.8L1563.01 1576.2L1607.5 1540.74L1629.4 1494.86L1623.74 1467.94" fill="#EF204D"/>
<path fill-rule="evenodd" clip-rule="evenodd" d="M1581.54 1555.96C1569.53 1565.83 1556.64 1574.8 1543 1582.78C1529.36 1574.8 1516.47 1565.84 1504.46 1555.96C1485.3 1540.08 1462.46 1515.93 1462.46 1491.21C1462.45 1486.21 1463.53 1481.26 1465.65 1476.64C1467.78 1472.02 1470.89 1467.83 1474.82 1464.3C1478.73 1460.75 1483.38 1457.94 1488.5 1456.03C1493.62 1454.12 1499.11 1453.14 1504.65 1453.15C1510.26 1453.14 1515.82 1454.14 1521 1456.1C1526.18 1458.06 1530.86 1460.94 1534.78 1464.57L1543 1472.14L1551.22 1464.57C1555.14 1460.94 1559.82 1458.06 1565 1456.1C1570.17 1454.14 1575.73 1453.14 1581.35 1453.15C1586.89 1453.14 1592.38 1454.12 1597.5 1456.03C1602.62 1457.94 1607.26 1460.75 1611.17 1464.3C1615.1 1467.82 1618.22 1472.02 1620.34 1476.64C1622.46 1481.26 1623.55 1486.21 1623.54 1491.21C1623.54 1515.93 1600.69 1540.08 1581.54 1555.96ZM1561.66 1446.14C1554.64 1448.64 1548.28 1452.45 1543 1457.31C1539.66 1454.24 1535.88 1451.57 1531.76 1449.39C1535.37 1440.88 1541.19 1433.27 1548.73 1427.2C1552.27 1433.92 1556.61 1440.27 1561.66 1446.14V1446.14ZM1491.96 1424.77C1495.58 1426.17 1499.08 1427.8 1502.45 1429.65L1511.46 1435.23V1425.38C1511.46 1407.61 1516.15 1393.88 1525.79 1383.43C1534.42 1374.07 1547.46 1366.75 1565.48 1361.15C1564.93 1365.71 1564.85 1370.31 1565.23 1374.89C1566.72 1392.38 1574.9 1408.86 1588.38 1421.5C1597.57 1430.33 1603.48 1439.3 1606.02 1448.17C1598.4 1444.61 1589.94 1442.76 1581.35 1442.76C1578.9 1442.77 1576.45 1442.92 1574.02 1443.22C1566.51 1435.37 1560.51 1426.45 1556.28 1416.81L1553.54 1409.81L1547.2 1414.54C1534.27 1424.23 1525.67 1434.24 1521.22 1445.12C1515.87 1443.55 1510.27 1442.75 1504.64 1442.76C1498.71 1442.75 1492.83 1443.63 1487.22 1445.36C1487.61 1438.32 1489.2 1431.37 1491.96 1424.77V1424.77ZM1618.96 1456.66C1618.85 1453.65 1618.44 1450.66 1617.74 1447.72C1615.05 1436.38 1607.99 1425.17 1596.75 1414.4C1585.15 1403.62 1578.08 1389.53 1576.74 1374.55C1576.08 1368.04 1576.63 1361.48 1578.36 1355.13L1581.46 1346L1571.28 1348.63C1525.54 1360.42 1503.3 1381.62 1500.31 1416.82C1495.93 1414.94 1491.76 1413.37 1491.01 1413.09L1485.79 1411.14L1483.54 1415.82C1478.03 1426.66 1475.34 1438.5 1475.69 1450.43C1468.11 1454.81 1461.87 1460.84 1457.55 1467.96C1453.23 1475.09 1450.96 1483.08 1450.96 1491.21C1450.96 1546.56 1543.01 1595 1543.01 1595C1543.01 1595 1635.05 1546.56 1635.05 1491.21C1635.06 1484.77 1633.64 1478.4 1630.88 1472.47C1628.12 1466.53 1624.07 1461.16 1618.98 1456.65" fill="#070505"/>
<path fill-rule="evenodd" clip-rule="evenodd" d="M2120.8 1544.05L2099.77 1521.2L2087.64 1495.66V1469.4H2069.05L2041.02 1487.65L2024.58 1515.86L2022.15 1537.74L2001.67 1531.18L1994.93 1560.11L2055.3 1577.62L2127 1566.19L2120.8 1544.07" fill="#F63832"/>
<path fill-rule="evenodd" clip-rule="evenodd" d="M2065.01 1529.95L2039.13 1558.94L2058 1574.69L2082.79 1558.94L2065.01 1529.95Z" fill="#F1CA25"/>
<path fill-rule="evenodd" clip-rule="evenodd" d="M2138.74 1578.96L2113.28 1560.67L2088.61 1558.95L2057.53 1572.33L2051.4 1568.5L2028.8 1558.94L2007.62 1560.02L1979.84 1574.67L1971.6 1598.02L1973.96 1620.53L2000.32 1655.57L2025.29 1680.2L2059.65 1700.8L2078.01 1687.2L2122.5 1651.74L2144.4 1605.86L2138.74 1578.94" fill="#EF204D"/>
<path fill-rule="evenodd" clip-rule="evenodd" d="M2096.54 1666.96C2084.53 1676.83 2071.64 1685.8 2058 1693.78C2044.36 1685.8 2031.47 1676.84 2019.46 1666.96C2000.3 1651.08 1977.46 1626.93 1977.46 1602.21C1977.45 1597.21 1978.53 1592.26 1980.65 1587.64C1982.78 1583.02 1985.89 1578.83 1989.82 1575.3C1993.73 1571.75 1998.38 1568.94 2003.5 1567.03C2008.62 1565.12 2014.11 1564.14 2019.65 1564.15C2025.26 1564.14 2030.82 1565.14 2036 1567.1C2041.18 1569.06 2045.86 1571.94 2049.78 1575.57L2058 1583.14L2066.22 1575.57C2070.14 1571.94 2074.82 1569.06 2080 1567.1C2085.17 1565.14 2090.73 1564.14 2096.35 1564.15C2101.89 1564.14 2107.38 1565.12 2112.5 1567.03C2117.62 1568.94 2122.26 1571.75 2126.17 1575.3C2130.1 1578.82 2133.22 1583.02 2135.34 1587.64C2137.46 1592.26 2138.55 1597.21 2138.54 1602.21C2138.54 1626.93 2115.69 1651.08 2096.54 1666.96ZM2076.66 1557.14C2069.64 1559.64 2063.28 1563.45 2058 1568.31C2054.66 1565.24 2050.88 1562.57 2046.76 1560.39C2050.37 1551.88 2056.19 1544.27 2063.73 1538.2C2067.27 1544.92 2071.61 1551.27 2076.66 1557.14V1557.14ZM2006.96 1535.77C2010.58 1537.17 2014.08 1538.8 2017.45 1540.65L2026.46 1546.23V1536.38C2026.46 1518.61 2031.15 1504.88 2040.79 1494.43C2049.42 1485.07 2062.46 1477.75 2080.48 1472.15C2079.93 1476.71 2079.85 1481.31 2080.23 1485.89C2081.72 1503.38 2089.9 1519.86 2103.38 1532.5C2112.57 1541.33 2118.48 1550.3 2121.02 1559.17C2113.4 1555.61 2104.94 1553.76 2096.35 1553.76C2093.9 1553.77 2091.45 1553.92 2089.02 1554.22C2081.51 1546.37 2075.51 1537.45 2071.28 1527.81L2068.54 1520.81L2062.2 1525.54C2049.27 1535.23 2040.67 1545.24 2036.22 1556.12C2030.87 1554.55 2025.27 1553.75 2019.64 1553.76C2013.71 1553.75 2007.83 1554.63 2002.22 1556.36C2002.61 1549.32 2004.2 1542.37 2006.96 1535.77V1535.77ZM2133.96 1567.66C2133.85 1564.65 2133.44 1561.66 2132.74 1558.72C2130.05 1547.38 2122.99 1536.17 2111.75 1525.4C2100.15 1514.62 2093.08 1500.53 2091.74 1485.55C2091.08 1479.04 2091.63 1472.48 2093.36 1466.13L2096.46 1457L2086.28 1459.63C2040.54 1471.42 2018.3 1492.62 2015.31 1527.82C2010.93 1525.94 2006.76 1524.37 2006.01 1524.09L2000.79 1522.14L1998.54 1526.82C1993.03 1537.66 1990.34 1549.5 1990.69 1561.43C1983.11 1565.81 1976.87 1571.84 1972.55 1578.96C1968.23 1586.09 1965.96 1594.08 1965.96 1602.21C1965.96 1657.56 2058.01 1706 2058.01 1706C2058.01 1706 2150.05 1657.56 2150.05 1602.21C2150.06 1595.77 2148.64 1589.4 2145.88 1583.47C2143.12 1577.53 2139.07 1572.16 2133.98 1567.65" fill="#070505"/>
</svg>
