<svg width="4000" height="4000" viewBox="0 0 4000 4000" fill="none" xmlns="http://www.w3.org/2000/svg">
<g clip-path="url(#clip0_0_1)">
<path d="M1576.99 1400.01C1512.49 1400.01 1460.01 1452.49 1460.01 1516.99C1460.01 1581.5 1512.49 1633.99 1576.99 1633.99C1641.5 1633.99 1693.99 1581.5 1693.99 1516.99C1693.99 1452.49 1641.5 1400.01 1576.99 1400.01ZM1576.99 1610.17C1525.62 1610.17 1483.83 1568.37 1483.83 1516.99C1483.83 1465.62 1525.62 1423.84 1576.99 1423.84C1628.36 1423.84 1670.17 1465.62 1670.17 1516.99C1670.17 1568.37 1628.37 1610.17 1576.99 1610.17Z" fill="#FFE101"/>
<path d="M1576.99 1392C1508.07 1392 1452 1448.07 1452 1516.99C1452 1585.92 1508.07 1642 1576.99 1642C1645.92 1642 1702 1585.92 1702 1516.99C1702 1448.07 1645.92 1392 1576.99 1392ZM1576.99 1633.99C1512.49 1633.99 1460.01 1581.5 1460.01 1516.99C1460.01 1452.49 1512.49 1400.01 1576.99 1400.01C1641.5 1400.01 1693.99 1452.49 1693.99 1516.98C1693.99 1581.5 1641.5 1633.99 1576.99 1633.99Z" fill="black"/>
<path d="M1589.64 1536.06C1589.64 1534.95 1589.38 1534.53 1588.99 1534.17C1588.91 1534.09 1588.73 1533.95 1588.42 1533.76V1537.99C1589.64 1537.27 1589.64 1536.47 1589.64 1536.06Z" fill="white"/>
<path d="M1566.17 1493.56V1493.83C1566.17 1494.77 1566.46 1495.11 1566.74 1495.37C1566.8 1495.43 1567.02 1495.61 1567.53 1495.87V1491.59C1567.21 1491.75 1567.03 1491.88 1566.94 1491.95C1566.31 1492.51 1566.17 1493 1566.17 1493.56Z" fill="white"/>
<path d="M1576.99 1431.85C1530.04 1431.85 1491.85 1470.04 1491.85 1516.99C1491.85 1563.95 1530.04 1602.16 1576.99 1602.16C1623.95 1602.16 1662.15 1563.95 1662.15 1516.99C1662.15 1470.04 1623.95 1431.85 1576.99 1431.85ZM1620.4 1534.29C1620.4 1539.05 1620.06 1543.44 1618.27 1547.34C1616.45 1551.23 1614.16 1554.62 1610.91 1557.46C1607.69 1560.25 1603.65 1562.49 1599.21 1564.12C1595.89 1565.34 1593.68 1566.24 1588.34 1566.81V1579.86H1566.97V1566.51C1561.62 1565.64 1555.11 1564.19 1549.59 1562.2C1542.89 1559.79 1536.61 1556.56 1531.08 1552.58L1527.87 1550.3L1544.77 1525.32L1548.1 1527.7C1552.21 1530.62 1556.08 1532.99 1560.06 1534.76C1562.39 1535.78 1564.29 1536.63 1566.97 1537.29V1528.86C1561.62 1527.71 1558.76 1526.45 1555.16 1525.02C1550.62 1523.24 1546.83 1521 1543.69 1518.37C1540.45 1515.68 1538.53 1512.44 1536.84 1508.75C1535.17 1505.08 1534.9 1500.76 1534.9 1495.9V1495.62C1534.9 1491.01 1535.24 1486.71 1536.93 1482.84C1538.6 1478.96 1540.83 1475.5 1544.09 1472.55C1547.26 1469.71 1551.08 1467.39 1555.61 1465.65C1559.05 1464.34 1561.62 1463.4 1566.96 1462.87V1454.29H1588.34V1463.42C1593.68 1464.17 1597.9 1465.34 1601.94 1466.89C1607.05 1468.87 1612.07 1471.4 1616.4 1474.39L1619.64 1476.54L1604.15 1501.9L1600.69 1499.44C1598.04 1497.57 1595.15 1495.99 1592.28 1494.74C1590.97 1494.17 1591.01 1493.67 1588.34 1493.23V1500.76C1593.68 1501.92 1596.89 1503.23 1600.41 1504.69C1604.89 1506.56 1608.75 1508.83 1611.8 1511.43C1615.03 1514.18 1616.94 1517.48 1618.55 1521.24C1620.13 1524.98 1620.39 1529.27 1620.39 1533.99V1534.29H1620.4Z" fill="white"/>
<path d="M1576.99 1423.84C1525.62 1423.84 1483.83 1465.62 1483.83 1516.99C1483.83 1568.37 1525.62 1610.17 1576.99 1610.17C1628.36 1610.17 1670.17 1568.37 1670.17 1516.99C1670.17 1465.62 1628.37 1423.84 1576.99 1423.84ZM1576.99 1602.16C1530.04 1602.16 1491.85 1563.95 1491.85 1516.99C1491.85 1470.04 1530.04 1431.85 1576.99 1431.85C1623.95 1431.85 1662.15 1470.04 1662.15 1516.99C1662.15 1563.95 1623.95 1602.16 1576.99 1602.16Z" fill="black"/>
<path d="M1606.66 1517.53C1604.24 1515.47 1601.13 1513.64 1597.43 1512.09C1593.53 1510.48 1588.78 1509.03 1583.52 1507.81L1580.32 1507.09V1482.86L1585.33 1484C1588.62 1484.76 1592.08 1485.9 1595.53 1487.38C1597.64 1488.31 1599.73 1489.37 1601.73 1490.56L1608.88 1478.93C1605.93 1477.18 1602.8 1475.65 1599.5 1474.37C1595.1 1472.68 1589.69 1471.51 1584.32 1470.89L1580.33 1470.48V1462.31H1574.99V1470.24L1571.21 1470.5C1566.38 1470.83 1562.03 1471.72 1558.33 1473.14C1554.71 1474.52 1551.64 1476.32 1549.22 1478.51C1546.83 1480.67 1545.52 1483.19 1544.3 1486.02C1543.05 1488.9 1542.93 1492.13 1542.93 1495.63V1495.9C1542.93 1499.61 1543.01 1502.81 1544.2 1505.42C1545.39 1508.04 1546.85 1510.27 1549.2 1512.22C1551.69 1514.3 1554.71 1516.1 1558.46 1517.57C1562.45 1519.15 1566.87 1520.58 1572.18 1521.82L1574.99 1522.55V1547.07L1570.51 1546.25C1565.84 1545.43 1561.35 1544.03 1556.94 1542.09C1553.57 1540.6 1550.21 1538.74 1546.78 1536.53L1538.88 1548.25C1542.95 1550.81 1547.4 1552.97 1552.12 1554.66C1558.23 1556.87 1564.6 1558.28 1571.22 1559.01L1574.99 1559.4V1571.85H1580.33V1559.61L1584.27 1559.27C1588.73 1558.86 1593.03 1557.96 1596.75 1556.6C1600.26 1555.31 1603.38 1553.56 1605.86 1551.42C1608.27 1549.32 1609.64 1546.81 1610.97 1543.97C1612.26 1541.16 1612.39 1537.89 1612.39 1534.29V1534C1612.39 1530.36 1612.37 1527.12 1611.2 1524.38C1610.09 1521.78 1608.94 1519.47 1606.66 1517.53ZM1574.98 1506.79L1570.21 1505.42C1565.73 1504.2 1563.36 1502.89 1561.59 1501.29C1559.5 1499.37 1558.95 1496.8 1558.95 1493.83V1493.55C1558.95 1490.57 1559.77 1487.93 1562.07 1485.91C1564.19 1484.07 1566.82 1483.01 1571.12 1482.66L1574.98 1482.3V1506.79H1574.98ZM1584.79 1547.1L1580.33 1547.56V1522.63L1585.47 1524.08C1589.78 1525.3 1592.64 1526.65 1594.43 1528.31C1596.53 1530.26 1597.62 1532.85 1597.62 1535.8C1597.62 1539.68 1595.94 1545.93 1584.79 1547.1Z" fill="#FFE101"/>
<path d="M1611.85 1511.43C1608.8 1508.83 1604.89 1506.57 1600.41 1504.69C1596.9 1503.24 1593.68 1501.92 1588.34 1500.77V1493.24C1591.01 1493.68 1590.98 1494.18 1592.29 1494.74C1595.16 1495.99 1598.01 1497.58 1600.67 1499.44L1604.18 1501.9L1619.74 1476.55L1616.62 1474.39C1612.29 1471.4 1607.06 1468.88 1601.94 1466.9C1597.9 1465.34 1593.68 1464.18 1588.34 1463.42V1454.3H1566.97V1462.87C1561.62 1463.41 1558.92 1464.34 1555.49 1465.66C1550.95 1467.39 1547.03 1469.71 1543.86 1472.55C1540.6 1475.5 1538.61 1478.96 1536.95 1482.84C1535.26 1486.71 1534.91 1491.02 1534.91 1495.63V1495.9C1534.91 1500.76 1535.23 1505.09 1536.9 1508.75C1538.59 1512.44 1540.83 1515.69 1544.06 1518.37C1547.2 1521 1550.75 1523.24 1555.29 1525.03C1558.89 1526.45 1561.62 1527.72 1566.97 1528.87V1537.29C1564.3 1536.63 1562.38 1535.78 1560.06 1534.76C1556.08 1533 1552.09 1530.63 1547.98 1527.7L1544.69 1525.32L1527.8 1550.31L1530.98 1552.58C1536.5 1556.56 1542.89 1559.79 1549.59 1562.2C1555.1 1564.19 1561.62 1565.64 1566.97 1566.52V1579.87H1588.34V1566.82C1593.68 1566.25 1596.03 1565.35 1599.36 1564.13C1603.79 1562.5 1607.82 1560.25 1611.04 1557.46C1614.3 1554.62 1616.37 1551.23 1618.2 1547.34C1619.99 1543.45 1620.4 1539.05 1620.4 1534.29V1534C1620.4 1529.28 1620.17 1524.99 1618.58 1521.24C1616.97 1517.48 1615.09 1514.18 1611.85 1511.43ZM1612.38 1534.29C1612.38 1537.89 1612.29 1541.16 1611 1543.97C1609.67 1546.81 1608.05 1549.31 1605.65 1551.41C1603.17 1553.56 1600.27 1555.31 1596.76 1556.6C1593.04 1557.96 1588.66 1558.86 1584.19 1559.27L1580.32 1559.6V1571.85H1574.98V1559.39L1571.22 1559C1564.6 1558.28 1558.33 1556.86 1552.22 1554.65C1547.5 1552.96 1543.02 1550.81 1538.95 1548.25L1546.86 1536.53C1550.28 1538.74 1553.69 1540.6 1557.06 1542.09C1561.47 1544.03 1565.84 1545.42 1570.51 1546.24L1574.98 1547.06V1522.54L1572.11 1521.82C1566.81 1520.57 1562.21 1519.15 1558.22 1517.56C1554.47 1516.09 1551.37 1514.29 1548.88 1512.21C1546.54 1510.26 1545.37 1508.04 1544.17 1505.42C1542.98 1502.81 1542.92 1499.6 1542.92 1495.9V1495.62C1542.92 1492.12 1543.04 1488.9 1544.29 1486.02C1545.51 1483.19 1547.08 1480.66 1549.47 1478.5C1551.89 1476.32 1554.81 1474.52 1558.43 1473.14C1562.14 1471.72 1566.44 1470.83 1571.27 1470.49L1574.99 1470.23V1462.3H1580.33V1470.47L1584.33 1470.88C1589.7 1471.5 1594.88 1472.67 1599.29 1474.37C1602.58 1475.65 1605.84 1477.17 1608.78 1478.93L1601.7 1490.56C1599.7 1489.36 1597.67 1488.3 1595.56 1487.38C1592.11 1485.89 1588.61 1484.76 1585.32 1484L1580.33 1482.86V1507.09L1583.53 1507.81C1588.79 1509.03 1593.49 1510.47 1597.39 1512.09C1601.09 1513.63 1604.22 1515.47 1606.64 1517.53C1608.92 1519.47 1610.09 1521.77 1611.19 1524.37C1612.36 1527.11 1612.39 1530.35 1612.39 1533.99V1534.29H1612.38Z" fill="black"/>
<path d="M1585.47 1524.08L1580.33 1522.63V1547.56L1584.79 1547.1C1595.95 1545.93 1597.63 1539.68 1597.63 1535.8C1597.63 1532.85 1596.52 1530.26 1594.42 1528.3C1592.63 1526.65 1589.78 1525.3 1585.47 1524.08ZM1588.42 1533.76C1588.73 1533.95 1588.91 1534.09 1588.99 1534.17C1589.38 1534.53 1589.64 1534.95 1589.64 1536.06C1589.64 1536.47 1589.64 1537.28 1588.42 1537.99V1533.76Z" fill="black"/>
<path d="M1562.07 1485.91C1559.77 1487.94 1558.95 1490.58 1558.95 1493.56V1493.83C1558.95 1496.8 1559.65 1499.37 1561.74 1501.29C1563.5 1502.89 1565.93 1504.2 1570.41 1505.42L1574.98 1506.79V1482.3L1571.13 1482.66C1566.83 1483.01 1564.2 1484.07 1562.07 1485.91ZM1567.53 1495.87C1567.03 1495.61 1566.81 1495.43 1566.74 1495.37C1566.46 1495.11 1566.17 1494.77 1566.17 1493.83V1493.56C1566.17 1493 1566.31 1492.51 1566.94 1491.95C1567.03 1491.88 1567.21 1491.75 1567.53 1491.59V1495.87V1495.87Z" fill="black"/>
</g>
<g clip-path="url(#clip1_0_1)">
<path d="M2055.99 1480.01C1991.49 1480.01 1939.01 1532.49 1939.01 1596.99C1939.01 1661.5 1991.49 1713.99 2055.99 1713.99C2120.5 1713.99 2172.99 1661.5 2172.99 1596.99C2172.99 1532.49 2120.5 1480.01 2055.99 1480.01ZM2055.99 1690.17C2004.62 1690.17 1962.83 1648.37 1962.83 1596.99C1962.83 1545.62 2004.62 1503.84 2055.99 1503.84C2107.36 1503.84 2149.17 1545.62 2149.17 1596.99C2149.17 1648.37 2107.37 1690.17 2055.99 1690.17Z" fill="#FFE101"/>
<path d="M2055.99 1472C1987.07 1472 1931 1528.07 1931 1596.99C1931 1665.92 1987.07 1722 2055.99 1722C2124.92 1722 2181 1665.92 2181 1596.99C2181 1528.07 2124.92 1472 2055.99 1472ZM2055.99 1713.99C1991.49 1713.99 1939.01 1661.5 1939.01 1596.99C1939.01 1532.49 1991.49 1480.01 2055.99 1480.01C2120.5 1480.01 2172.99 1532.49 2172.99 1596.98C2172.99 1661.5 2120.5 1713.99 2055.99 1713.99Z" fill="black"/>
<path d="M2068.64 1616.06C2068.64 1614.95 2068.38 1614.53 2067.99 1614.17C2067.91 1614.09 2067.73 1613.95 2067.42 1613.76V1617.99C2068.64 1617.27 2068.64 1616.47 2068.64 1616.06Z" fill="white"/>
<path d="M2045.17 1573.56V1573.83C2045.17 1574.77 2045.46 1575.11 2045.74 1575.37C2045.8 1575.43 2046.02 1575.61 2046.53 1575.87V1571.59C2046.21 1571.75 2046.03 1571.88 2045.94 1571.95C2045.31 1572.51 2045.17 1573 2045.17 1573.56Z" fill="white"/>
<path d="M2055.99 1511.85C2009.04 1511.85 1970.85 1550.04 1970.85 1596.99C1970.85 1643.95 2009.04 1682.16 2055.99 1682.16C2102.95 1682.16 2141.15 1643.95 2141.15 1596.99C2141.15 1550.04 2102.95 1511.85 2055.99 1511.85ZM2099.4 1614.29C2099.4 1619.05 2099.06 1623.44 2097.27 1627.34C2095.45 1631.23 2093.16 1634.62 2089.91 1637.46C2086.69 1640.25 2082.65 1642.49 2078.21 1644.12C2074.89 1645.34 2072.68 1646.24 2067.34 1646.81V1659.86H2045.97V1646.51C2040.62 1645.64 2034.11 1644.19 2028.59 1642.2C2021.89 1639.79 2015.61 1636.56 2010.08 1632.58L2006.87 1630.3L2023.77 1605.32L2027.1 1607.7C2031.21 1610.62 2035.08 1612.99 2039.06 1614.76C2041.39 1615.78 2043.29 1616.63 2045.97 1617.29V1608.86C2040.62 1607.71 2037.76 1606.45 2034.16 1605.02C2029.62 1603.24 2025.83 1601 2022.69 1598.37C2019.45 1595.68 2017.53 1592.44 2015.84 1588.75C2014.17 1585.08 2013.9 1580.76 2013.9 1575.9V1575.62C2013.9 1571.01 2014.24 1566.71 2015.93 1562.84C2017.6 1558.96 2019.83 1555.5 2023.09 1552.55C2026.26 1549.71 2030.08 1547.39 2034.61 1545.65C2038.05 1544.34 2040.62 1543.4 2045.96 1542.87V1534.29H2067.34V1543.42C2072.68 1544.17 2076.9 1545.34 2080.94 1546.89C2086.05 1548.87 2091.07 1551.4 2095.4 1554.39L2098.64 1556.54L2083.15 1581.9L2079.69 1579.44C2077.04 1577.57 2074.15 1575.99 2071.28 1574.74C2069.97 1574.17 2070.01 1573.67 2067.34 1573.23V1580.76C2072.68 1581.92 2075.89 1583.23 2079.41 1584.69C2083.89 1586.56 2087.75 1588.83 2090.8 1591.43C2094.03 1594.18 2095.94 1597.48 2097.55 1601.24C2099.13 1604.98 2099.39 1609.27 2099.39 1613.99V1614.29H2099.4Z" fill="white"/>
<path d="M2055.99 1503.84C2004.62 1503.84 1962.83 1545.62 1962.83 1596.99C1962.83 1648.37 2004.62 1690.17 2055.99 1690.17C2107.36 1690.17 2149.17 1648.37 2149.17 1596.99C2149.17 1545.62 2107.37 1503.84 2055.99 1503.84ZM2055.99 1682.16C2009.04 1682.16 1970.85 1643.95 1970.85 1596.99C1970.85 1550.04 2009.04 1511.85 2055.99 1511.85C2102.95 1511.85 2141.15 1550.04 2141.15 1596.99C2141.15 1643.95 2102.95 1682.16 2055.99 1682.16Z" fill="black"/>
<path d="M2085.66 1597.53C2083.24 1595.47 2080.13 1593.64 2076.43 1592.09C2072.53 1590.48 2067.78 1589.03 2062.52 1587.81L2059.32 1587.09V1562.86L2064.33 1564C2067.62 1564.76 2071.08 1565.9 2074.53 1567.38C2076.64 1568.31 2078.73 1569.37 2080.73 1570.56L2087.88 1558.93C2084.93 1557.18 2081.8 1555.65 2078.5 1554.37C2074.1 1552.68 2068.69 1551.51 2063.32 1550.89L2059.33 1550.48V1542.31H2053.99V1550.24L2050.21 1550.5C2045.38 1550.83 2041.03 1551.72 2037.33 1553.14C2033.71 1554.52 2030.64 1556.32 2028.22 1558.51C2025.83 1560.67 2024.52 1563.19 2023.3 1566.02C2022.05 1568.9 2021.93 1572.13 2021.93 1575.63V1575.9C2021.93 1579.61 2022.01 1582.81 2023.2 1585.42C2024.39 1588.04 2025.85 1590.27 2028.2 1592.22C2030.69 1594.3 2033.71 1596.1 2037.46 1597.57C2041.45 1599.15 2045.87 1600.58 2051.18 1601.82L2053.99 1602.55V1627.07L2049.51 1626.25C2044.84 1625.43 2040.35 1624.03 2035.94 1622.09C2032.57 1620.6 2029.21 1618.74 2025.78 1616.53L2017.88 1628.25C2021.95 1630.81 2026.4 1632.97 2031.12 1634.66C2037.23 1636.87 2043.6 1638.28 2050.22 1639.01L2053.99 1639.4V1651.85H2059.33V1639.61L2063.27 1639.27C2067.73 1638.86 2072.03 1637.96 2075.75 1636.6C2079.26 1635.31 2082.38 1633.56 2084.86 1631.42C2087.27 1629.32 2088.64 1626.81 2089.97 1623.97C2091.26 1621.16 2091.39 1617.89 2091.39 1614.29V1614C2091.39 1610.36 2091.37 1607.12 2090.2 1604.38C2089.09 1601.78 2087.94 1599.47 2085.66 1597.53ZM2053.98 1586.79L2049.21 1585.42C2044.73 1584.2 2042.36 1582.89 2040.59 1581.29C2038.5 1579.37 2037.95 1576.8 2037.95 1573.83V1573.55C2037.95 1570.57 2038.77 1567.93 2041.07 1565.91C2043.19 1564.07 2045.82 1563.01 2050.12 1562.66L2053.98 1562.3V1586.79H2053.98ZM2063.79 1627.1L2059.33 1627.56V1602.63L2064.47 1604.08C2068.78 1605.3 2071.65 1606.65 2073.43 1608.31C2075.53 1610.26 2076.62 1612.85 2076.62 1615.8C2076.62 1619.68 2074.94 1625.93 2063.79 1627.1Z" fill="#FFE101"/>
<path d="M2090.85 1591.43C2087.8 1588.83 2083.89 1586.57 2079.41 1584.69C2075.9 1583.24 2072.68 1581.92 2067.34 1580.77V1573.24C2070.01 1573.68 2069.98 1574.18 2071.29 1574.74C2074.16 1575.99 2077.01 1577.58 2079.67 1579.44L2083.18 1581.9L2098.74 1556.55L2095.62 1554.39C2091.29 1551.4 2086.06 1548.88 2080.94 1546.9C2076.9 1545.34 2072.68 1544.18 2067.34 1543.42V1534.3H2045.97V1542.87C2040.62 1543.41 2037.92 1544.34 2034.49 1545.66C2029.95 1547.39 2026.03 1549.71 2022.86 1552.55C2019.6 1555.5 2017.61 1558.96 2015.95 1562.84C2014.26 1566.71 2013.91 1571.02 2013.91 1575.63V1575.9C2013.91 1580.76 2014.23 1585.09 2015.9 1588.75C2017.59 1592.44 2019.83 1595.69 2023.06 1598.37C2026.2 1601 2029.75 1603.24 2034.29 1605.03C2037.89 1606.45 2040.62 1607.72 2045.97 1608.87V1617.29C2043.3 1616.63 2041.38 1615.78 2039.06 1614.76C2035.08 1613 2031.09 1610.63 2026.98 1607.7L2023.69 1605.32L2006.8 1630.31L2009.98 1632.58C2015.5 1636.56 2021.89 1639.79 2028.59 1642.2C2034.1 1644.19 2040.62 1645.64 2045.97 1646.52V1659.87H2067.34V1646.82C2072.68 1646.25 2075.03 1645.35 2078.36 1644.13C2082.79 1642.5 2086.82 1640.25 2090.04 1637.46C2093.3 1634.62 2095.37 1631.23 2097.2 1627.34C2098.99 1623.45 2099.4 1619.05 2099.4 1614.29V1614C2099.4 1609.28 2099.17 1604.99 2097.58 1601.24C2095.97 1597.48 2094.09 1594.18 2090.85 1591.43ZM2091.38 1614.29C2091.38 1617.89 2091.29 1621.16 2090 1623.97C2088.67 1626.81 2087.05 1629.31 2084.65 1631.41C2082.17 1633.56 2079.27 1635.31 2075.76 1636.6C2072.04 1637.96 2067.66 1638.86 2063.19 1639.27L2059.32 1639.6V1651.85H2053.98V1639.39L2050.22 1639C2043.6 1638.28 2037.33 1636.86 2031.22 1634.65C2026.5 1632.96 2022.02 1630.81 2017.95 1628.25L2025.86 1616.53C2029.28 1618.74 2032.69 1620.6 2036.06 1622.09C2040.47 1624.03 2044.84 1625.42 2049.51 1626.24L2053.98 1627.06V1602.54L2051.11 1601.82C2045.81 1600.57 2041.21 1599.15 2037.22 1597.56C2033.47 1596.09 2030.37 1594.29 2027.88 1592.21C2025.54 1590.26 2024.37 1588.04 2023.17 1585.42C2021.98 1582.81 2021.92 1579.6 2021.92 1575.9V1575.62C2021.92 1572.12 2022.04 1568.9 2023.29 1566.02C2024.51 1563.19 2026.08 1560.66 2028.47 1558.5C2030.89 1556.32 2033.81 1554.52 2037.43 1553.14C2041.14 1551.72 2045.44 1550.83 2050.27 1550.49L2053.99 1550.23V1542.3H2059.33V1550.47L2063.33 1550.88C2068.7 1551.5 2073.88 1552.67 2078.29 1554.37C2081.58 1555.65 2084.84 1557.17 2087.78 1558.93L2080.7 1570.56C2078.7 1569.36 2076.67 1568.3 2074.56 1567.38C2071.11 1565.89 2067.61 1564.76 2064.32 1564L2059.33 1562.86V1587.09L2062.53 1587.81C2067.79 1589.03 2072.49 1590.47 2076.39 1592.09C2080.09 1593.63 2083.22 1595.47 2085.64 1597.53C2087.92 1599.47 2089.09 1601.77 2090.19 1604.37C2091.36 1607.11 2091.39 1610.35 2091.39 1613.99V1614.29H2091.38Z" fill="black"/>
<path d="M2064.47 1604.08L2059.33 1602.63V1627.56L2063.79 1627.1C2074.95 1625.93 2076.63 1619.68 2076.63 1615.8C2076.63 1612.85 2075.52 1610.26 2073.42 1608.3C2071.63 1606.65 2068.78 1605.3 2064.47 1604.08ZM2067.42 1613.76C2067.73 1613.95 2067.91 1614.09 2067.99 1614.17C2068.38 1614.53 2068.64 1614.95 2068.64 1616.06C2068.64 1616.47 2068.64 1617.28 2067.42 1617.99V1613.76Z" fill="black"/>
<path d="M2041.07 1565.91C2038.77 1567.94 2037.95 1570.58 2037.95 1573.56V1573.83C2037.95 1576.8 2038.65 1579.37 2040.74 1581.29C2042.5 1582.89 2044.93 1584.2 2049.41 1585.42L2053.98 1586.79V1562.3L2050.13 1562.66C2045.83 1563.01 2043.2 1564.07 2041.07 1565.91ZM2046.53 1575.87C2046.03 1575.61 2045.81 1575.43 2045.74 1575.37C2045.46 1575.11 2045.17 1574.77 2045.17 1573.83V1573.56C2045.17 1573 2045.31 1572.51 2045.94 1571.95C2046.03 1571.88 2046.21 1571.75 2046.53 1571.59V1575.87V1575.87Z" fill="black"/>
</g>
<defs>
<clipPath id="clip0_0_1">
<rect width="250" height="250" fill="white" transform="translate(1452 1392)"/>
</clipPath>
<clipPath id="clip1_0_1">
<rect width="250" height="250" fill="white" transform="translate(1931 1472)"/>
</clipPath>
</defs>
</svg>
