<svg width="4000" height="4000" viewBox="0 0 4000 4000" fill="none" xmlns="http://www.w3.org/2000/svg">
<path d="M1987.43 1133L1991 1183H2081V1133H1987.43Z" fill="#DEDDE0"/>
<path d="M2081 923H1972.43L1976 973H2081V923Z" fill="#DEDDE0"/>
<path d="M2081 1133V1183H2171L2174.57 1133H2081Z" fill="#ACABB1"/>
<path d="M2081 923V973H2186L2189.57 923H2081Z" fill="#ACABB1"/>
<path d="M2081 1103C2058.91 1103 2041 1080.61 2041 1053C2041 1025.39 2058.91 1003 2081 1003V973H1976H1961L1971 1133H1987.43H2081V1103Z" fill="#FFDA44"/>
<path d="M2081 973V1003C2103.09 1003 2121 1025.39 2121 1053C2121 1080.61 2103.09 1103 2081 1103V1133H2174.57H2191L2201 973H2186H2081Z" fill="#FF9811"/>
<path d="M2121 1053C2121 1025.39 2103.09 1003 2081 1003V1103C2103.09 1103 2121 1080.61 2121 1053Z" fill="#50412E"/>
<path d="M2041 1053C2041 1080.61 2058.91 1103 2081 1103V1003C2058.91 1003 2041 1025.39 2041 1053Z" fill="#786145"/>
<path d="M2189.57 923H2211V883H2171V843H1991V883H1951V923H1972.43H2081H2189.57Z" fill="#50412E"/>
</svg>
