<svg width="4000" height="4000" viewBox="0 0 4000 4000" fill="none" xmlns="http://www.w3.org/2000/svg">
<path d="M2033.52 1119.28H2004.81L1997.93 1016.95H2185.07L2178.19 1119.28H2045.6" fill="#08AA6E"/>
<path d="M2179.03 1016.95L2182 972.718H2001L2003.97 1016.95H2179.03Z" fill="#FFE285"/>
<path d="M2033.52 1119.28H2010.86L2013.84 1163.51H2169.16L2172.14 1119.28H2045.6" fill="#FFE285"/>
<path d="M2091.5 1100.22C2114.52 1100.22 2133.17 1085.85 2133.17 1068.11C2133.17 1050.38 2114.52 1036 2091.5 1036C2068.48 1036 2049.83 1050.38 2049.83 1068.11C2049.83 1085.85 2068.48 1100.22 2091.5 1100.22Z" fill="#2BA5B1"/>
<path d="M2045.6 954.104H2182V935.49H2001V954.104H2033.52" fill="#F6A230"/>
<path d="M2033.52 954.104H1983.03V972.718H2199.97V954.104H2045.6" fill="#F6A230"/>
<path d="M2091.5 1103.71C2116.98 1103.71 2137.7 1087.74 2137.7 1068.11C2137.7 1048.48 2116.98 1032.52 2091.5 1032.52C2066.02 1032.52 2045.3 1048.48 2045.3 1068.11C2045.3 1087.74 2066.02 1103.71 2091.5 1103.71ZM2091.5 1039.5C2111.98 1039.5 2128.64 1052.33 2128.64 1068.11C2128.64 1083.89 2111.98 1096.73 2091.5 1096.73C2071.02 1096.73 2054.36 1083.89 2054.36 1068.11C2054.36 1052.33 2071.02 1039.5 2091.5 1039.5Z" fill="#53180F"/>
<path d="M2204.5 976.208V950.614H2186.53V932H1996.47V950.614H1978.5V976.208H1996.7L1999.2 1013.46H1993.16L2000.51 1122.77H2006.56L2009.54 1167H2173.46L2176.44 1122.77H2182.49L2189.84 1013.46H2183.8L2186.3 976.208H2204.5V976.208ZM1987.56 969.228V957.594H1996.47H2033.52V950.614H2005.53V938.98H2177.47V950.614H2045.6V957.594H2186.53H2195.44V969.228H2186.77H1996.23H1987.56V969.228ZM2173.89 1115.79H2045.6H2045.6V1122.77H2045.6H2167.37L2164.86 1160.02H2018.14L2015.63 1122.77H2033.52V1115.79H2009.11L2002.7 1020.44H2180.3L2173.89 1115.79ZM2174.72 1013.46H2008.28L2005.77 976.208H2177.23L2174.72 1013.46Z" fill="#53180F"/>
</svg>
