<svg width="4000" height="4000" viewBox="0 0 4000 4000" fill="none" xmlns="http://www.w3.org/2000/svg">
<path d="M2209.51 1008.55C2201.69 990.997 2188.36 975.715 2171.3 964.223H2001.86C1984.79 975.716 1971.47 990.998 1963.65 1008.55C1958.63 1019.83 1955.87 1032.04 1955.87 1044.79V1079.76C1955.87 1122.79 1997.18 1157.68 2048.13 1157.68H2125.02C2175.98 1157.68 2217.28 1122.79 2217.28 1079.76V1044.79C2217.28 1032.04 2214.53 1019.83 2209.51 1008.55Z" fill="#386499"/>
<path d="M2274.13 1055.15V981.937C2274.13 961.482 2254.49 944.9 2230.27 944.9H2165.05V925.34L2007.95 907.9L2008.11 944.901H1955.87V964.218H2230.27C2241.86 964.218 2251.25 972.151 2251.25 981.937V1055.15" fill="#386499"/>
<path d="M2141.41 1008.55H2209.51C2201.69 990.997 2188.36 975.716 2171.3 964.223H2001.86C1984.79 975.716 1971.47 990.998 1963.65 1008.55H2128.42" fill="#63A2AE"/>
<path d="M2125.02 1146.01C2168.28 1146.01 2203.46 1116.29 2203.46 1079.76H2193.72C2193.72 1111.75 2162.9 1137.78 2125.02 1137.78V1146.01V1146.01Z" fill="#491E17"/>
<path d="M2230.27 940.787H2169.92V921.731L2003.06 903.208L2003.22 940.788H1951V968.332H1989.02C1975.85 979.252 1965.6 992.479 1959.09 1007.11L1956.61 1012.67H1956.82C1952.96 1023.04 1951 1033.82 1951 1044.79V1079.76C1951 1124.99 1994.57 1161.79 2048.13 1161.79H2125.02C2178.58 1161.79 2222.16 1124.99 2222.16 1079.76V1044.79C2222.16 1033.82 2220.19 1023.04 2216.33 1012.67H2216.54L2214.07 1007.11C2211.05 1000.33 2207.23 993.849 2202.69 987.762C2197.43 980.713 2191.2 974.191 2184.13 968.332H2230.27C2239.16 968.332 2246.38 974.434 2246.38 981.937V1055.15H2256.13V981.937C2256.13 969.898 2244.53 960.104 2230.27 960.104H1960.74V949.015H2008.11H2013H2038.25V940.787H2012.96L2012.84 912.593L2160.17 928.949V940.787H2134.91V949.015H2160.17H2165.04H2230.27C2251.77 949.015 2269.26 963.783 2269.26 981.937V1055.15H2279V981.937C2279 959.247 2257.14 940.787 2230.27 940.787ZM2212.41 1044.79V1079.76C2212.41 1120.46 2173.21 1153.56 2125.02 1153.56H2048.13C1999.95 1153.56 1960.74 1120.46 1960.74 1079.76V1044.79C1960.74 1033.78 1962.88 1022.99 1967.08 1012.67H2128.42V1004.44H1970.93C1970.97 1004.37 1971 1004.29 1971.04 1004.21C1971.23 1003.87 1971.42 1003.54 1971.6 1003.2C1971.93 1002.61 1972.25 1002.02 1972.59 1001.43C1972.81 1001.06 1973.03 1000.69 1973.25 1000.32C1973.58 999.777 1973.91 999.233 1974.24 998.693C1974.48 998.314 1974.72 997.938 1974.96 997.561C1975.3 997.034 1975.65 996.509 1976 995.987C1976.25 995.615 1976.5 995.243 1976.76 994.874C1977.12 994.348 1977.5 993.826 1977.87 993.306C1978.13 992.952 1978.38 992.599 1978.64 992.248C1979.05 991.7 1979.47 991.158 1979.89 990.618C1980.13 990.305 1980.37 989.989 1980.62 989.678C1981.14 989.02 1981.68 988.371 1982.22 987.725C1982.38 987.539 1982.53 987.35 1982.68 987.166C1983.38 986.34 1984.1 985.524 1984.84 984.716C1985.05 984.484 1985.26 984.258 1985.48 984.028C1986.01 983.453 1986.54 982.88 1987.09 982.315C1987.38 982.016 1987.67 981.722 1987.97 981.427C1988.45 980.937 1988.94 980.449 1989.43 979.969C1989.75 979.655 1990.08 979.345 1990.41 979.035C1990.89 978.578 1991.38 978.123 1991.87 977.674C1992.21 977.363 1992.55 977.055 1992.9 976.748C1993.4 976.304 1993.9 975.865 1994.41 975.429C1994.75 975.131 1995.1 974.833 1995.45 974.538C1995.98 974.095 1996.52 973.658 1997.06 973.223C1997.4 972.948 1997.74 972.671 1998.09 972.4C1998.69 971.929 1999.3 971.466 1999.91 971.006C2000.21 970.782 2000.5 970.555 2000.8 970.334C2001.71 969.657 2002.64 968.99 2003.58 968.337H2169.58C2170.52 968.989 2171.44 969.656 2172.36 970.332C2172.66 970.555 2172.96 970.785 2173.25 971.01C2173.86 971.469 2174.47 971.929 2175.07 972.398C2175.41 972.672 2175.76 972.95 2176.1 973.227C2176.64 973.659 2177.17 974.094 2177.7 974.533C2178.05 974.832 2178.4 975.132 2178.76 975.434C2179.26 975.867 2179.76 976.303 2180.25 976.742C2180.6 977.052 2180.95 977.365 2181.29 977.678C2181.78 978.125 2182.26 978.576 2182.74 979.029C2183.07 979.342 2183.4 979.655 2183.73 979.972C2184.22 980.449 2184.7 980.932 2185.18 981.417C2185.48 981.718 2185.78 982.016 2186.07 982.32C2186.61 982.878 2187.14 983.444 2187.66 984.012C2187.88 984.249 2188.11 984.482 2188.32 984.72C2189.05 985.526 2189.77 986.341 2190.47 987.165C2190.63 987.357 2190.79 987.554 2190.95 987.747C2191.49 988.386 2192.02 989.027 2192.53 989.677C2192.78 989.992 2193.03 990.312 2193.27 990.629C2193.69 991.166 2194.11 991.703 2194.51 992.246C2194.77 992.599 2195.03 992.956 2195.28 993.311C2195.66 993.829 2196.03 994.349 2196.39 994.873C2196.65 995.243 2196.9 995.616 2197.16 995.989C2197.51 996.51 2197.85 997.034 2198.19 997.561C2198.43 997.938 2198.67 998.314 2198.91 998.693C2199.25 999.234 2199.58 999.779 2199.91 1000.33C2200.13 1000.69 2200.35 1001.06 2200.56 1001.43C2200.9 1002.02 2201.23 1002.61 2201.55 1003.21C2201.74 1003.54 2201.93 1003.88 2202.11 1004.21C2202.15 1004.29 2202.19 1004.37 2202.23 1004.44H2141.41V1012.67H2206.08C2210.28 1022.99 2212.41 1033.78 2212.41 1044.79Z" fill="#491E17"/>
<path d="M2064.57 988.164H2006.39V996.392H2064.57V988.164Z" fill="#491E17"/>
<path d="M2064.57 1021.08H2006.39V1029.31H2064.57V1021.08Z" fill="#491E17"/>
<path d="M2064.57 1037.54H2006.39V1045.76H2064.57V1037.54Z" fill="#491E17"/>
<path d="M2064.57 1053.99H2006.39V1062.22H2064.57V1053.99Z" fill="#491E17"/>
</svg>
