<svg width="4000" height="4000" viewBox="0 0 4000 4000" fill="none" xmlns="http://www.w3.org/2000/svg">
<path d="M2215.77 1121.72H1912.23L1879.18 722.373C1878.22 710.778 1886.55 700.784 1897.17 700.784H2230.83C2241.45 700.784 2249.78 710.779 2248.82 722.373L2215.77 1121.72Z" fill="#7C54B8"/>
<path d="M2268.54 1121.72H1859.46C1849.05 1121.72 1840.61 1130.16 1840.61 1140.57V1176.38C1840.61 1186.78 1849.05 1195.22 1859.46 1195.22H2268.54C2278.95 1195.22 2287.38 1186.78 2287.38 1176.38V1140.57C2287.38 1130.16 2278.95 1121.72 2268.54 1121.72Z" fill="#FC4C59"/>
<path d="M2268.54 1121.72H2236.92C2247.33 1121.72 2255.76 1130.16 2255.76 1140.57V1176.38C2255.76 1186.78 2247.33 1195.22 2236.92 1195.22H2268.54C2278.95 1195.22 2287.38 1186.78 2287.38 1176.38V1140.57C2287.38 1130.16 2278.95 1121.72 2268.54 1121.72Z" fill="#E83A64"/>
<path d="M2230.83 700.784H2175.87C2182.25 726.261 2185.66 752.918 2185.66 780.374C2185.66 943.171 2066.51 1078.12 1910.67 1102.83L1912.23 1121.72H2215.77L2248.82 722.372C2249.78 710.778 2241.45 700.784 2230.83 700.784Z" fill="#674799"/>
<path d="M2221.85 1048.23H1906.15L1912.23 1121.72H2215.77L2221.85 1048.23Z" fill="#FFDB6C"/>
<path d="M2045.86 1048.23C2006.3 1075.85 1960.36 1094.95 1910.66 1102.83L1912.23 1121.72H2215.77L2221.85 1048.23H2045.86V1048.23Z" fill="#FFB966"/>
<path d="M1879.1 1167.26C1883.95 1167.26 1887.89 1163.32 1887.89 1158.47C1887.89 1153.62 1883.95 1149.69 1879.1 1149.69C1874.25 1149.69 1870.32 1153.62 1870.32 1158.47C1870.32 1163.32 1874.25 1167.26 1879.1 1167.26Z" fill="#FFDB6C"/>
<path d="M1916.1 1167.26C1920.95 1167.26 1924.88 1163.32 1924.88 1158.47C1924.88 1153.62 1920.95 1149.69 1916.1 1149.69C1911.25 1149.69 1907.31 1153.62 1907.31 1158.47C1907.31 1163.32 1911.25 1167.26 1916.1 1167.26Z" fill="#FFDB6C"/>
<path d="M1953.1 1167.26C1957.95 1167.26 1961.88 1163.32 1961.88 1158.47C1961.88 1153.62 1957.95 1149.69 1953.1 1149.69C1948.24 1149.69 1944.31 1153.62 1944.31 1158.47C1944.31 1163.32 1948.24 1167.26 1953.1 1167.26Z" fill="#FFDB6C"/>
<path d="M1990.08 1167.26C1994.93 1167.26 1998.86 1163.32 1998.86 1158.47C1998.86 1153.62 1994.93 1149.69 1990.08 1149.69C1985.23 1149.69 1981.3 1153.62 1981.3 1158.47C1981.3 1163.32 1985.23 1167.26 1990.08 1167.26Z" fill="#FFDB6C"/>
<path d="M2027.08 1167.26C2031.93 1167.26 2035.86 1163.32 2035.86 1158.47C2035.86 1153.62 2031.93 1149.69 2027.08 1149.69C2022.23 1149.69 2018.29 1153.62 2018.29 1158.47C2018.29 1163.32 2022.23 1167.26 2027.08 1167.26Z" fill="#FFDB6C"/>
<path d="M2064.07 1167.26C2068.93 1167.26 2072.86 1163.32 2072.86 1158.47C2072.86 1153.62 2068.93 1149.69 2064.07 1149.69C2059.22 1149.69 2055.29 1153.62 2055.29 1158.47C2055.29 1163.32 2059.22 1167.26 2064.07 1167.26Z" fill="#FFDB6C"/>
<path d="M2138.06 1167.26C2142.91 1167.26 2146.84 1163.32 2146.84 1158.47C2146.84 1153.62 2142.91 1149.69 2138.06 1149.69C2133.21 1149.69 2129.27 1153.62 2129.27 1158.47C2129.27 1163.32 2133.21 1167.26 2138.06 1167.26Z" fill="#FFDB6C"/>
<path d="M2101.07 1167.26C2105.92 1167.26 2109.86 1163.32 2109.86 1158.47C2109.86 1153.62 2105.92 1149.69 2101.07 1149.69C2096.22 1149.69 2092.29 1153.62 2092.29 1158.47C2092.29 1163.32 2096.22 1167.26 2101.07 1167.26Z" fill="#FFDB6C"/>
<path d="M2175.05 1167.26C2179.91 1167.26 2183.84 1163.32 2183.84 1158.47C2183.84 1153.62 2179.91 1149.69 2175.05 1149.69C2170.2 1149.69 2166.27 1153.62 2166.27 1158.47C2166.27 1163.32 2170.2 1167.26 2175.05 1167.26Z" fill="#FFDB6C"/>
<path d="M2249.05 1167.26C2253.9 1167.26 2257.83 1163.32 2257.83 1158.47C2257.83 1153.62 2253.9 1149.69 2249.05 1149.69C2244.2 1149.69 2240.26 1153.62 2240.26 1158.47C2240.26 1163.32 2244.2 1167.26 2249.05 1167.26Z" fill="#FFDB6C"/>
<path d="M2212.05 1167.26C2216.9 1167.26 2220.83 1163.32 2220.83 1158.47C2220.83 1153.62 2216.9 1149.69 2212.05 1149.69C2207.2 1149.69 2203.27 1153.62 2203.27 1158.47C2203.27 1163.32 2207.2 1167.26 2212.05 1167.26Z" fill="#FFDB6C"/>
<path d="M2268.54 1112.94H2225.31L2257.58 723.098C2258.27 714.756 2255.51 706.544 2250 700.567C2244.92 695.043 2238.11 692 2230.83 692H1897.17C1889.89 692 1883.08 695.043 1878 700.567C1872.49 706.543 1869.73 714.756 1870.42 723.098L1902.69 1112.94H1859.46C1844.23 1112.94 1831.83 1125.33 1831.83 1140.57V1176.37C1831.83 1191.61 1844.22 1204 1859.46 1204H2268.54C2283.78 1204 2296.17 1191.61 2296.17 1176.37V1140.57C2296.17 1125.33 2283.78 1112.94 2268.54 1112.94ZM1890.92 712.466C1892.64 710.597 1894.86 709.567 1897.17 709.567H2230.83C2233.14 709.567 2235.36 710.596 2237.08 712.466C2239.27 714.84 2240.36 718.187 2240.07 721.649L2213.77 1039.45H1965.77C1960.92 1039.45 1956.99 1043.38 1956.99 1048.23C1956.99 1053.08 1960.92 1057.02 1965.77 1057.02H2212.31L2207.69 1112.94H1920.32L1914.9 1047.51C1914.9 1047.5 1914.9 1047.5 1914.9 1047.5L1887.93 721.648C1887.65 718.186 1888.73 714.839 1890.92 712.466ZM2278.6 1176.37C2278.6 1181.92 2274.09 1186.43 2268.54 1186.43H1859.46C1853.91 1186.43 1849.4 1181.92 1849.4 1176.37V1140.57C1849.4 1135.02 1853.91 1130.51 1859.46 1130.51H1912.23H2215.77H2268.54C2274.09 1130.51 2278.6 1135.02 2278.6 1140.57V1176.37Z" fill="black"/>
<path d="M1879.1 1167.26C1883.95 1167.26 1887.89 1163.32 1887.89 1158.47C1887.89 1153.62 1883.95 1149.69 1879.1 1149.69C1874.25 1149.69 1870.32 1153.62 1870.32 1158.47C1870.32 1163.32 1874.25 1167.26 1879.1 1167.26Z" fill="black"/>
<path d="M1916.1 1167.26C1920.95 1167.26 1924.88 1163.32 1924.88 1158.47C1924.88 1153.62 1920.95 1149.69 1916.1 1149.69C1911.25 1149.69 1907.31 1153.62 1907.31 1158.47C1907.31 1163.32 1911.25 1167.26 1916.1 1167.26Z" fill="black"/>
<path d="M1953.1 1167.26C1957.95 1167.26 1961.88 1163.32 1961.88 1158.47C1961.88 1153.62 1957.95 1149.69 1953.1 1149.69C1948.24 1149.69 1944.31 1153.62 1944.31 1158.47C1944.31 1163.32 1948.24 1167.26 1953.1 1167.26Z" fill="black"/>
<path d="M1990.08 1167.26C1994.93 1167.26 1998.86 1163.32 1998.86 1158.47C1998.86 1153.62 1994.93 1149.69 1990.08 1149.69C1985.23 1149.69 1981.3 1153.62 1981.3 1158.47C1981.3 1163.32 1985.23 1167.26 1990.08 1167.26Z" fill="black"/>
<path d="M2027.08 1167.26C2031.93 1167.26 2035.86 1163.32 2035.86 1158.47C2035.86 1153.62 2031.93 1149.69 2027.08 1149.69C2022.23 1149.69 2018.29 1153.62 2018.29 1158.47C2018.29 1163.32 2022.23 1167.26 2027.08 1167.26Z" fill="black"/>
<path d="M2064.07 1167.26C2068.93 1167.26 2072.86 1163.32 2072.86 1158.47C2072.86 1153.62 2068.93 1149.69 2064.07 1149.69C2059.22 1149.69 2055.29 1153.62 2055.29 1158.47C2055.29 1163.32 2059.22 1167.26 2064.07 1167.26Z" fill="black"/>
<path d="M2138.06 1167.26C2142.91 1167.26 2146.84 1163.32 2146.84 1158.47C2146.84 1153.62 2142.91 1149.69 2138.06 1149.69C2133.21 1149.69 2129.27 1153.62 2129.27 1158.47C2129.27 1163.32 2133.21 1167.26 2138.06 1167.26Z" fill="black"/>
<path d="M2101.07 1167.26C2105.92 1167.26 2109.86 1163.32 2109.86 1158.47C2109.86 1153.62 2105.92 1149.69 2101.07 1149.69C2096.22 1149.69 2092.29 1153.62 2092.29 1158.47C2092.29 1163.32 2096.22 1167.26 2101.07 1167.26Z" fill="black"/>
<path d="M2175.05 1167.26C2179.91 1167.26 2183.84 1163.32 2183.84 1158.47C2183.84 1153.62 2179.91 1149.69 2175.05 1149.69C2170.2 1149.69 2166.27 1153.62 2166.27 1158.47C2166.27 1163.32 2170.2 1167.26 2175.05 1167.26Z" fill="black"/>
<path d="M2249.05 1167.26C2253.9 1167.26 2257.83 1163.32 2257.83 1158.47C2257.83 1153.62 2253.9 1149.69 2249.05 1149.69C2244.2 1149.69 2240.26 1153.62 2240.26 1158.47C2240.26 1163.32 2244.2 1167.26 2249.05 1167.26Z" fill="black"/>
<path d="M2212.05 1167.26C2216.9 1167.26 2220.83 1163.32 2220.83 1158.47C2220.83 1153.62 2216.9 1149.69 2212.05 1149.69C2207.2 1149.69 2203.27 1153.62 2203.27 1158.47C2203.27 1163.32 2207.2 1167.26 2212.05 1167.26Z" fill="black"/>
<path d="M2071.25 804.451L2090.15 842.746L2132.41 848.888C2139.04 849.852 2141.69 858.003 2136.89 862.682L2106.31 892.49L2113.53 934.579C2114.67 941.186 2107.73 946.223 2101.8 943.104L2064 923.232L2026.2 943.104C2020.27 946.223 2013.33 941.186 2014.47 934.579L2021.69 892.49L1991.11 862.682C1986.31 858.003 1988.95 849.852 1995.59 848.888L2037.85 842.748L2056.75 804.453C2059.72 798.441 2068.29 798.441 2071.25 804.451Z" fill="#FFDB6C"/>
<path d="M2012.25 895.556L2005.81 933.094C2004.72 939.47 2007.29 945.792 2012.52 949.594C2017.75 953.397 2024.56 953.889 2030.29 950.879L2064 933.155L2097.71 950.879C2100.2 952.188 2102.9 952.835 2105.58 952.835C2109.06 952.835 2112.52 951.743 2115.48 949.594C2120.71 945.791 2123.29 939.469 2122.19 933.095L2115.75 895.557L2143.03 868.972C2147.66 864.457 2149.3 857.83 2147.3 851.677C2145.3 845.524 2140.08 841.125 2133.68 840.195L2095.99 834.719L2079.13 800.566C2076.27 794.764 2070.47 791.162 2064 791.162C2057.54 791.162 2051.74 794.766 2048.88 800.566L2032.02 834.719L1994.33 840.195C1987.93 841.125 1982.71 845.525 1980.71 851.677C1978.71 857.829 1980.35 864.456 1984.98 868.972L2012.25 895.556ZM2039.11 851.438C2041.97 851.022 2044.45 849.226 2045.73 846.633L2064 809.604L2082.28 846.633C2083.56 849.225 2086.03 851.023 2088.89 851.438L2129.75 857.376L2100.19 886.198C2098.11 888.216 2097.17 891.124 2097.66 893.972L2104.64 934.67L2068.09 915.455C2066.81 914.783 2065.41 914.447 2064 914.447C2062.6 914.447 2061.2 914.783 2059.92 915.455L2023.37 934.67L2030.35 893.972C2030.83 891.123 2029.89 888.216 2027.82 886.198L1998.25 857.376L2039.11 851.438Z" fill="black"/>
</svg>
