<svg width="4000" height="4000" viewBox="0 0 4000 4000" fill="none" xmlns="http://www.w3.org/2000/svg">
<g clip-path="url(#clip0_6_2)">
<path d="M2287.56 1000.48H2057.14C2051.37 1000.48 2046.7 995.97 2046.7 990.409C2046.7 990.404 2025.83 990.404 2025.83 990.404C2025.83 995.97 2021.15 1000.48 2015.39 1000.48H1982.44L1978.51 1020.48H2291.49L2287.56 1000.48Z" fill="#6F362D"/>
<path d="M2299.36 1060.62L2295.44 1040.62H1974.56L1970.64 1060.62H2299.36Z" fill="#6F362D"/>
<path d="M2367.14 1088.95C2371.45 1086.21 2375.56 1083.48 2379.5 1080.76H2311.99C2311.9 1080.76 1958.21 1080.76 1958.21 1080.76C1958.19 1080.76 1890.5 1080.76 1890.5 1080.76C1894.67 1083.64 1899.04 1086.54 1903.62 1089.44C1950.31 1118.98 2028.35 1154.19 2135 1154.19C2242.07 1154.2 2320.34 1118.72 2367.14 1088.95Z" fill="#F59B45"/>
<path d="M2057.14 980.34H2283.61L2248.42 800.996C2245.75 787.398 2237.75 775.619 2225.9 767.824C2214.05 760.031 2199.76 757.156 2185.67 759.73C2166.77 763.183 2151.14 776.254 2144.87 793.844C2143.42 797.909 2139.45 800.639 2135 800.639C2130.54 800.639 2126.58 797.909 2125.13 793.844C2118.86 776.254 2103.23 763.183 2084.33 759.73C2070.24 757.155 2055.95 760.031 2044.1 767.824C2032.24 775.618 2024.25 787.398 2021.58 800.994L1986.39 980.34H2015.39C2021.15 980.34 2025.82 984.846 2025.83 990.404H2046.7C2046.7 984.846 2051.37 980.34 2057.14 980.34Z" fill="#F59B45"/>
<path d="M2457.84 1022.41C2453.23 1019.07 2446.69 1019.96 2443.22 1024.41C2443.05 1024.63 2430.69 1040.29 2406.14 1060.62H2320.61L2316.67 1040.57C2321.96 1040.08 2326.1 1035.78 2326.1 1030.55C2326.1 1024.99 2321.42 1020.48 2315.66 1020.48H2312.73L2306.78 990.128C2306.74 989.028 2306.53 987.975 2306.16 986.991L2268.93 797.25C2265.22 778.368 2254.12 762.008 2237.66 751.184C2221.2 740.361 2201.36 736.368 2181.79 739.943C2162.71 743.429 2146.03 753.965 2135 768.838C2123.97 753.965 2107.29 743.429 2088.21 739.943C2068.64 736.368 2048.8 740.361 2032.34 751.184C2015.88 762.008 2004.78 778.368 2001.07 797.25L1963.84 986.993C1963.47 987.977 1963.26 989.029 1963.22 990.129L1957.27 1020.48H1954.34C1948.57 1020.48 1943.9 1024.99 1943.9 1030.55C1943.9 1035.78 1948.04 1040.08 1953.33 1040.57L1949.39 1060.62H1863.88C1839.5 1040.41 1827.06 1024.76 1826.77 1024.4C1823.31 1019.96 1816.77 1019.07 1812.16 1022.41C1807.56 1025.75 1806.63 1032.06 1810.09 1036.51C1811.2 1037.93 1837.87 1071.75 1891.37 1105.77C1940.56 1137.05 2022.76 1174.33 2135 1174.33C2247.24 1174.33 2329.44 1137.05 2378.63 1105.77C2432.13 1071.75 2458.79 1037.93 2459.9 1036.51C2463.37 1032.06 2462.44 1025.75 2457.84 1022.41ZM1890.5 1080.76H1958.19C1958.21 1080.76 2311.9 1080.76 2311.9 1080.76C2311.99 1080.76 2379.5 1080.76 2379.5 1080.76C2375.56 1083.48 2371.45 1086.22 2367.14 1088.95C2320.34 1118.72 2242.07 1154.2 2135 1154.2C2028.35 1154.2 1950.31 1118.98 1903.62 1089.44C1899.04 1086.54 1894.67 1083.64 1890.5 1080.76ZM1982.44 1000.48H2015.39C2021.15 1000.48 2025.83 995.97 2025.83 990.409C2025.82 984.846 2021.15 980.34 2015.39 980.34H1986.39L2021.58 800.996C2024.25 787.4 2032.25 775.619 2044.1 767.825C2055.95 760.032 2070.23 757.156 2084.33 759.731C2103.23 763.184 2118.86 776.255 2125.13 793.845C2126.58 797.911 2130.54 800.64 2135 800.64C2139.45 800.64 2143.42 797.911 2144.87 793.845C2151.14 776.255 2166.77 763.184 2185.67 759.731C2199.76 757.157 2214.05 760.032 2225.9 767.825C2237.75 775.619 2245.75 787.4 2248.42 800.997L2283.61 980.34H2057.14C2051.37 980.34 2046.7 984.846 2046.7 990.404C2046.7 995.97 2051.37 1000.48 2057.14 1000.48H2287.56L2291.49 1020.48H1978.51L1982.44 1000.48ZM2295.44 1040.62L2299.36 1060.62H1970.64L1974.56 1040.62H2295.44Z" fill="#34150C"/>
</g>
<defs>
<clipPath id="clip0_6_2">
<rect width="654" height="631" fill="white" transform="translate(1808 641)"/>
</clipPath>
</defs>
</svg>
