<svg width="4000" height="4000" viewBox="0 0 4000 4000" fill="none" xmlns="http://www.w3.org/2000/svg">
<path d="M1560.96 1164.79L1633.71 732.66C1640.26 693.76 1670.06 665.639 1704.74 665.639H2223.77C2239.77 665.639 2254.74 671.627 2266.86 681.902C2281.04 693.919 2291.32 711.794 2294.82 732.8L2350.85 1068.79" fill="#5A5A28"/>
<path d="M2468.48 1241.58H1426.52V1183.98L2468.48 1050.87V1241.58Z" fill="#5A5A28"/>
<path d="M2014.72 1241.58H1426.52V1183.98L2014.72 1107.19V1241.58Z" fill="#7B7B53"/>
<path d="M1560.96 1164.79L1633.71 732.66C1640.26 693.76 1670.06 665.639 1704.74 665.639H2014.72V1107.19L1560.96 1164.79Z" fill="#7B7B53"/>
<path d="M1594.57 992.006L1560.96 1164.79L2350.84 1068.8L2334.04 992.006H1594.57Z" fill="#FA9C1C"/>
<path d="M1594.57 992.006L1560.96 1164.79L1997.92 1107.19V992.006H1594.57Z" fill="#FBB049"/>
<path d="M1695.42 1030.75H1645V1068.48H1695.42V1030.75Z" fill="#1D1D1B"/>
<path d="M1779.45 1030.75H1729.03V1068.48H1779.45V1030.75Z" fill="#1D1D1B"/>
<path d="M1863.48 1030.75H1813.06V1068.48H1863.48V1030.75Z" fill="#1D1D1B"/>
<path d="M1947.5 1030.75H1897.09V1068.48H1947.5V1030.75Z" fill="#1D1D1B"/>
<path d="M2031.53 1030.75H1981.11V1068.48H2031.53V1030.75Z" fill="#1D1D1B"/>
<path d="M2115.56 1030.75H2065.14V1068.48H2115.56V1030.75Z" fill="#1D1D1B"/>
<path d="M2116.75 576.239L1938.5 779.864C1912.25 809.852 1912.25 858.475 1938.5 888.465C1964.75 918.455 2007.31 918.455 2033.57 888.465L2306.89 576.242C2254.39 516.261 2169.26 516.261 2116.75 576.239Z" fill="white"/>
<path d="M2169.39 733.318L2086.2 719.743L2074.32 624.716L2003.02 706.165L2014.9 801.191L2098.08 814.766L2169.39 733.318Z" fill="#FA9C1C"/>
<path d="M2240.69 651.867L2157.5 638.292L2145.62 543.268L2074.32 624.716L2086.2 719.743L2169.39 733.318L2240.69 651.867Z" fill="#FBB049"/>
<path d="M2363.56 1045.29L2311.04 730.358C2306.86 705.27 2294.66 683.066 2276.7 667.84C2271.61 663.521 2266.2 659.892 2260.54 656.947L2330.25 577.323L2318.57 563.981C2259.71 496.745 2163.94 496.745 2105.07 563.981L2031.54 647.986V647.861H1704.74C1662.21 647.861 1625.52 682.483 1617.49 730.185L1546.88 1149.62L1410 1167.11V1260.44H2485V1029.78L2363.56 1045.29ZM2278.6 737.421L2318.08 974.229H1887.73L1939.65 914.925C1953.27 925.327 1969.28 930.911 1986.03 930.911C2008.4 930.911 2029.43 920.96 2045.25 902.892L2234.42 686.798C2242.55 688.589 2250.24 692.391 2257.02 698.142C2268.3 707.707 2275.97 721.659 2278.6 737.421ZM2282.72 578.254L2234.85 632.938L2172.1 622.699L2164.58 562.506C2202.89 543.429 2248.33 548.669 2282.72 578.254ZM2128.43 590.666C2130.24 588.606 2132.1 586.656 2133.99 584.756L2142.9 656.05L2205.65 666.291L2163.54 714.392L2100.79 704.15L2091.83 632.471L2128.43 590.666ZM2062.64 665.823L2071.61 737.501L2134.35 747.744L2092.24 795.845L2029.5 785.606L2020.53 713.926L2062.64 665.823ZM2063.05 829.193L2021.89 876.212C2012.31 887.154 1999.58 893.178 1986.03 893.178C1978.2 893.178 1970.67 891.106 1963.83 887.293L1990.92 856.346L1967.57 829.665L1940.48 860.615C1937.14 852.808 1935.32 844.2 1935.32 835.256C1935.32 819.784 1940.6 805.235 1950.18 794.298L1991.34 747.279L2000.3 818.956L2063.05 829.193ZM1649.93 737.309C1654.97 707.343 1678.02 685.591 1704.74 685.591H1998.62L1926.82 767.606C1911.01 785.673 1902.3 809.694 1902.3 835.249C1902.3 854.391 1907.19 872.674 1916.29 888.238L1841.02 974.222H1610.04L1649.93 737.309ZM1594.18 1068.46H1611.38V1030.73H1600.53L1603.7 1011.95H2324.38L2327.51 1030.73H2317.23V1051.21L2283.62 1055.5V1030.73H2233.2V1061.94L2199.59 1066.24V1030.73H2149.17V1068.46H2182.19L1581.25 1145.23L1594.18 1068.46ZM2451.97 1222.71H1443.03V1200.86L2451.97 1071.97V1222.71H2451.97Z" fill="#1D1D1B"/>
</svg>
