<svg width="4000" height="4000" viewBox="0 0 4000 4000" fill="none" xmlns="http://www.w3.org/2000/svg">
<g clip-path="url(#clip0_6_2)">
<path d="M2849.28 889.397C2899.97 811.422 2805.56 755.602 2760.58 791.887C2747.95 761.333 2712.61 739.34 2671 739.34C2629.39 739.34 2594.06 761.333 2581.42 791.887C2536.45 755.602 2442.03 811.422 2492.72 889.397H2849.28Z" fill="#FF6465"/>
<g opacity="0.1">
<path d="M2562.71 782.488C2515.2 769.837 2448.34 821.123 2492.73 889.397H2523.74C2488.59 835.34 2523.2 791.942 2562.71 782.488Z" fill="black"/>
</g>
<path d="M2798.74 791.809C2828.84 772.423 2836.9 738.709 2811.14 742.593C2811.16 742.589 2811.19 742.584 2811.21 742.581C2842.14 722.324 2849.34 686.987 2819.67 694.382C2821.73 677.019 2816.81 662.492 2807.26 660.155C2797.7 657.818 2786.63 668.435 2780.45 684.788C2757.54 664.533 2747.61 699.202 2765.7 731.45C2765.72 731.464 2765.74 731.481 2765.76 731.495C2744.7 716.159 2736.3 749.788 2754.05 780.876C2727.49 761.065 2720.71 818.588 2760.34 851.972C2810.91 840.65 2831.45 786.492 2798.74 791.809Z" fill="#FFD782"/>
<path d="M2669.97 960.142L2738.83 961.045L2812.86 974.588L2833.97 961.12L2841.55 924.304L2837.76 903.888L2669.97 884.3H2671L2503.21 903.888L2499.41 924.304L2507 961.12L2528.1 974.588L2602.14 961.045L2671 960.142H2669.97Z" fill="#FFD782"/>
<path d="M2514.25 995.796C2507.28 995.796 2500.63 991.739 2497.66 984.939C2493.66 975.783 2497.85 965.118 2507 961.119C2538.47 947.38 2601.11 938.845 2670.49 938.845C2739.86 938.845 2802.5 947.38 2833.97 961.118C2843.12 965.116 2847.3 975.78 2843.31 984.937C2839.31 994.093 2828.64 998.276 2819.49 994.278C2792.7 982.584 2734.22 975.028 2670.48 975.028C2606.75 975.028 2548.26 982.585 2521.48 994.279C2519.12 995.308 2516.67 995.796 2514.25 995.796Z" fill="#D6B56D"/>
<path d="M2499.42 924.304C2492.22 924.304 2485.42 919.984 2482.6 912.892C2478.91 903.607 2483.44 893.088 2492.73 889.396C2526.92 875.8 2595.23 867.353 2671 867.353C2746.77 867.353 2815.08 875.799 2849.27 889.395C2858.56 893.087 2863.09 903.606 2859.4 912.89C2855.71 922.176 2845.19 926.71 2835.91 923.018C2813.3 914.031 2756.55 903.536 2671 903.536C2585.45 903.536 2528.7 914.031 2506.09 923.019C2503.9 923.892 2501.64 924.304 2499.42 924.304Z" fill="#D6B56D"/>
<path d="M2726.47 911.527C2726.47 911.527 2753.79 1000.49 2711.74 1139.08L2757.12 1110.12L2787.25 1156.15C2787.25 1156.15 2825.76 958.145 2758.62 889.544L2726.47 911.527Z" fill="#D7565A"/>
<path d="M2751.29 904.764C2751.29 904.764 2786.82 972.406 2773.9 1090.62L2806.12 1060.37L2837.42 1092.95C2837.42 1092.95 2838.48 927.328 2773.9 882.152L2751.29 904.764Z" fill="#FF6465"/>
<path d="M2755.42 934.853C2781.67 934.853 2802.96 913.57 2802.96 887.317C2802.96 861.064 2781.67 839.781 2755.42 839.781C2729.17 839.781 2707.89 861.064 2707.89 887.317C2707.89 913.57 2729.17 934.853 2755.42 934.853Z" fill="#BA9D5F"/>
<path d="M2755.42 909.933C2742.95 909.933 2732.81 899.788 2732.81 887.32C2732.81 874.852 2742.95 864.709 2755.42 864.709C2767.89 864.709 2778.03 874.853 2778.03 887.32C2778.03 899.789 2767.89 909.933 2755.42 909.933Z" fill="#FFD782"/>
<path opacity="0.1" d="M2519.02 881.434C2508.88 883.833 2500.02 886.497 2492.73 889.397C2483.44 893.089 2478.91 903.608 2482.6 912.893C2485.42 919.985 2492.22 924.305 2499.42 924.305L2507 961.12C2497.85 965.119 2493.66 975.783 2497.66 984.94C2500.63 991.74 2507.28 995.797 2514.25 995.797C2516.67 995.797 2519.12 995.309 2521.48 994.28C2531.04 990.106 2544.66 986.462 2561.09 983.497C2544.2 964.669 2515.99 926.14 2519.02 881.434Z" fill="black"/>
<path d="M2755.6 917.655C2772.34 917.655 2785.96 904.033 2785.96 887.289C2785.96 870.545 2772.34 856.923 2755.6 856.923C2738.85 856.923 2725.23 870.544 2725.23 887.289C2725.23 904.034 2738.85 917.655 2755.6 917.655ZM2755.6 872.43C2763.79 872.43 2770.46 879.095 2770.46 887.289C2770.46 895.483 2763.79 902.148 2755.6 902.148C2747.4 902.148 2740.74 895.482 2740.74 887.289C2740.74 879.096 2747.4 872.43 2755.6 872.43Z" fill="black"/>
<path d="M2514.43 1003.52C2520.07 1003.52 2524.69 1001.2 2529.87 999.323C2537.74 996.469 2545.89 994.463 2554.07 992.756C2556.77 992.193 2559.24 991.765 2561.06 989.487C2563.03 987.009 2563.29 983.475 2561.69 980.738C2560.13 978.071 2557.04 976.554 2553.97 976.967C2543.05 978.436 2531.69 981.872 2521.47 985.93C2515.15 988.439 2507.56 988.945 2504.72 981.25C2502.41 974.998 2506.52 969.732 2512.06 967.438C2536.67 957.236 2563.34 953.639 2589.63 950.746C2617.68 947.661 2645.9 946.473 2674.11 946.585C2674.13 946.585 2674.16 946.585 2674.18 946.585C2690.19 946.65 2706.19 947.177 2722.16 948.212C2723.15 948.277 2724.21 948.204 2725.18 948.395C2725.61 948.51 2725.5 949.183 2725.54 949.56C2726.18 955.551 2726.66 961.558 2726.99 967.573C2727.08 969.094 2727.09 969.259 2725.48 969.144C2701.59 967.298 2677.55 966.91 2653.61 967.42C2630.72 967.898 2607.83 969.307 2585.11 972.074C2582.07 972.443 2579.46 974.372 2578.46 977.311C2577.46 980.271 2578.38 983.633 2580.74 985.671C2583.56 988.098 2586.78 987.48 2590.17 987.088C2611.12 984.665 2632.22 983.394 2653.3 982.936C2674.45 982.488 2695.61 982.833 2716.73 984.11C2719.63 984.286 2722.54 984.479 2725.44 984.691C2725.97 984.73 2726.51 984.781 2727.04 984.806C2727.29 984.817 2727.52 984.762 2727.58 985.053C2727.63 985.238 2727.57 985.526 2727.57 985.72C2727.61 995.74 2727.48 1005.89 2726.89 1015.95C2726.37 1024.71 2724.85 1033.44 2724.51 1042.19C2724.32 1047.01 2728.76 1050.92 2733.51 1050.14C2739.35 1049.18 2740 1043.17 2740.51 1038.34C2743.53 1009.52 2744.14 979.983 2741.29 950.984C2741.2 950.096 2740.26 940.398 2740.12 940.408C2741.22 940.323 2742.78 941.084 2743.86 941.32C2748.16 942.256 2752.31 942.205 2756.66 942.564C2757.5 942.637 2757.93 946.398 2758.11 947.063C2764.97 973.693 2768.36 1001.15 2769.03 1028.62C2769.52 1048.58 2768.53 1068.51 2766.51 1088.36C2766.18 1091.45 2766.56 1094.37 2769.04 1096.49C2775.79 1102.25 2783.42 1092.44 2787.85 1088.29C2788.04 1088.1 2788.31 1087.92 2788.46 1087.69C2787.79 1100.76 2785.95 1113.89 2784.2 1126.85C2783.82 1129.65 2783.44 1132.44 2783.01 1135.23C2782.87 1134.94 2782.65 1134.67 2782.47 1134.4C2776.44 1124.75 2769.96 1115.39 2763.78 1105.84C2761.51 1102.32 2756.63 1101.31 2753.11 1103.55C2744.9 1108.79 2736.69 1114.04 2728.48 1119.28C2727.43 1119.95 2725.83 1120.63 2724.96 1121.54C2727.82 1110.46 2730.52 1099.36 2732.8 1088.15C2733.77 1083.39 2736.03 1077.37 2735.39 1072.49C2734.86 1068.41 2731.08 1065.4 2726.98 1065.78C2722.03 1066.24 2720.41 1070.31 2719.64 1074.54C2718.63 1080.05 2717.54 1085.55 2716.36 1091.02C2713.97 1102.13 2711.24 1113.16 2708.19 1124.1C2706.85 1128.91 2703.69 1134.74 2704.2 1139.83C2704.66 1144.4 2709.16 1147.64 2713.65 1146.61C2719.11 1145.36 2724.86 1139.98 2729.53 1137C2738.02 1131.58 2746.51 1126.17 2755 1120.75C2757.91 1125.19 2760.82 1129.64 2763.73 1134.08C2768.36 1141.16 2773 1148.24 2777.63 1155.31C2780.73 1160.05 2784.98 1166.94 2791.64 1162.63C2796.03 1159.78 2795.99 1152.49 2796.74 1147.9C2799.96 1128.39 2802.31 1108.73 2803.92 1089.03C2803.91 1089.06 2803.96 1088.44 2803.96 1088.44C2804.36 1083.57 2804.7 1078.7 2805 1073.82C2805 1073.78 2805.41 1070.56 2806.02 1071.23C2806.86 1072.16 2807.76 1073.05 2808.63 1073.95C2810.67 1076.08 2812.72 1078.21 2814.76 1080.33C2819.39 1085.16 2824.03 1089.99 2828.67 1094.81C2831.79 1098.06 2834.92 1101.94 2839.99 1100.28C2844.94 1098.67 2845.38 1093.99 2845.33 1089.56C2845.25 1081.67 2844.94 1073.78 2844.5 1065.9C2843.75 1052.55 2842.58 1039.23 2840.96 1025.96C2840.06 1018.59 2839.02 1011.23 2837.82 1003.9C2837.75 1003.46 2837.67 1003.02 2837.6 1002.58C2837.56 1002.35 2837.29 1001.51 2837.42 1001.3C2837.81 1000.66 2839.77 1000.07 2840.41 999.682C2848.03 994.999 2852.81 986.341 2852.74 977.396C2852.67 969.579 2848.89 962.164 2842.82 957.301C2842.91 957.122 2842.94 956.798 2842.98 956.583C2844.74 948.542 2846.31 940.453 2847.97 932.391C2848.02 932.112 2848.17 931.72 2848.15 931.452C2853.89 930.172 2859.08 927.107 2862.8 922.522C2870.8 912.67 2870.65 896.777 2861.08 887.929C2860.74 887.619 2860.14 887.405 2860.07 886.88C2859.99 886.321 2860.56 885.888 2860.8 885.443C2874.9 859.466 2876.08 828.075 2857.54 803.931C2849.92 793.999 2839.81 786.04 2828.52 780.662C2827.49 780.173 2826.49 779.619 2825.41 779.258C2825.11 779.159 2824.71 779.114 2824.47 778.896C2824.23 778.688 2824.41 778.51 2824.58 778.282C2829.91 771.056 2834.93 762.136 2834.8 752.887C2834.73 748.394 2833.1 743.213 2829.69 740.107C2829.51 739.948 2828.26 739.1 2828.39 738.821C2828.76 738.027 2829.9 737.281 2830.5 736.656C2835.38 731.625 2839.64 725.673 2842.64 719.286C2846.55 710.958 2848.83 699.901 2842.47 692.12C2840.48 689.691 2837.81 687.909 2834.87 686.858C2833.96 686.534 2828.19 685.948 2828.04 685.292C2827.45 682.711 2827.57 679.854 2827.32 677.157C2826.57 669.191 2822.7 660.579 2816.12 655.785C2801.22 644.919 2784.26 659.548 2777.62 672.779C2777.49 673.038 2777.44 673.193 2777.13 673.122C2774.12 672.435 2771.21 671.146 2768.09 671.046C2758.43 670.738 2751.76 680.016 2749.81 688.508C2747.53 698.452 2749 708.916 2751.96 718.555C2752.11 719.038 2752.49 719.72 2752.47 720.247C2752.32 720.42 2751.94 720.418 2751.73 720.473C2742.33 723.005 2738.09 733.089 2737.1 741.918C2737.01 742.73 2736.34 751.229 2736.91 751.321C2736.55 751.261 2736.12 750.81 2735.82 750.606C2735.44 750.35 2735.06 750.096 2734.68 749.845C2722.36 741.72 2708.32 736.328 2693.84 733.629C2677.1 730.506 2659.64 730.865 2643.06 734.8C2639.08 735.746 2634.57 736.787 2630.72 738.482C2627.78 739.773 2625.91 742.85 2626.11 746.05C2626.3 749.228 2628.5 752.024 2631.53 752.976C2635.17 754.115 2638.96 751.968 2642.39 750.993C2658.55 746.413 2675.87 745.84 2692.33 749.121C2706.94 752.034 2721.04 758.122 2732.66 767.536C2732.97 767.792 2736.55 770.818 2736.48 770.894C2736.09 771.324 2735.5 771.502 2735.01 771.799C2731.4 774.002 2728.83 777.927 2727.32 781.792C2721.05 797.786 2726.36 817 2734.12 831.486C2734.29 831.817 2736.51 835.227 2736.33 835.44C2736.09 835.727 2735.4 835.838 2735.05 835.982C2728.09 838.789 2721.61 843.097 2716.28 848.469C2712.98 851.802 2709.81 855.663 2707.62 859.835C2707.45 860.144 2707.35 860.213 2707 860.212C2703.24 860.205 2699.47 859.963 2695.71 859.873C2690.11 859.74 2684.51 859.703 2678.91 859.599C2679.01 859.34 2678.93 823.619 2678.93 822.013C2678.93 818.887 2676.96 815.952 2674.02 814.792C2670.83 813.535 2667.1 814.58 2665.02 817.295C2663.98 818.644 2663.42 820.346 2663.42 822.013C2663.42 826.318 2663.3 859.301 2663.44 859.595C2652.33 859.798 2641.23 859.948 2630.13 860.41C2616.6 860.974 2603.08 861.736 2589.59 862.951C2576.81 864.102 2564.2 866.408 2551.45 867.685C2550.97 867.733 2550.56 867.863 2550.27 867.419C2548.81 865.181 2547.51 862.853 2546.23 860.515C2541.95 852.483 2538.73 843.801 2537.1 834.837C2536.7 832.63 2536.52 830.44 2536.3 828.214C2536 825.3 2534 822.743 2531.25 821.729C2528.39 820.672 2525.09 821.444 2522.98 823.644C2521.49 825.208 2520.76 827.301 2520.84 829.45C2521.32 841.678 2525.61 853.947 2531 864.818C2531.85 866.531 2533.08 868.239 2533.78 869.999C2534.13 870.861 2530.87 870.992 2530.35 871.094C2519.14 873.284 2508.05 875.954 2497.2 879.545C2496.31 879.839 2496.23 879.934 2495.76 879.087C2494.55 876.878 2493.41 874.63 2492.38 872.329C2486.94 860.155 2484.48 846.406 2487.54 833.262C2491.57 815.913 2504.91 801.929 2520.71 794.379C2537.4 786.407 2559.1 785.423 2574.75 796.398C2578.25 798.853 2581.8 801.077 2585.94 798.268C2587.76 797.037 2588.57 795.174 2589.46 793.174C2592.29 786.892 2596.33 780.914 2601.03 775.746C2604.12 772.344 2608.44 769.589 2611.42 766.023C2614.04 762.896 2613.72 758.128 2610.73 755.36C2607.6 752.455 2603.23 752.899 2600.06 755.444C2593.42 760.783 2587.52 767.005 2582.64 773.993C2581.64 775.426 2580.09 779.499 2578.58 780.359C2577.37 781.038 2575.37 779.149 2574.43 778.595C2564.4 772.718 2550.64 771.968 2539.37 773.253C2520.39 775.42 2502.26 784.584 2489.25 798.59C2476.61 812.203 2469.77 830.256 2470.65 848.855C2471.27 861.912 2475.57 874.51 2481.81 885.912C2481.97 886.214 2482.34 886.495 2482.27 886.878C2482.21 887.212 2481.85 887.385 2481.61 887.585C2480.49 888.541 2479.52 889.82 2478.66 891.012C2470.89 901.768 2472.68 917.195 2482.78 925.83C2485.78 928.397 2489.31 930.165 2493.11 931.192C2493.1 931.402 2493.2 931.709 2493.25 931.934C2494.71 939.717 2496.45 947.447 2498.05 955.203C2498.08 955.379 2498.58 957.224 2498.49 957.297C2487.9 965.958 2485.34 981.562 2493.47 992.808C2498.28 999.467 2506.22 1003.52 2514.43 1003.52ZM2512.92 950.523L2508.76 930.339C2508.88 930.291 2509.01 930.242 2509.13 930.192C2544.28 916.216 2618.39 911.258 2671.18 911.258C2681.84 911.258 2692.59 911.198 2703.24 911.788C2704.19 911.819 2705.14 911.856 2706.09 911.89C2710.07 919.913 2715.9 926.797 2723.17 932.06C2723.2 932.286 2723.24 932.506 2723.28 932.736C2723.13 931.845 2702.24 931.672 2700.19 931.599C2673.25 930.559 2646.12 930.778 2619.22 932.672C2592.35 934.564 2565.22 937.341 2538.8 943.293C2536.38 943.839 2533.96 944.409 2531.55 945.009C2525.27 946.574 2519.03 948.374 2512.92 950.523ZM2811.89 1054.96C2809.05 1052.01 2804.09 1051.77 2800.99 1054.68L2783.59 1071.02C2783.59 1071.01 2783.59 1071 2783.59 1070.99C2785.91 1036.63 2784.61 1001.96 2778.53 968.037C2776.87 958.763 2774.83 949.56 2772.4 940.455C2772.37 940.307 2772.33 940.153 2772.29 940.006C2782.16 936.881 2790.95 931.026 2797.65 923.173C2798.15 924.143 2798.65 925.111 2799.14 926.112C2799.2 926.234 2799.26 926.354 2799.32 926.476C2803.03 934.097 2806.45 942.614 2809.55 951.939C2809.59 952.082 2809.64 952.225 2809.68 952.368C2822.41 991.018 2827.35 1031.99 2829.27 1072.5C2829.28 1072.69 2829.29 1072.89 2829.3 1073.09C2829.3 1073.09 2811.89 1054.96 2811.89 1054.96ZM2795.57 844.349C2798.68 842.057 2801.64 839.56 2804.41 836.863C2804.61 836.669 2804.82 836.478 2805.01 836.283C2804.14 840.66 2802.5 846.701 2799.46 853.664C2797.45 851.039 2795.22 848.58 2792.75 846.345C2792.82 846.3 2792.89 846.25 2792.95 846.203C2793.84 845.601 2794.71 844.983 2795.57 844.349ZM2825.21 949.436C2825.16 949.42 2825.12 949.405 2825.07 949.389C2822.22 940.551 2819.1 932.356 2815.69 924.819C2821.82 926.341 2827.17 927.927 2831.47 929.519C2831.51 929.535 2831.55 929.55 2831.59 929.566C2831.95 929.699 2832.29 929.834 2832.64 929.968L2828.4 950.524C2828.32 950.494 2828.22 950.464 2828.14 950.434C2827.18 950.098 2826.2 949.766 2825.21 949.436ZM2830.39 967.919C2830.6 968.005 2830.8 968.092 2831 968.177C2831.01 968.182 2831.02 968.187 2831.04 968.193C2836.26 970.474 2838.65 976.579 2836.37 981.803C2835.87 982.964 2835.16 984 2834.3 984.879C2833.09 979.025 2831.79 973.371 2830.39 967.919ZM2852.37 909.995C2849.96 916.054 2843.57 917.544 2837.92 915.381C2831.57 912.951 2825 911.176 2818.43 909.464C2817.53 909.231 2807.53 906.277 2807.25 907.023C2809.65 900.757 2810.89 894.079 2810.89 887.289C2810.89 887.077 2810.89 886.866 2810.89 886.654C2810.91 886.659 2810.94 886.664 2810.96 886.67C2811.14 886.705 2811.31 886.741 2811.48 886.776C2823.29 889.168 2835.07 892.034 2846.29 896.453C2846.39 896.491 2846.49 896.53 2846.59 896.568C2849.16 897.588 2851.17 899.546 2852.26 902.082C2853.35 904.619 2853.39 907.427 2852.37 909.995ZM2852.62 826.259C2859.12 842.604 2856.88 861.041 2846.16 879.882C2846.02 879.834 2845.87 879.789 2845.73 879.741C2837.13 876.788 2828.31 874.548 2819.43 872.607C2815.93 871.841 2812.42 871.137 2808.9 870.476C2808.73 870.445 2808.57 870.411 2808.4 870.38C2820.95 848.242 2821.5 829.982 2821.52 829.179C2821.59 825.77 2819.45 822.833 2816.42 821.728C2821.53 812.945 2823.54 804.283 2821.95 797.369C2821.9 797.183 2821.84 797.008 2821.8 796.825C2821.71 796.501 2821.63 796.178 2821.53 795.865C2821.46 795.632 2821.37 795.41 2821.29 795.183C2821.19 794.921 2821.1 794.659 2821 794.406C2820.97 794.343 2820.95 794.276 2820.93 794.213C2835.48 800.849 2847.12 812.425 2852.62 826.259ZM2754.41 736.974C2755.34 735.387 2755.98 735.387 2756.25 735.387C2756.7 735.387 2758.36 735.553 2761.38 737.733C2761.41 737.758 2761.45 737.784 2761.49 737.814C2764.95 740.238 2769.72 739.446 2772.21 736.021C2774.13 733.371 2774.14 729.908 2772.46 727.265C2772.42 727.217 2772.39 727.169 2772.36 727.12C2766.64 716.644 2760.92 697.384 2766.38 688.046C2768.53 684.386 2773.44 688.754 2775.48 690.563C2777.39 692.251 2780.01 692.893 2782.48 692.281C2784.96 691.669 2786.97 689.881 2787.87 687.498C2792.59 675.014 2800.16 667.554 2804.74 667.554C2805.04 667.554 2805.31 667.587 2805.59 667.654C2809.51 668.612 2813.97 678.105 2812.15 693.435C2811.84 695.966 2812.81 698.482 2814.72 700.167C2816.63 701.851 2819.25 702.49 2821.72 701.873C2823.54 701.42 2829.9 699.714 2830.75 702.551C2832.31 707.771 2825.72 723.675 2807.64 735.727C2802.89 738.895 2801.9 746.059 2807.39 749.163C2809.85 750.554 2812.69 749.948 2815.38 750.008C2816.57 750.035 2818.38 750.072 2818.79 751.468C2819.81 754.927 2817.86 759.255 2816.37 762.272C2811.57 772.008 2803.62 778.447 2795.27 784.99C2792.43 787.214 2790.49 790.009 2791.55 793.742C2792.62 797.513 2796.23 800.065 2800.16 799.431C2800.35 799.4 2800.52 799.387 2800.71 799.362C2802.42 799.125 2806.28 798.497 2806.83 800.854C2807.54 803.953 2806.19 807.475 2804.94 810.261C2800.54 820.096 2792.33 828.133 2783.39 833.976C2781.78 835.027 2780.14 836.018 2778.45 836.942C2778.07 837.148 2774.79 835.445 2774.3 835.269C2768.31 833.137 2761.88 831.985 2755.52 832.005C2755.25 832.006 2752.86 832.302 2752.71 832.085C2752.65 831.997 2752.58 831.91 2752.52 831.822C2745.68 822.056 2740.81 810.223 2740.32 798.205C2740.17 794.411 2740.38 790.24 2742.06 786.758C2742.77 785.286 2743.62 784.271 2745.38 784.754C2747.53 785.347 2749.05 787.025 2751.04 787.917C2753.8 789.153 2757.09 788.655 2759.36 786.653C2762.82 783.591 2762.21 779.33 2760.23 775.685C2754.52 764.971 2749.03 746.248 2754.41 736.974ZM2750.16 847.888C2770.47 845.113 2790.08 858.741 2794.45 878.764C2799.29 900.897 2783.88 923.323 2761.47 926.637C2738.54 930.028 2717.03 912.358 2715.86 889.227C2715.83 888.582 2715.81 887.936 2715.81 887.29C2715.81 881.736 2716.95 876.352 2719.17 871.287C2724.71 858.708 2736.58 849.743 2750.16 847.888ZM2495.77 896.569C2508.55 891.486 2526.33 887.145 2547.59 883.719C2547.82 883.694 2548.04 883.657 2548.27 883.611C2582.36 878.168 2625.33 875.074 2671.18 875.074C2671.21 875.074 2671.24 875.074 2671.28 875.074C2681.25 875.075 2691.22 875.24 2701.19 875.53C2701.32 875.533 2701.44 875.535 2701.56 875.539C2700.73 879.373 2700.31 883.299 2700.31 887.286C2700.31 890.286 2700.55 893.26 2701.03 896.19C2700.69 894.556 2673.8 895.748 2671.18 895.748C2641.07 895.748 2610.37 897.005 2580.21 900.264C2543.22 904.261 2517.21 910.293 2503.4 915.78C2498.32 917.8 2492.09 915.296 2489.98 909.994C2487.87 904.7 2490.47 898.679 2495.77 896.569Z" fill="black"/>
</g>
<defs>
<clipPath id="clip0_6_2">
<rect width="511.995" height="511.995" fill="white" transform="translate(2415 652)"/>
</clipPath>
</defs>
</svg>
