<svg width="4000" height="4000" viewBox="0 0 4000 4000" fill="none" xmlns="http://www.w3.org/2000/svg">
<g clip-path="url(#clip0_6_2)">
<path d="M2246.9 878.728L2273.96 1109.54H1841.04L1877.11 878.728H2246.9Z" fill="#FBB049"/>
<path d="M2192.79 878.728L2237.88 1109.54H1877.11L1931.23 878.728H2192.79Z" fill="#FA9C1C"/>
<path d="M2273.96 1109.54H1841.04L1850.06 1069.4H2264.94L2273.96 1109.54Z" fill="#7B7B53"/>
<path d="M2273.96 1109.54H2057.5V1069.4H2264.94L2273.96 1109.54Z" fill="#5A5A28"/>
<path d="M2294.48 1219.93H1820.52C1796.98 1219.93 1777.9 1198.7 1777.9 1172.51V1109.54H2337.1V1172.51C2337.1 1198.7 2318.02 1219.93 2294.48 1219.93Z" fill="#FBB049"/>
<path d="M2277.76 1219.93H1837.24C1834.36 1219.93 1832.02 1217.32 1832.02 1214.11V1109.54H2282.98V1214.11C2282.98 1217.32 2280.64 1219.93 2277.76 1219.93Z" fill="#FA9C1C"/>
<path d="M2281.78 1099.63L2254.72 868.82H2129.65V888.632H2239.09L2259.12 1059.49H2066.4V1009.18H2048.6V1059.49H1857.9L1884.6 888.632H1985.35V868.82H1869.63L1833.55 1099.63H1769V1175.64C1769 1205.52 1790.85 1229.83 1817.71 1229.83H2297.3C2324.15 1229.83 2346 1205.52 2346 1175.64V1099.63H2281.78ZM1854.8 1079.3H2261.44L2263.82 1099.63H1851.62L1854.8 1079.3ZM2328.19 1175.64C2328.19 1194.6 2314.33 1210.02 2297.29 1210.02H1817.71C1800.67 1210.02 1786.81 1194.6 1786.81 1175.64V1119.44H2328.19V1175.64Z" fill="#1D1D1B"/>
<path d="M2075.54 969.174H2039.46V988.985H2048.6V999.15H2066.4V988.985H2075.54V969.174Z" fill="white"/>
<path d="M2120.52 958.88H1994.48V818.517C1994.48 801.845 1982.29 788.28 1967.31 788.28V768.469C1992.11 768.469 2012.29 790.92 2012.29 818.517V939.07H2102.71V818.517C2102.71 790.92 2122.89 768.469 2147.69 768.469V788.28C2132.71 788.28 2120.52 801.844 2120.52 818.517V958.88H2120.52Z" fill="#5A5A28"/>
<path d="M2093.46 928.904H2075.65V788.411C2075.65 760.815 2095.83 738.363 2120.63 738.363V758.175C2105.65 758.175 2093.46 771.739 2093.46 788.411V928.904H2093.46Z" fill="#5A5A28"/>
<path d="M2039.34 928.904H2021.54V788.411C2021.54 771.739 2009.35 758.175 1994.36 758.175V738.363C2019.17 738.363 2039.34 760.815 2039.34 788.411V928.904Z" fill="#5A5A28"/>
<path d="M2066.4 718.167H2048.6V928.903H2066.4V718.167Z" fill="#5A5A28"/>
</g>
<defs>
<clipPath id="clip0_6_2">
<rect width="577" height="642" fill="white" transform="translate(1769 653)"/>
</clipPath>
</defs>
</svg>
