<svg width="4000" height="4000" viewBox="0 0 4000 4000" fill="none" xmlns="http://www.w3.org/2000/svg">
<g clip-path="url(#clip0_6_2)">
<path d="M2406.54 1172.49L2394.62 1240.07L1805.71 1136.23L1817.62 1068.65C1819.26 1059.36 1827.4 1052.96 1835.7 1054.42L1903.65 1066.4L2326.47 1140.95L2394.42 1152.94C2402.72 1154.4 2408.18 1163.2 2406.54 1172.49Z" fill="#AFB6BB"/>
<path d="M2345.83 1031.14L1923.02 956.586L1903.65 1066.4L2326.46 1140.96L2345.83 1031.14Z" fill="#FFD311"/>
<path d="M2418.82 617.212L1996 542.659L1923.02 956.586L2345.83 1031.14L2418.82 617.212Z" fill="#595E62"/>
<path d="M1903.65 1066.4L1835.7 1054.42C1827.4 1052.96 1819.26 1059.36 1817.62 1068.65L1805.71 1136.23L2100.16 1188.15L2115.06 1103.68L1903.65 1066.4Z" fill="#A0A7AB"/>
<path d="M2134.42 993.862L1923.02 956.586L1903.65 1066.4L2115.06 1103.68L2134.42 993.862Z" fill="#FABB1B"/>
<path d="M2207.41 579.936L1996 542.659L1923.02 956.586L2134.42 993.862L2207.41 579.936Z" fill="#474B4F"/>
<path d="M2408.18 1229.4L2417.86 1174.49C2420.74 1158.19 2411.22 1142.83 2396.65 1140.27L2340.02 1130.28L2392.9 830.403L2370.25 826.409L2336.74 1016.47L1936.58 945.91L2005.09 557.327L2084.38 571.306L2088.84 545.965L1986.91 527.992L1894.56 1051.73L1837.94 1041.75C1823.37 1039.18 1809.17 1050.35 1806.3 1066.66L1796.62 1121.56L1762.64 1115.57L1758.17 1140.92L2437.69 1260.73L2442.16 1235.39L2408.18 1229.4V1229.4ZM2332.27 1041.81L2317.37 1126.29L1917.21 1055.73L1923.17 1021.94L2289.36 1086.51L2293.82 1061.16L1927.64 996.595L1932.11 971.252L2332.27 1041.81L2332.27 1041.81ZM1828.95 1070.65C1829.35 1068.36 1831.42 1066.73 1833.47 1067.09L2392.18 1165.61C2394.23 1165.97 2395.62 1168.21 2395.21 1170.5L2385.53 1225.41L1819.27 1125.56L1828.95 1070.65Z" fill="black"/>
<path d="M2376.21 792.614L2398.86 796.608L2432.37 606.539L2119.04 551.289L2114.57 576.631L2405.26 627.886L2376.21 792.614Z" fill="black"/>
<path d="M2047.52 625.779L2096.6 634.433L2101.06 609.09L2029.34 596.443L2007.74 718.931L2030.39 722.925L2047.52 625.779Z" fill="white"/>
<path d="M2025.92 748.266L2003.27 744.272L1997.31 778.063L2019.96 782.057L2025.92 748.266Z" fill="white"/>
<path d="M2292.03 938.905L2261.83 933.58L2257.36 958.923L2287.56 964.248L2292.03 938.905Z" fill="black"/>
<path d="M2328.19 910.441L2297.99 905.116L2293.52 930.459L2323.72 935.784L2328.19 910.441Z" fill="black"/>
</g>
<defs>
<clipPath id="clip0_6_2">
<rect width="690" height="772" fill="white" transform="translate(1881.06 444) rotate(10)"/>
</clipPath>
</defs>
</svg>
