<svg width="4000" height="4000" viewBox="0 0 4000 4000" fill="none" xmlns="http://www.w3.org/2000/svg">
<g clip-path="url(#clip0_6_2)">
<path d="M2089.5 585.2L1868.35 1167H2310.65L2089.5 585.2Z" fill="#FFD26C"/>
<path d="M2175.23 810.734L1892.65 1103.06L1868.35 1167H1947.79L2208.24 897.567L2175.23 810.734ZM2108.93 636.303L2044.9 702.539L1969.11 901.915L2141.93 723.134L2108.93 636.303ZM2241.54 985.167L2065.76 1167H2182.71L2274.54 1072L2241.54 985.167Z" fill="#FFB819"/>
<path d="M2123.89 675.682L2010.53 792.956L2003.48 811.502L2126.96 683.759L2123.89 675.682ZM2190.2 850.113L1883.87 1167H1894.75L2193.27 858.19L2190.2 850.113ZM2256.5 1024.55L2118.8 1167H2129.67L2259.57 1032.62L2256.5 1024.55Z" fill="white"/>
<path d="M2281.37 1089.95H1897.64L1868.35 1167H2310.65L2281.37 1089.95Z" fill="#D85C72"/>
<path d="M2010.82 477L2010.82 520.102C2015.38 519.043 2020.13 518.481 2025 518.481C2060.62 518.481 2089.5 548.352 2089.5 585.2C2089.5 533.845 2056.26 490.522 2010.82 477Z" fill="#B04C5C"/>
<path d="M2037.97 531.893C2009.51 531.893 1986.44 555.759 1986.44 585.2H2022.23C2022.23 565.983 2037.29 550.404 2055.86 550.404C2074.44 550.404 2089.5 565.983 2089.5 585.2C2089.5 555.759 2066.43 531.893 2037.97 531.893Z" fill="#D85C72"/>
<path d="M2168.18 477L2168.18 520.102C2163.62 519.043 2158.87 518.481 2154 518.481C2118.38 518.481 2089.5 548.352 2089.5 585.2C2089.5 533.845 2122.74 490.522 2168.18 477Z" fill="#B04C5C"/>
<path d="M2141.03 531.893C2169.49 531.893 2192.56 555.759 2192.56 585.2H2156.77C2156.77 565.983 2141.71 550.404 2123.14 550.404C2104.56 550.404 2089.5 565.983 2089.5 585.2C2089.5 555.759 2112.57 531.893 2141.03 531.893Z" fill="#D85C72"/>
</g>
<defs>
<clipPath id="clip0_6_2">
<rect width="667" height="690" fill="white" transform="translate(1756 477)"/>
</clipPath>
</defs>
</svg>
