<svg width="4000" height="4000" viewBox="0 0 4000 4000" fill="none" xmlns="http://www.w3.org/2000/svg">
<g clip-path="url(#clip0_6_2)">
<path d="M2154.35 670.641C2154.35 670.64 2154.34 670.64 2154.34 670.64C2128.98 668.428 2106.97 683.196 2105.18 703.63C2104.58 710.495 2106.35 717.121 2109.91 722.985L2149.46 726.445L2189.04 729.908C2193.56 724.751 2196.45 718.532 2197.05 711.668C2198.84 691.228 2179.72 672.86 2154.35 670.641Z" fill="#1DA49C"/>
<path d="M2197.05 711.667C2198.83 691.228 2179.72 672.86 2154.35 670.641C2154.35 670.64 2154.34 670.64 2154.34 670.639L2149.45 726.444L2189.03 729.907C2193.56 724.749 2196.45 718.531 2197.05 711.667Z" fill="#198F88"/>
<path d="M2124.65 1009.97L1876.81 988.291L1915.58 1098.27C1917.51 1103.73 1923.4 1107.76 1930.33 1108.36L2114.63 1124.49L2298.96 1140.61C2305.89 1141.22 2312.39 1138.27 2315.24 1133.23L2372.52 1031.66L2124.65 1009.97Z" fill="#FFE49C"/>
<path d="M2191.95 728.738L2149.58 725.03L2107.24 721.326C1993.74 711.396 1895.25 777.475 1887.25 868.917L1876.81 988.289L2124.65 1009.97L2372.52 1031.66L2382.97 912.287C2390.97 820.845 2305.45 738.667 2191.95 728.738Z" fill="#5AC2AD"/>
<path d="M2382.97 912.287C2390.97 820.845 2305.45 738.666 2191.95 728.737L2149.58 725.029L2124.65 1009.97L2372.52 1031.66L2382.97 912.287Z" fill="#1DA49C"/>
<path d="M2142.39 807.394L2142.37 807.401L2014.44 861.019L2131.12 936.037L2131.13 936.046L2259.08 882.422L2142.39 807.394Z" fill="#FFE49C"/>
<path d="M2259.08 882.422L2142.39 807.394L2142.37 807.402L2131.12 936.037L2131.13 936.046L2259.08 882.422Z" fill="#FFC72D"/>
<path d="M2138.32 853.934C2138.31 853.933 2138.31 853.935 2138.3 853.934C2126.12 852.875 2115.54 859.971 2114.69 869.789C2113.83 879.608 2123 888.431 2135.19 889.504C2135.2 889.505 2135.2 889.507 2135.2 889.508C2147.4 890.574 2157.98 883.476 2158.84 873.653C2159.7 863.829 2150.51 855 2138.32 853.934Z" fill="#80D0E1"/>
<path d="M2138.32 853.934C2138.31 853.933 2138.31 853.935 2138.3 853.934L2135.19 889.503C2135.2 889.504 2135.2 889.506 2135.21 889.507C2147.4 890.573 2157.98 883.475 2158.84 873.652C2159.7 863.829 2150.51 855 2138.32 853.934Z" fill="#48AEE2"/>
<path d="M2124.65 1009.97L2114.63 1124.49L2298.96 1140.61C2305.89 1141.22 2312.4 1138.27 2315.24 1133.23L2372.52 1031.66L2124.65 1009.97L2124.65 1009.97Z" fill="#FFC72D"/>
</g>
<defs>
<clipPath id="clip0_6_2">
<rect width="565.445" height="455.582" fill="white" transform="translate(1872.71 646) rotate(5)"/>
</clipPath>
</defs>
</svg>
