<svg width="4000" height="4000" viewBox="0 0 4000 4000" fill="none" xmlns="http://www.w3.org/2000/svg">
<path d="M2162.13 1123.11C2121.91 1122.94 2078.01 1123.11 2032 1123.11C1986 1123.11 1942.09 1122.94 1901.87 1123.11L1683 1138.12V1153.13C1683 1186.26 1755.06 1273.12 2032 1273.12C2308.94 1273.12 2381 1186.26 2381 1153.13V1139.55L2162.13 1123.11Z" fill="#602B2B"/>
<path d="M2381 1138.12C2381 1171.25 2308.94 1258.11 2032 1258.11C1755.06 1258.11 1683 1171.25 1683 1138.12C1683 1104.98 1839.26 1108.13 2032 1108.13C2224.73 1108.13 2381 1104.98 2381 1138.12Z" fill="#602B2B"/>
<path d="M2381 1138.12C2381 1171.25 2308.94 1258.11 2032 1258.11C1755.06 1258.11 1683 1171.25 1683 1138.12C1683 1104.98 1839.26 1108.13 2032 1108.13C2224.73 1108.13 2381 1104.98 2381 1138.12Z" fill="#6D3B3B"/>
<path d="M2279.22 1138.12C2279.22 1138.12 2186.99 1183.12 2032.09 1183.12C1877.19 1183.12 1784.45 1138.12 1784.45 1138.12C1784.45 1138.12 1855.31 883.84 1876.92 883.84C1898.53 883.84 2017.97 928.126 2031.83 928.126C2045.68 928.126 2172.76 875.171 2187.24 883.84C2201.75 892.518 2279.22 1138.12 2279.22 1138.12Z" fill="#7F4545"/>
<path d="M2032.08 1153.13C1903.01 1153.13 1817.11 1121.88 1792.05 1111.47C1787.3 1127.86 1784.45 1138.12 1784.45 1138.12C1784.45 1138.12 1877.19 1183.12 2032.09 1183.12C2186.99 1183.12 2279.22 1138.12 2279.22 1138.12C2279.22 1138.12 2276.03 1128.01 2270.81 1111.8C2244.84 1122.56 2159.77 1153.13 2032.08 1153.13Z" fill="#EC5564"/>
<g opacity="0.1">
<path d="M1876.92 913.843C1898.53 913.843 2017.97 958.129 2031.83 958.129C2045.68 958.129 2172.76 905.176 2187.24 913.843C2198.81 920.754 2250.36 1078.19 2270.81 1141.81C2276.35 1139.53 2279.22 1138.12 2279.22 1138.12C2279.22 1138.12 2201.75 892.518 2187.24 883.84C2172.76 875.171 2045.68 928.126 2031.83 928.126C2017.97 928.126 1898.53 883.84 1876.92 883.84C1855.31 883.84 1784.45 1138.12 1784.45 1138.12C1784.45 1138.12 1787.03 1139.37 1792.05 1141.46C1810.92 1076.23 1859.64 913.843 1876.92 913.843Z" fill="white"/>
</g>
</svg>
