<svg width="4000" height="4000" viewBox="0 0 4000 4000" fill="none" xmlns="http://www.w3.org/2000/svg">
<g clip-path="url(#clip0_6_2)">
<g clip-path="url(#clip1_6_2)">
<path d="M3087.71 1312.13C3166.49 1383.24 3202.51 1449.77 3182.25 1504.82C3155.24 1578.23 3031.43 1602.31 2851.35 1580.52C2493.45 1538.08 1965.59 1339.66 1666.21 1134.35C1516.52 1031.12 1436.62 931.336 1463.63 857.93C1483.89 801.728 1559.29 774.201 1670.72 774.201C2048.88 801.728 2795.08 1048.33 3086.58 1312.13H3087.71Z" fill="#558B2F"/>
<path fill-rule="evenodd" clip-rule="evenodd" d="M2571.11 631.976C2619.5 650.328 2669.02 657.209 2720.8 664.091C2769.19 669.826 2834.47 676.708 2870.49 712.264C2876.11 717.999 2880.62 723.734 2885.12 730.616C2889.62 738.644 2893 747.82 2895.25 756.996C2899.75 777.642 2895.25 797.14 2888.5 816.639C2880.62 839.578 2869.36 862.518 2858.11 884.31C2836.72 927.895 2726.42 1155 2709.54 1200.87L2705.04 1214.64L2692.66 1213.49C2583.49 1204.32 2477.69 1179.08 2376.4 1140.08C2264.97 1097.65 2159.18 1040.3 2060.14 973.774L2048.88 965.745L2143.42 768.466C2165.93 720.293 2176.06 668.679 2189.57 617.065C2196.32 590.685 2203.07 563.158 2213.2 537.924C2221.08 518.426 2231.21 498.927 2249.22 486.31C2255.97 481.723 2264.97 478.282 2272.85 475.988C2299.86 469.106 2328 478.282 2351.64 492.045C2378.65 506.956 2404.54 526.455 2429.3 544.806C2474.32 578.068 2518.21 611.33 2571.11 630.829V631.976Z" fill="#689F38"/>
<path fill-rule="evenodd" clip-rule="evenodd" d="M2700.54 1224.96L2705.04 1211.2C2706.17 1208.9 2707.29 1205.46 2708.42 1202.02C2715.17 1187.11 2725.3 1161.88 2738.81 1133.2C2604.87 1117.15 2226.71 995.566 2092.77 871.693L2062.39 933.63L2047.76 964.598C2189.57 1090.77 2578.99 1213.49 2700.54 1223.81V1224.96Z" fill="#FFD600"/>
<path d="M2325.75 989.832L2436.05 1033.42C2442.8 1035.71 2447.3 1041.45 2450.68 1047.18C2452.93 1052.92 2454.06 1060.94 2451.81 1067.83L2441.68 1095.35L2427.04 1134.35C2424.79 1141.23 2419.17 1145.82 2413.54 1149.26C2407.91 1151.55 2400.03 1152.7 2393.28 1150.41L2282.98 1106.82C2276.23 1104.53 2271.73 1098.79 2268.35 1093.06C2266.1 1087.32 2264.97 1079.3 2267.23 1072.41L2280.73 1038L2293.11 1005.89C2295.36 999.007 2300.99 994.419 2306.62 990.979C2312.25 988.685 2320.12 987.538 2326.88 989.832H2325.75ZM2428.17 1054.06L2317.87 1010.48C2316.75 1010.48 2315.62 1010.48 2314.5 1010.48C2313.37 1010.48 2313.37 1011.62 2312.25 1012.77L2299.86 1044.89L2286.36 1079.3C2286.36 1080.44 2286.36 1081.59 2286.36 1081.59C2286.36 1082.74 2287.48 1082.74 2288.61 1083.88L2398.91 1127.47C2400.03 1127.47 2401.16 1127.47 2402.28 1127.47C2403.41 1127.47 2403.41 1126.32 2404.54 1125.17L2419.17 1086.18L2429.3 1058.65C2429.3 1057.5 2429.3 1056.36 2429.3 1055.21C2429.3 1054.06 2428.17 1054.06 2427.04 1052.92L2428.17 1054.06Z" fill="#212121"/>
</g>
</g>
<defs>
<clipPath id="clip0_6_2">
<rect width="4000" height="4000" fill="white"/>
</clipPath>
<clipPath id="clip1_6_2">
<rect width="2305" height="2349" fill="white" transform="translate(1171 -78)"/>
</clipPath>
</defs>
</svg>
