<svg width="4000" height="4000" viewBox="0 0 4000 4000" fill="none" xmlns="http://www.w3.org/2000/svg">
<g clip-path="url(#clip0_6_2)">
<path fill-rule="evenodd" clip-rule="evenodd" d="M2164.86 662.858C2414.91 684.734 2648.83 730.295 2782.52 774.113C2822.58 786.652 2853.5 800.399 2874.54 812.279C2908.01 831.268 2922.04 854.579 2914.79 880.044C2913.18 886.931 2909.67 892.646 2905.25 897.279C2864.12 942.867 2831.83 979.191 2810.29 1007.42C2791 1032.84 2781.38 1051.07 2780.07 1066.01C2775.97 1112.83 2691.15 1141.55 2556.74 1151.87C2437.53 1160.52 2274.1 1158.26 2095.78 1142.66C1917.47 1127.06 1756.13 1100.9 1640.24 1071.69C1509.57 1039.18 1431.11 995.171 1435.21 948.35C1437.12 926.434 1435.89 883.162 1426.51 841.185C1419.99 812.507 1410.3 785.56 1396.84 767.317C1392.38 760.904 1389.01 753.582 1387.62 746.435C1383.82 721.007 1401.59 701.481 1435.86 688.418C1457.65 680.287 1488.41 672.939 1527.05 667.285C1665.41 646.264 1909.84 640.546 2164.86 662.858Z" fill="#B71C1C"/>
<path d="M2793.52 1107.34C2853.54 1212.97 2830.45 1293.27 2753.06 1351.74C2621.94 1450.69 2317.9 1472.28 2028.62 1439.94C1738.34 1407.52 1459.83 1320.91 1383.74 1203.84C1344.06 1141.14 1351.98 1073.57 1428.25 1004.96C1477.94 1056.49 1582.88 1084.74 1631.99 1097.07C1699.77 1114.04 1769.89 1127.2 1839.19 1138.28C1923.34 1151.67 2007.85 1161.07 2092.52 1168.48C2177.2 1175.88 2262.14 1180.3 2347.25 1182.73C2417.42 1183.85 2488.76 1183.07 2558.45 1178.12C2615.03 1174.04 2743.55 1162.19 2792.52 1107.25L2793.52 1107.34Z" fill="#D32F2F"/>
<path fill-rule="evenodd" clip-rule="evenodd" d="M2248.46 992.398C2246.62 1036.4 2196.46 1036.03 2134.52 1032.62C2072.58 1029.21 2022.77 1024.85 2024.62 980.844C2026.46 936.837 2080.46 870.291 2142.49 872.706C2204.43 876.117 2250.3 948.391 2248.46 992.398Z" fill="#EF9A9A"/>
<path fill-rule="evenodd" clip-rule="evenodd" d="M1431.88 1009.29C1481.67 1059.82 1584.7 1086.91 1633.81 1099.23C1701.59 1116.21 1771.71 1129.37 1841.01 1140.45C1925.16 1153.83 2009.66 1163.24 2094.34 1170.64C2179.02 1178.05 2263.95 1182.47 2349.07 1184.9C2419.24 1186.02 2490.58 1185.23 2560.27 1180.29C2607.79 1176.42 2706.9 1168.02 2766.26 1132.06C2768.34 1131.24 2794.17 1111.41 2796.24 1110.59L2776.94 1078.79C2756.61 1116.16 2676.2 1140.24 2557.99 1148.97C2438.79 1157.61 2275.36 1155.36 2097.04 1139.76C1918.72 1124.16 1757.39 1098 1641.49 1068.79C1521.7 1038.23 1445.79 999.467 1436.41 957.49L1431.79 1010.29L1431.88 1009.29Z" fill="#9C1717"/>
</g>
<defs>
<clipPath id="clip0_6_2">
<rect width="4000" height="4000" fill="white"/>
</clipPath>
</defs>
</svg>
