<svg width="4000" height="4000" viewBox="0 0 4000 4000" fill="none" xmlns="http://www.w3.org/2000/svg">
<g clip-path="url(#clip0_6_2)">
<path d="M1855.1 1013.19C1898 853.107 2045.4 753.512 2184.34 790.741C2323.28 827.969 2401.13 987.921 2358.24 1148.01L1855.1 1013.19Z" fill="#FF7731"/>
<path d="M2358.19 1148.2L1855.06 1013.38L1822.84 1133.63L2325.97 1268.44L2358.19 1148.2Z" fill="#FF2E48"/>
<path d="M1502.96 1152.34L2593.63 1444.58L2481.47 1348.27C2438.82 1311.64 2389.55 1285.47 2336.52 1271.26L1812.28 1130.79C1759.25 1116.58 1703.5 1114.61 1648.25 1125.01L1502.96 1152.34Z" fill="#FF7731"/>
<path d="M2608.78 1422.85L2496.62 1326.54C2454.58 1290.43 2407.16 1264.27 2355.53 1248.64L2380.81 1154.26C2380.82 1154.23 2380.83 1154.2 2380.83 1154.17C2380.84 1154.13 2380.86 1154.1 2380.86 1154.07C2427.54 979.866 2342.51 805.18 2191.32 764.669C2040.13 724.157 1879.15 832.925 1832.47 1007.13C1832.47 1007.16 1832.46 1007.19 1832.45 1007.23C1832.44 1007.26 1832.43 1007.29 1832.42 1007.32L1807.14 1101.69C1754.6 1089.42 1700.45 1088.36 1645.99 1098.61L1500.7 1125.94C1489.46 1128.06 1480.55 1138.76 1479.4 1151.51C1478.25 1164.26 1485.19 1175.52 1495.97 1178.41L2586.64 1470.65C2597.43 1473.54 2609.06 1467.26 2614.44 1455.64C2619.83 1444.02 2617.46 1430.3 2608.78 1422.85ZM1870.69 1045.52L2328.57 1168.21L2310.33 1236.29L1852.45 1113.61L1870.69 1045.52ZM2177.35 816.815C2295.95 848.594 2365.79 979.263 2341.49 1115.58L1885.82 993.483C1932.93 863.276 2058.75 785.036 2177.35 816.815ZM2329.54 1297.33C2379.84 1310.81 2425.86 1335.26 2466.31 1370L2487.51 1388.2L1623.05 1156.57L1650.51 1151.41C1702.91 1141.55 1754.99 1143.38 1805.3 1156.86L2329.54 1297.33Z" fill="black"/>
<path d="M2101.4 973.54L1963.37 936.555C1950.88 933.207 1937.62 942.167 1933.76 956.564C1929.9 970.961 1936.9 985.351 1949.4 988.699L2087.43 1025.68C2099.93 1029.03 2113.19 1020.07 2117.04 1005.68C2120.9 991.278 2113.9 976.889 2101.4 973.54Z" fill="black"/>
<path d="M2182.86 995.368L2169.29 991.73C2156.79 988.382 2143.53 997.342 2139.67 1011.74C2135.82 1026.14 2142.82 1040.53 2155.32 1043.87L2168.89 1047.51C2181.39 1050.86 2194.65 1041.9 2198.5 1027.5C2202.36 1013.11 2195.36 998.716 2182.86 995.368Z" fill="black"/>
</g>
<defs>
<clipPath id="clip0_6_2">
<rect width="1176" height="1355" fill="white" transform="translate(1723.7 238) rotate(15)"/>
</clipPath>
</defs>
</svg>
