<svg width="4000" height="4000" viewBox="0 0 4000 4000" fill="none" xmlns="http://www.w3.org/2000/svg">
<g clip-path="url(#clip0_0_1)">
<path d="M2065.38 853.546C1914.99 853.546 1793.09 970.569 1793.09 1114.92C1793.09 1152.99 1801.64 1189.15 1816.89 1221.75C1883.95 1257.34 1966.67 1254.07 2056.23 1254.07C2156.98 1254.07 2249.07 1251.74 2319.94 1207.71C2331.35 1178.86 2337.66 1147.6 2337.66 1114.9C2337.67 970.569 2215.77 853.546 2065.38 853.546Z" fill="#F0C419"/>
<path d="M2057 859.736C2050.57 859.736 2045.36 854.288 2045.36 847.575V725.968C2045.36 719.255 2050.57 713.807 2057 713.807C2063.43 713.807 2068.64 719.255 2068.64 725.968V847.575C2068.64 854.3 2063.43 859.736 2057 859.736Z" fill="#D1D4D1"/>
<path d="M2335.95 1143.06L2326.83 1148.49C2256.49 1189.97 2165.93 1193.27 2054.85 1193.27L2032.88 1193.3C1949.69 1193.5 1871.06 1193.74 1808.46 1162.44L1796.25 1154.37C1797.99 1165.36 1800.46 1176.11 1803.58 1186.6C1864.33 1215.18 1935.79 1217.65 2011.72 1217.65C2018.75 1217.65 2025.83 1217.64 2032.92 1217.61L2054.83 1217.58C2165.39 1217.58 2256.41 1214.17 2330.35 1173.99C2332.82 1163.89 2334.76 1153.59 2335.95 1143.06Z" fill="#E57E25"/>
<path d="M2058.37 865.78C2065.18 867.215 2092.01 890.515 2114.87 937.09C2137.73 983.702 2168.35 1079.71 2116.52 1199.03C2113.86 1205.15 2116.46 1212.36 2122.32 1215.13C2123.88 1215.87 2125.51 1216.23 2127.12 1216.23C2131.55 1216.23 2135.79 1213.58 2137.73 1209.09C2202.69 1059.59 2148.16 943.718 2121.72 900.839C2110.88 883.267 2097.12 865.658 2083.94 854.227C2077.81 853.826 2071.65 853.558 2065.41 853.558C2059.26 853.558 2053.17 853.826 2047.12 854.215C2047.38 860.636 2052.13 865.78 2058.37 865.78Z" fill="#E57E25"/>
<path d="M2067.55 853.656C2067.55 853.631 2067.54 853.619 2067.54 853.595C2066.81 853.595 2066.1 853.546 2065.38 853.546C2052.99 853.546 2040.83 854.41 2028.88 855.954C2016.32 867.385 2003.38 884.155 1993.09 900.827C1966.65 943.706 1912.14 1059.57 1977.1 1209.08C1979.04 1213.56 1983.28 1216.22 1987.7 1216.22C1989.31 1216.22 1990.95 1215.86 1992.51 1215.12C1998.37 1212.35 2000.96 1205.14 1998.31 1199.02C1946.46 1079.7 1977.08 983.69 1999.95 937.078C2022.8 890.503 2049.62 867.191 2055.91 865.804C2062.33 865.816 2067.55 860.381 2067.55 853.656Z" fill="#E57E25"/>
<path d="M2056.73 715.668L2057 715.875V715.474L2056.73 715.668Z" fill="#A5A5A4"/>
<path d="M1731 717.784C1731.01 736.998 1742.98 753.403 1762.34 765.418C1748.72 756.966 1738.81 746.337 1734.12 734.067L1750.62 740.33C1810.88 767.144 1882.93 736.39 1893.67 731.477C1894.26 731.027 1894.73 730.468 1895.41 730.127C1898.95 728.388 1980.7 689.158 2053.34 718.064C2052.34 718.769 2051.02 719.657 2049.6 720.605C2053.83 717.76 2056.31 715.972 2056.73 715.656C2053.88 713.431 1960.14 640.831 1849.71 640.831C1784.82 640.843 1731.03 677.131 1731 717.784Z" fill="#ECF0F1"/>
<path d="M1906.77 751.481C1906.19 751.919 1905.74 752.479 1905.06 752.807C1902.48 754.072 1857.8 775.621 1805.51 775.621C1796.34 775.621 1786.93 774.818 1777.48 773.261C1797.38 781.847 1822.15 786.772 1849.04 786.772H1849.56C1942.5 786.772 2023.69 737.91 2048.84 721.141C2043.62 724.606 2036 729.422 2026.37 734.943C1972.55 723.208 1916.14 747.237 1906.77 751.481Z" fill="#A5A5A4"/>
<path d="M1769.55 769.516C1767.17 768.288 1764.89 766.999 1762.69 765.649C1764.89 766.999 1767.17 768.275 1769.55 769.516Z" fill="#A5A5A4"/>
<path d="M1777.48 773.273C1774.87 772.142 1772.36 770.951 1769.92 769.71C1772.36 770.951 1774.86 772.142 1777.48 773.273Z" fill="#A5A5A4"/>
<path d="M2049.6 720.618C2049.33 720.8 2049.11 720.946 2048.83 721.128C2049.12 720.946 2049.32 720.812 2049.6 720.618Z" fill="#D1D4D1"/>
<path d="M1762.7 765.649C1762.59 765.576 1762.47 765.503 1762.35 765.43C1762.47 765.491 1762.59 765.576 1762.7 765.649Z" fill="#D1D4D1"/>
<path d="M1769.92 769.698C1769.81 769.637 1769.68 769.577 1769.56 769.504C1769.68 769.577 1769.79 769.637 1769.92 769.698Z" fill="#D1D4D1"/>
<path d="M1895.41 730.139C1894.73 730.468 1894.26 731.039 1893.67 731.489C1882.93 736.402 1810.89 767.144 1750.62 740.342L1734.13 734.079C1738.82 746.337 1748.73 756.978 1762.35 765.43C1762.47 765.503 1762.59 765.576 1762.7 765.649C1764.89 766.998 1767.19 768.288 1769.56 769.516C1769.68 769.577 1769.81 769.637 1769.92 769.71C1772.36 770.963 1774.87 772.155 1777.48 773.273C1786.93 774.83 1796.34 775.633 1805.51 775.633C1857.8 775.633 1902.48 754.096 1905.06 752.819C1905.74 752.491 1906.19 751.931 1906.77 751.494C1916.16 747.237 1972.55 723.22 2026.36 734.943C2035.98 729.434 2043.61 724.606 2048.83 721.14C2049.11 720.958 2049.33 720.8 2049.6 720.63C2051.02 719.681 2052.33 718.781 2053.34 718.088C1980.7 689.182 1898.95 728.4 1895.41 730.139Z" fill="#D1D4D1"/>
<path d="M2370.03 683.929C2372.32 686.823 2374.3 689.814 2376.01 692.867C2374.31 689.802 2372.32 686.823 2370.03 683.929Z" fill="#D1D4D1"/>
<path d="M2057.27 715.668C2057.66 715.96 2059.88 717.553 2063.61 720.082C2059.88 717.553 2057.66 715.96 2057.27 715.668Z" fill="#D1D4D1"/>
<path d="M2057.48 715.51C2057.69 715.352 2058.06 715.072 2058.58 714.671C2057.98 715.121 2057.7 715.34 2057.48 715.51Z" fill="#D1D4D1"/>
<path d="M2204.56 684.841C2205.11 684.403 2205.54 683.856 2206.18 683.515C2209.47 681.788 2283.76 643.665 2351.19 666.393C2358.53 671.598 2364.81 677.398 2369.81 683.637C2349.99 658.829 2309.93 640.843 2264.29 640.843C2184.9 640.843 2114.21 678.359 2079.59 700.321C2133.31 717.748 2194.99 689.51 2204.56 684.841Z" fill="#ECF0F1"/>
<path d="M2057 715.875L2057.27 715.668L2057 715.875Z" fill="#D1D4D1"/>
<path d="M2380.78 703.69L2353.43 693.086C2297.19 668.047 2228.15 699.64 2217.99 704.59C2217.44 705.015 2217.01 705.575 2216.37 705.915C2213.83 707.253 2168.97 730.358 2117.61 730.358C2099.89 730.358 2081.43 727.452 2063.64 720.107C2086.76 735.746 2169.45 786.784 2264.45 786.784H2264.98C2329.86 786.784 2382.97 758.45 2383 717.796C2382.99 709.527 2380.66 701.452 2376.56 693.815C2378.3 697.026 2379.73 700.321 2380.78 703.69Z" fill="#A5A5A4"/>
<path d="M2063.78 710.901C2067.55 708.238 2072.86 704.602 2079.52 700.37C2072.83 704.614 2067.55 708.214 2063.78 710.901Z" fill="#D1D4D1"/>
<path d="M2059.91 713.686C2060.87 712.981 2062.01 712.154 2063.45 711.132C2062.03 712.142 2060.85 712.993 2059.91 713.686Z" fill="#D1D4D1"/>
<path d="M2057.27 715.668L2057 715.474L2057.27 715.668Z" fill="#A5A5A4"/>
<path d="M2057 715.474V715.875L2057.27 715.668L2057 715.474Z" fill="#A5A5A4"/>
<path d="M2063.64 720.106L2063.61 720.083L2063.64 720.106Z" fill="#A5A5A4"/>
<path d="M2063.45 711.132C2063.55 711.059 2063.67 710.974 2063.78 710.901C2063.66 710.986 2063.55 711.047 2063.45 711.132Z" fill="#A5A5A4"/>
<path d="M2369.81 683.637C2369.89 683.734 2369.95 683.831 2370.03 683.929C2369.96 683.831 2369.89 683.734 2369.81 683.637Z" fill="#A5A5A4"/>
<path d="M2057.48 715.51C2057.42 715.559 2057.3 715.644 2057.27 715.668C2057.3 715.644 2057.42 715.559 2057.48 715.51Z" fill="#A5A5A4"/>
<path d="M2058.57 714.683C2058.92 714.428 2059.44 714.039 2059.91 713.698C2059.39 714.075 2058.94 714.403 2058.57 714.683Z" fill="#A5A5A4"/>
<path d="M2079.59 700.333L2079.53 700.369L2079.59 700.333Z" fill="#A5A5A4"/>
<path d="M2376.03 692.867C2376.2 693.183 2376.4 693.487 2376.56 693.791C2376.39 693.487 2376.2 693.183 2376.03 692.867Z" fill="#A5A5A4"/>
<path d="M2216.37 705.903C2217.01 705.575 2217.43 705.015 2217.99 704.578C2228.15 699.64 2297.19 668.047 2353.42 693.086L2380.76 703.69C2379.73 700.321 2378.28 697.026 2376.55 693.803C2376.39 693.487 2376.19 693.183 2376.01 692.879C2374.3 689.814 2372.32 686.835 2370.03 683.941C2369.96 683.844 2369.89 683.746 2369.81 683.649C2364.8 677.41 2358.53 671.61 2351.19 666.405C2283.76 643.689 2209.47 681.813 2206.18 683.527C2205.54 683.856 2205.12 684.415 2204.56 684.853C2194.99 689.51 2133.31 717.76 2079.59 700.346C2079.56 700.358 2079.54 700.37 2079.52 700.382C2072.85 704.614 2067.54 708.238 2063.78 710.913C2063.67 710.986 2063.55 711.071 2063.45 711.144C2062.01 712.166 2060.87 713.005 2059.91 713.698C2059.44 714.039 2058.92 714.428 2058.57 714.683C2058.05 715.072 2057.68 715.352 2057.47 715.522C2057.41 715.571 2057.29 715.656 2057.26 715.68C2057.65 715.972 2059.86 717.565 2063.6 720.095C2063.61 720.095 2063.61 720.107 2063.62 720.107C2081.42 727.452 2099.88 730.358 2117.6 730.358C2168.97 730.358 2213.83 707.241 2216.37 705.903Z" fill="#D1D4D1"/>
</g>
<defs>
<clipPath id="clip0_0_1">
<rect width="652" height="681" fill="white" transform="translate(1731 607)"/>
</clipPath>
</defs>
</svg>
