<svg width="4000" height="4000" viewBox="0 0 4000 4000" fill="none" xmlns="http://www.w3.org/2000/svg">
<g clip-path="url(#clip0_6_2)">
<path d="M2454.36 933.088C2441.14 945.865 2427.12 957.801 2412.42 968.849C2412.03 969.177 2411.62 969.491 2411.19 969.771C2395.09 981.781 2378.16 992.726 2360.52 1002.5C2354.53 1005.81 2346.91 1003.81 2343.48 998.028C2343.46 997.983 2343.44 997.937 2343.41 997.892C2334.36 1002.58 2325.16 1006.91 2315.85 1010.94C2315.88 1010.99 2315.91 1011.04 2315.93 1011.09C2318.56 1017.25 2315.52 1024.31 2309.15 1026.85C2228.38 1059.06 2140.14 1067.73 2053.95 1051.92C1984.22 1039.13 1919.47 1010.81 1863.97 969.166C1863.91 969.121 1863.85 969.077 1863.79 969.031C1849.07 957.97 1834.98 945.984 1821.64 933.086C1810.29 922.112 1791.81 922.11 1780.46 933.086C1769.11 944.062 1769.11 961.921 1780.46 972.898C1875.96 1065.22 2002.94 1116.07 2138 1116.07C2273.06 1116.07 2400.04 1065.22 2495.54 972.898C2506.89 961.922 2506.89 944.062 2495.54 933.086C2484.19 922.114 2465.71 922.11 2454.36 933.088Z" fill="#9345EB"/>
<path d="M2391.67 857.306C2388.4 724.772 2275.87 617.929 2138 617.929C2000.14 617.929 1887.6 724.772 1884.33 857.306C2034.57 966.579 2241.43 966.579 2391.67 857.306ZM2050.64 760.227C2057.52 760.227 2063.12 765.64 2063.12 772.292C2063.12 778.944 2057.52 784.357 2050.64 784.357C2043.76 784.357 2038.16 778.944 2038.16 772.292C2038.16 765.64 2043.76 760.227 2050.64 760.227ZM2000.73 726.446C2007.61 726.446 2013.21 731.859 2013.21 738.511C2013.21 745.163 2007.61 750.576 2000.73 750.576C1993.85 750.576 1988.25 745.163 1988.25 738.511C1988.25 731.859 1993.84 726.446 2000.73 726.446Z" fill="#9345EB"/>
<path d="M2348.11 981.562C2363.24 973.181 2377.81 963.881 2391.75 953.75V886.962C2317.72 936.168 2228.57 963.053 2138 963.053C2047.44 963.053 1958.28 936.168 1884.25 886.962V953.786C2002.46 1039.85 2159.65 1060.38 2299.64 1004.54C2305.95 1002.02 2313.17 1004.89 2315.85 1010.94C2325.16 1006.92 2334.36 1002.58 2343.41 997.894C2340.1 992.132 2342.17 984.848 2348.11 981.562Z" fill="#3DE2F3"/>
<path d="M2513.19 916.025C2492.1 895.645 2457.8 895.644 2436.71 916.025C2430.24 922.279 2423.57 928.318 2416.71 934.141V863.242C2416.71 714.67 2291.68 593.798 2138 593.798C1984.32 593.798 1859.29 714.67 1859.29 863.242V934.135C1852.47 928.331 1845.79 922.303 1839.29 916.023C1818.21 895.644 1783.9 895.642 1762.81 916.023C1741.73 936.408 1741.73 969.574 1762.81 989.959C1863.03 1086.84 1996.27 1140.2 2138 1140.2C2279.73 1140.2 2412.97 1086.84 2513.19 989.959C2534.27 969.576 2534.27 936.409 2513.19 916.025ZM2495.54 972.899C2400.04 1065.23 2273.06 1116.07 2138 1116.07C2002.94 1116.07 1875.96 1065.23 1780.46 972.899C1769.11 961.924 1769.11 944.063 1780.46 933.088C1791.81 922.11 1810.29 922.114 1821.64 933.088C1834.98 945.986 1849.07 957.971 1863.79 969.032C1863.85 969.079 1863.91 969.121 1863.97 969.167C1919.47 1010.81 1984.22 1039.13 2053.95 1051.92C2140.14 1067.74 2228.38 1059.06 2309.15 1026.85C2315.52 1024.31 2318.56 1017.25 2315.93 1011.09C2315.91 1011.04 2315.88 1010.99 2315.85 1010.94C2313.17 1004.89 2305.95 1002.02 2299.63 1004.54C2159.65 1060.38 2002.46 1039.85 1884.25 953.786V886.962C1958.28 936.168 2047.43 963.053 2138 963.053C2228.56 963.053 2317.72 936.168 2391.75 886.962V953.75C2377.81 963.881 2363.24 973.181 2348.11 981.562C2342.17 984.848 2340.09 992.132 2343.41 997.892C2343.44 997.937 2343.46 997.984 2343.48 998.028C2346.91 1003.81 2354.53 1005.81 2360.51 1002.5C2378.16 992.726 2395.09 981.781 2411.19 969.771C2411.62 969.491 2412.03 969.177 2412.41 968.849C2427.12 957.801 2441.14 945.865 2454.36 933.088C2465.71 922.11 2484.18 922.114 2495.54 933.088C2506.89 944.063 2506.89 961.922 2495.54 972.899ZM2138 617.929C2275.87 617.929 2388.4 724.772 2391.67 857.306C2241.43 966.579 2034.57 966.579 1884.33 857.306C1887.6 724.772 2000.14 617.929 2138 617.929Z" fill="#081C1F"/>
<path d="M2000.73 750.576C2007.61 750.576 2013.21 745.163 2013.21 738.511C2013.21 731.859 2007.61 726.446 2000.73 726.446C1993.85 726.446 1988.25 731.859 1988.25 738.511C1988.25 745.163 1993.84 750.576 2000.73 750.576Z" fill="#081C1F"/>
<path d="M2050.64 784.357C2057.52 784.357 2063.12 778.944 2063.12 772.292C2063.12 765.64 2057.52 760.227 2050.64 760.227C2043.76 760.227 2038.16 765.64 2038.16 772.292C2038.16 778.944 2043.76 784.357 2050.64 784.357Z" fill="#081C1F"/>
</g>
<defs>
<clipPath id="clip0_6_2">
<rect width="782" height="756" fill="white" transform="translate(1747 489)"/>
</clipPath>
</defs>
</svg>
