<svg width="4000" height="4000" viewBox="0 0 4000 4000" fill="none" xmlns="http://www.w3.org/2000/svg">
<path d="M2033.25 1054.18C2048.32 1066.56 2059.15 1081.94 2064.85 1099.01H2703.66V1009.46H2064.57C2058.95 1026.09 2048.38 1041.6 2033.25 1054.18Z" fill="#C7BEA8"/>
<path d="M1535.84 931.077C1557.87 899.59 1598.94 880.032 1643.03 880.032C1653.81 880.032 1664.54 881.212 1674.92 883.512C1689.18 840.101 1737.58 807.918 1794.33 807.918C1851.09 807.918 1899.49 840.101 1913.75 883.512C1924.13 881.212 1934.86 880.032 1945.64 880.032C1989.73 880.032 2030.81 899.594 2052.83 931.08C2062.17 944.423 2067.32 958.86 2068.76 973.365H2703.67V905.899C2703.67 626.435 2428.16 399.073 2089.51 399.073C1750.86 399.073 1475.34 626.435 1475.34 905.895V973.361H1519.78C1521.3 958.571 1526.65 944.21 1535.84 931.077Z" fill="#E3D282"/>
<path d="M1794.33 1097.46C1823.21 1097.46 1846.72 1078.07 1846.72 1054.23C1846.72 1030.39 1823.22 1010.99 1794.33 1010.99C1765.45 1010.99 1741.95 1030.39 1741.95 1054.23C1741.95 1078.07 1765.45 1097.46 1794.33 1097.46Z" fill="#AB9E85"/>
<path d="M1555.35 1054.23C1540.32 1041.86 1529.51 1026.5 1523.82 1009.46H1475.34V1099.01H1523.81C1529.5 1081.96 1540.31 1066.61 1555.35 1054.23Z" fill="#C7BEA8"/>
<path d="M2068.89 1135.11C2067.37 1149.9 2062.02 1164.26 2052.82 1177.4C2030.8 1208.88 1989.73 1228.43 1945.63 1228.43C1934.86 1228.43 1924.13 1227.25 1913.75 1224.95C1899.49 1268.37 1851.1 1300.55 1794.35 1300.55H1794.32C1737.56 1300.55 1689.17 1268.37 1674.91 1224.95C1664.53 1227.25 1653.8 1228.43 1643.03 1228.43C1598.93 1228.43 1557.86 1208.87 1535.84 1177.39C1526.65 1164.25 1521.3 1149.89 1519.78 1135.11H1462.98L1303.58 1275.84C1314.87 1287.19 1363.53 1312.85 1513.34 1336.07C1666.74 1359.84 1871.36 1372.93 2089.5 1372.93C2307.64 1372.93 2512.26 1359.84 2665.66 1336.07C2815.47 1312.85 2864.13 1287.19 2875.43 1275.84L2716.03 1135.11H2068.89Z" fill="#E3D282"/>
<path d="M1601.95 1069.72C1580.32 1080.39 1566.31 1098.38 1563.49 1119.07C1561.58 1133.12 1565.12 1147.04 1573.72 1159.35C1587.95 1179.7 1614.51 1192.34 1643.03 1192.34C1656.56 1192.34 1669.99 1189.44 1681.88 1183.98C1685.2 1182.45 1688.87 1181.69 1692.54 1181.69C1696.31 1181.69 1700.09 1182.5 1703.47 1184.11C1710.14 1187.28 1714.29 1193.12 1714.4 1199.47C1715.04 1235.31 1750.9 1264.46 1794.33 1264.46H1794.35C1837.77 1264.46 1873.62 1235.31 1874.27 1199.47C1874.38 1193.12 1878.53 1187.28 1885.2 1184.11C1891.86 1180.93 1900.06 1180.88 1906.78 1183.98C1918.68 1189.45 1932.11 1192.34 1945.64 1192.34C1974.16 1192.34 2000.72 1179.7 2014.96 1159.35C2023.56 1147.06 2027.09 1133.13 2025.18 1119.07C2022.36 1098.38 2008.34 1080.38 1986.72 1069.72C1980.11 1066.47 1976.06 1060.58 1976.06 1054.23C1976.06 1047.88 1980.11 1041.99 1986.72 1038.74C2024 1020.36 2036.67 980.161 2014.96 949.126C2000.72 928.77 1974.15 916.124 1945.63 916.124C1932.11 916.124 1918.67 919.018 1906.78 924.49C1900.05 927.576 1891.86 927.529 1885.19 924.356C1878.53 921.18 1874.37 915.348 1874.26 908.996C1873.62 873.16 1837.76 844.006 1794.33 844.006C1750.9 844.006 1715.04 873.16 1714.4 908.996C1714.29 915.348 1710.13 921.18 1703.47 924.356C1696.8 927.529 1688.61 927.579 1681.88 924.486C1669.99 919.015 1656.56 916.124 1643.03 916.124C1614.51 916.124 1587.95 928.767 1573.71 949.122C1565.11 961.419 1561.58 975.346 1563.49 989.393C1566.31 1010.09 1580.32 1028.08 1601.95 1038.74C1608.55 1042 1612.6 1047.88 1612.6 1054.23C1612.6 1060.58 1608.56 1066.47 1601.95 1069.72ZM1794.33 974.906C1847.33 974.906 1890.45 1010.49 1890.45 1054.23C1890.45 1097.97 1847.34 1133.55 1794.33 1133.55C1741.33 1133.55 1698.21 1097.97 1698.21 1054.23C1698.22 1010.49 1741.33 974.906 1794.33 974.906Z" fill="#D68E7E"/>
<path d="M2747.4 1109.95V905.895C2747.4 606.531 2452.27 362.978 2089.5 362.978C1726.73 362.978 1431.6 606.531 1431.6 905.895V1109.95L1262.9 1258.9C1259.1 1262.24 1257 1266.65 1257 1271.22C1257 1294.38 1281.3 1314.28 1331.29 1332.05C1372.76 1346.79 1431.29 1360.08 1505.26 1371.54C1661.25 1395.7 1868.73 1409.02 2089.5 1409.02C2310.26 1409.02 2517.75 1395.7 2673.73 1371.54C2747.71 1360.07 2806.24 1346.79 2847.7 1332.05C2897.7 1314.27 2922 1294.38 2922 1271.22C2922 1266.65 2919.89 1262.24 2916.1 1258.9L2747.4 1109.95ZM1475.34 905.895C1475.34 626.432 1750.85 399.07 2089.5 399.07C2428.15 399.07 2703.67 626.432 2703.67 905.895V973.361H2068.75C2067.31 958.856 2062.16 944.42 2052.83 931.077C2030.8 899.59 1989.72 880.029 1945.63 880.029C1934.85 880.029 1924.13 881.209 1913.74 883.508C1899.48 840.097 1851.08 807.914 1794.32 807.914C1737.57 807.914 1689.18 840.097 1674.91 883.508C1664.53 881.209 1653.8 880.029 1643.03 880.029C1598.93 880.029 1557.86 899.587 1535.83 931.073C1526.64 944.21 1521.29 958.567 1519.77 973.361H1475.34V905.895ZM2703.66 1009.46V1099.01H2064.85C2059.15 1081.94 2048.32 1066.56 2033.25 1054.18C2048.38 1041.6 2058.95 1026.09 2064.57 1009.45H2703.66V1009.46ZM1601.95 1038.74C1580.33 1028.08 1566.31 1010.09 1563.49 989.393C1561.58 975.343 1565.12 961.419 1573.72 949.122C1587.96 928.767 1614.51 916.124 1643.03 916.124C1656.56 916.124 1669.99 919.018 1681.88 924.486C1688.61 927.579 1696.8 927.529 1703.47 924.356C1710.13 921.18 1714.29 915.348 1714.4 908.996C1715.05 873.16 1750.91 844.006 1794.33 844.006C1837.77 844.006 1873.62 873.16 1874.27 908.996C1874.38 915.348 1878.53 921.18 1885.2 924.356C1891.86 927.529 1900.06 927.579 1906.78 924.49C1918.68 919.015 1932.11 916.124 1945.64 916.124C1974.16 916.124 2000.72 928.77 2014.96 949.126C2036.68 980.161 2024 1020.36 1986.72 1038.74C1980.11 1041.99 1976.07 1047.88 1976.07 1054.23C1976.07 1060.58 1980.11 1066.47 1986.72 1069.72C2008.35 1080.38 2022.36 1098.38 2025.18 1119.07C2027.1 1133.13 2023.56 1147.06 2014.96 1159.35C2000.72 1179.7 1974.17 1192.34 1945.64 1192.34C1932.12 1192.34 1918.68 1189.44 1906.79 1183.98C1900.06 1180.88 1891.87 1180.93 1885.2 1184.11C1878.54 1187.28 1874.38 1193.12 1874.27 1199.47C1873.62 1235.31 1837.77 1264.46 1794.35 1264.46H1794.34C1750.9 1264.46 1715.05 1235.31 1714.41 1199.47C1714.3 1193.12 1710.14 1187.28 1703.48 1184.11C1700.1 1182.5 1696.32 1181.69 1692.54 1181.69C1688.87 1181.69 1685.2 1182.45 1681.89 1183.98C1670 1189.45 1656.56 1192.34 1643.03 1192.34C1614.51 1192.34 1587.96 1179.7 1573.72 1159.35C1565.12 1147.04 1561.59 1133.12 1563.49 1119.07C1566.31 1098.38 1580.33 1080.39 1601.95 1069.72C1608.56 1066.47 1612.61 1060.58 1612.61 1054.23C1612.6 1047.88 1608.56 1042 1601.95 1038.74ZM1475.34 1009.46H1523.82C1529.51 1026.51 1540.31 1041.86 1555.35 1054.23C1540.31 1066.61 1529.5 1081.97 1523.81 1099.01H1475.34V1009.46ZM2665.66 1336.07C2512.26 1359.84 2307.64 1372.93 2089.5 1372.93C1871.36 1372.93 1666.74 1359.84 1513.34 1336.07C1363.53 1312.85 1314.87 1287.19 1303.58 1275.84L1462.98 1135.11H1519.78C1521.3 1149.89 1526.65 1164.25 1535.84 1177.39C1557.86 1208.87 1598.94 1228.43 1643.03 1228.43C1653.81 1228.43 1664.53 1227.25 1674.91 1224.95C1689.18 1268.37 1737.57 1300.55 1794.33 1300.55H1794.35C1851.1 1300.55 1899.49 1268.37 1913.75 1224.95C1924.13 1227.25 1934.87 1228.43 1945.64 1228.43C1989.74 1228.43 2030.81 1208.88 2052.83 1177.4C2062.02 1164.26 2067.38 1149.9 2068.89 1135.11H2716.03L2875.43 1275.84C2864.13 1287.19 2815.47 1312.85 2665.66 1336.07Z" fill="#3F352F"/>
<path d="M1794.33 1133.55C1847.33 1133.55 1890.45 1097.97 1890.45 1054.23C1890.45 1010.49 1847.34 974.906 1794.33 974.906C1741.33 974.906 1698.21 1010.49 1698.21 1054.23C1698.22 1097.97 1741.33 1133.55 1794.33 1133.55ZM1794.33 1011C1823.21 1011 1846.72 1030.39 1846.72 1054.23C1846.72 1078.07 1823.22 1097.47 1794.33 1097.47C1765.45 1097.47 1741.95 1078.07 1741.95 1054.23C1741.95 1030.39 1765.45 1011 1794.33 1011Z" fill="#3F352F"/>
</svg>
