<svg width="4000" height="4000" viewBox="0 0 4000 4000" fill="none" xmlns="http://www.w3.org/2000/svg">
<g clip-path="url(#clip0_6_2)">
<path d="M2211.7 548.721C2211.2 548.603 2210.69 548.513 2210.17 548.452C2207.34 548.132 2204.46 548.671 2201.84 550.009L1926.53 690C1921.75 687.83 1916.73 686.086 1911.37 685.142C1873.62 678.485 1836.71 706.868 1829.43 748.166C1822.15 789.465 1847.12 828.759 1884.87 835.416C1921.56 841.884 1957.19 815.152 1965.88 775.758L2022.87 763.948L1873.76 1057.26L1854.23 1053.82C1812.21 1046.41 1771.29 1077.89 1763.19 1123.85C1755.09 1169.81 1782.77 1213.38 1824.79 1220.79L2343.79 1312.3C2385.8 1319.71 2426.72 1288.24 2434.83 1242.28C2442.93 1196.31 2415.25 1152.74 2373.23 1145.33L2352.54 1141.69L2223.17 560.83C2221.82 554.683 2217.39 549.99 2211.7 548.685L2211.7 548.721Z" fill="#3B322E"/>
<path d="M2197.3 589.256L2319 1135.81L1905.93 1062.97L2062.04 755.894L2134.95 740.807C2143.44 739.148 2149.3 730.35 2148.03 721.158C2147.07 714.154 2142.16 708.692 2135.75 707.49C2133.87 707.129 2131.94 707.151 2130.05 707.552L1966.32 741.425C1964.12 730.94 1959.73 721.364 1953.84 712.999L2197.3 589.214L2197.3 589.256Z" fill="#EA6153"/>
<path d="M1905.48 718.571C1926.74 722.319 1940.38 743.791 1936.28 767.043C1932.18 790.294 1912.02 805.805 1890.76 802.057C1869.51 798.309 1855.86 776.836 1859.96 753.585C1864.06 730.333 1884.23 714.824 1905.48 718.571Z" fill="#EFEFEF"/>
<path d="M1848.35 1087.25C2020.98 1117.88 2194.53 1148.29 2367.34 1178.76C2392.97 1183.28 2409.25 1208.89 2404.3 1236.93C2399.36 1264.97 2375.31 1283.47 2349.68 1278.95L1830.68 1187.43C1805.05 1182.91 1788.78 1157.31 1793.72 1129.27C1798.66 1101.23 1822.71 1082.73 1848.35 1087.25Z" fill="#EFEFEF"/>
<path d="M2197.3 589.223L2178.66 598.714L2297.41 1132L2319 1135.81L2197.3 589.257L2197.3 589.223Z" fill="#BB4E42"/>
<path d="M2114.16 703.684C2112.28 703.353 2110.36 703.339 2108.46 703.746L1964.19 733.589C1965.04 736.141 1965.76 738.752 1966.31 741.428L2122.91 709.017C2120.65 706.204 2117.57 704.323 2114.16 703.676L2114.16 703.684Z" fill="#BB4E42"/>
<path d="M1905.48 718.571C1901.7 717.904 1897.99 718.042 1894.36 718.527C1909.35 726.378 1918.07 744.121 1914.7 763.237C1911.33 782.353 1897.07 796.044 1880.3 798.294C1883.54 800.002 1886.98 801.392 1890.76 802.058C1912.02 805.806 1932.18 790.296 1936.28 767.044C1940.38 743.793 1926.74 722.321 1905.48 718.571Z" fill="#BFBFBF"/>
<path d="M2345.76 1174.96C2371.39 1179.48 2387.66 1205.08 2382.72 1233.12C2377.77 1261.16 2353.73 1279.66 2328.09 1275.14L2349.68 1278.95C2375.31 1283.47 2399.36 1264.97 2404.3 1236.93C2409.25 1208.89 2392.97 1183.28 2367.34 1178.76L2345.76 1174.96Z" fill="#BFBFBF"/>
</g>
<defs>
<clipPath id="clip0_6_2">
<rect width="682" height="746" fill="white" transform="translate(1876.54 481) rotate(10)"/>
</clipPath>
</defs>
</svg>
