<svg width="4000" height="4000" viewBox="0 0 4000 4000" fill="none" xmlns="http://www.w3.org/2000/svg">
<path d="M2270.08 1103.01L2240.2 900.21H1887.8L1857.92 1103.01L1753 1170.85L1757.16 1184.03C1758.12 1187.08 1767.85 1214.54 1812.78 1240.42C1868.51 1272.51 1953.03 1288.79 2064 1288.79C2174.97 1288.79 2259.49 1272.51 2315.22 1240.42C2360.15 1214.54 2369.88 1187.07 2370.84 1184.03L2375 1170.85L2270.08 1103.01Z" fill="#BFA433"/>
<path d="M2270.08 1103.01L2240.2 900.21H2064V1288.79C2174.97 1288.79 2259.49 1272.51 2315.22 1240.42C2360.15 1214.54 2369.88 1187.07 2370.84 1184.03L2375 1170.85L2270.08 1103.01Z" fill="#806D22"/>
<path d="M2270.08 1103.01L2240.2 900.21H1887.8L1857.92 1103.01" fill="#806D22"/>
<path d="M2064 1103.01H2270.08L2240.2 900.21H2064V1103.01Z" fill="#403711"/>
<path d="M2242.9 918.518L2240.2 900.21H2197.36L2064 986.43L1930.64 900.21H1887.8L1885.1 918.52L2064 1034.18L2242.9 918.518Z" fill="#BFA433"/>
<path d="M2064 1034.18L2242.9 918.518L2240.2 900.21H2197.36L2064 986.43V1034.18Z" fill="#806D22"/>
</svg>
