<svg width="4000" height="4000" viewBox="0 0 4000 4000" fill="none" xmlns="http://www.w3.org/2000/svg">
<path d="M2514.45 750.44C2451.23 750.44 2417.37 759.096 2400.4 771.264C2383.43 783.43 2380.35 799.3 2379.44 821.804C2378.63 841.882 2387.93 854.044 2404.12 863.074C2420.32 872.106 2443.53 876.441 2466.45 876.441H2494.21L2471.73 892.729C2469.34 894.464 2460.09 903.305 2450.73 914.017C2441.38 924.729 2431.15 937.804 2423.96 949.509C2420.36 955.361 2417.53 960.887 2415.93 965.309C2414.33 969.732 2414.26 972.941 2414.44 973.647C2414.61 974.353 2413.51 973.739 2415.8 974.27C2418.1 974.8 2423.75 974.793 2432.31 972.7L2432.58 972.633L2432.85 972.583C2516.85 957.446 2559.49 965.096 2582.31 981.449C2605.13 997.801 2604 1022.79 2603.42 1030.14L2603.37 1030.78L2603.23 1031.41C2590.64 1087.67 2578.62 1129.72 2573.92 1157.63C2571.57 1171.59 2571.26 1181.97 2572.68 1187.88C2574.09 1193.78 2575.42 1195.27 2580.84 1196.76C2587.72 1198.66 2593.33 1197.16 2600.16 1192.36C2606.98 1187.56 2614.21 1179.2 2621.09 1169.13C2634.73 1149.16 2646.94 1123.06 2659.13 1104.91C2660.96 1100.86 2664.3 1097.2 2668.38 1095.7C2673.03 1093.98 2677.32 1094.55 2681.15 1095.48C2688.82 1097.36 2696.04 1101.3 2703.27 1104.63C2710.5 1107.96 2717.56 1110.52 2721.97 1110.71C2726.38 1110.9 2727.67 1110.88 2730.4 1105.41C2765.58 1034.77 2763.95 995.217 2761.46 933.803C2761.37 931.679 2761.07 929.358 2760.58 926.89C2760.74 929.052 2760.83 931.236 2760.83 933.438C2760.83 981.31 2721.7 1020.44 2673.83 1020.44C2625.95 1020.44 2586.83 981.31 2586.83 933.438C2586.83 885.568 2625.95 846.438 2673.83 846.438C2693.36 846.438 2711.42 852.955 2725.98 863.916C2714.2 849.543 2699.88 834.946 2683.7 821.266C2637.19 781.941 2575.39 750.439 2514.45 750.439L2514.45 750.44ZM2673.82 876.44C2642.17 876.44 2616.82 901.783 2616.82 933.44C2616.82 965.1 2642.17 990.44 2673.82 990.44C2705.48 990.44 2730.82 965.1 2730.82 933.44C2730.82 901.783 2705.48 876.44 2673.82 876.44ZM2674.45 901.44C2682.94 901.44 2691.08 904.811 2697.08 910.813C2703.08 916.814 2706.45 924.953 2706.45 933.44C2706.45 941.927 2703.08 950.066 2697.08 956.067C2691.08 962.069 2682.94 965.44 2674.45 965.44C2665.96 965.44 2657.82 962.069 2651.82 956.067C2645.82 950.066 2642.45 941.927 2642.45 933.44C2642.45 924.953 2645.82 916.814 2651.82 910.813C2657.82 904.811 2665.96 901.44 2674.45 901.44V901.44ZM2485.75 983.654C2471.32 984.789 2454.85 986.909 2436.05 990.299C2431.29 991.439 2427.04 992.193 2423.13 992.493C2443.36 995.79 2469.41 998.195 2490.32 1003.01C2503.01 1005.93 2513.62 1009.96 2518.79 1014C2521.38 1016.02 2522.52 1017.75 2522.98 1019.28C2523.45 1020.81 2523.54 1022.63 2522.14 1025.99C2510.77 1053.28 2500.93 1071.01 2492.66 1087.39C2484.4 1103.77 2477.69 1119 2473.62 1139.7C2471.47 1150.65 2471.63 1160.1 2474.37 1168.04C2477.11 1175.98 2483.06 1182.42 2490.64 1184.87C2505.82 1189.78 2522.57 1180.85 2537.35 1163.22C2545.3 1153.73 2552.86 1144.7 2559.99 1135.26C2563.65 1118.46 2568.66 1098.68 2574.24 1075.89C2560.73 1107.67 2544.29 1126.93 2523.55 1151.66C2511.31 1166.26 2500.19 1169.04 2496.18 1167.74C2494.18 1167.1 2492.7 1165.96 2491.39 1162.17C2490.08 1158.37 2489.56 1151.94 2491.28 1143.18C2494.97 1124.46 2500.71 1111.4 2508.74 1095.5C2516.76 1079.6 2527.03 1061.05 2538.76 1032.9L2538.76 1032.9V1032.89C2541.37 1026.62 2542 1019.98 2540.21 1014.06C2538.42 1008.14 2534.49 1003.42 2529.87 999.807C2520.61 992.587 2508.16 988.647 2494.36 985.469C2491.55 984.822 2488.67 984.222 2485.76 983.653L2485.75 983.654Z" fill="black"/>
</svg>
