<svg width="4000" height="4000" viewBox="0 0 4000 4000" fill="none" xmlns="http://www.w3.org/2000/svg">
<path d="M2212.07 1101.98C2208.88 1095.9 2203.5 1090.92 2196.76 1087.83C2192.69 1085.59 2188.27 1083.88 2183.63 1082.76C2186.98 1071.95 2182.23 1063.35 2175.56 1056.92C2165.7 1047.5 2155.44 1046.13 2155.44 1046.13C2158.98 1040.21 2160.05 1033.38 2158.41 1026.84C2156.73 1019.71 2151.68 1013.6 2144.5 1010.01C2137.72 1006.48 2129.36 1004.74 2120.79 1003.31C2116.68 1002.66 2099.33 1000.51 2092.13 991.734C2086.33 984.614 2086.16 971.801 2084.58 967.961C2083.01 964.121 2077.19 965.742 2070.96 969.427C2063.67 973.788 2048.58 987.547 2042.76 1001.38C2038.91 1009.89 2037.94 1019.2 2039.96 1028.19C2035.28 1028.86 2030.71 1030.06 2026.38 1031.76C2026.03 1031.76 2025.68 1031.95 2025.3 1032.08C2018.74 1034.48 2004.68 1045.59 2003.43 1062.67C2002.97 1068.71 2003.84 1074.75 2005.99 1080.5C2001.2 1081.6 1996.58 1083.26 1992.29 1085.46C1987.28 1087.35 1982.71 1090.05 1978.84 1093.43C1974.58 1098.08 1971.47 1103.46 1969.76 1109.25C1965.8 1122.01 1967.36 1135.61 1974.14 1147.4C1978.08 1154.1 1983.02 1160.27 1988.88 1165.77C2007.58 1182.73 2039.87 1189.14 2065.44 1192.79C2096.48 1197.3 2128.99 1195.72 2158.04 1185.07C2201.62 1169.21 2213.21 1143.7 2214.92 1136.5C2218.7 1120.58 2214.06 1105.59 2212.07 1101.98V1101.98Z" fill="#885742"/>
<path d="M2143.3 1136.25C2139.86 1137.79 2136.36 1139.18 2132.84 1140.42C2130.48 1141.25 2128.09 1142 2125.69 1142.67C2123.28 1143.37 2120.85 1143.97 2118.4 1144.6C2113.5 1145.68 2108.52 1146.48 2103.48 1146.94C2099.68 1147.31 2095.83 1147.48 2092 1147.48C2081.89 1147.48 2071.83 1146.23 2062.1 1143.79L2058.9 1142.94C2053.55 1141.44 2048.32 1139.61 2043.26 1137.46L2040.22 1136.13C2042.01 1142.6 2045.45 1148.62 2050.27 1153.74C2055.09 1158.85 2061.17 1162.94 2068.05 1165.68C2075.55 1168.74 2083.73 1170.31 2092 1170.27C2100.36 1170.33 2108.62 1168.82 2116.26 1165.81C2123.19 1163.12 2129.3 1159.02 2134.09 1153.84C2138.87 1148.66 2142.19 1142.55 2143.78 1136.02L2143.3 1136.25Z" fill="#35220B"/>
<path d="M2138.35 1130.67C2123.04 1133.05 2107.53 1134.18 2092 1134.09C2076.47 1134.16 2060.96 1133.03 2045.65 1130.67C2044.89 1130.54 2044.1 1130.58 2043.36 1130.78C2042.62 1130.98 2041.95 1131.34 2041.4 1131.82C2040.85 1132.31 2040.45 1132.9 2040.23 1133.56C2040 1134.21 2039.96 1134.9 2040.11 1135.57V1136.06C2056.13 1143.44 2073.93 1147.33 2092 1147.38C2095.83 1147.38 2099.68 1147.21 2103.48 1146.84C2108.52 1146.38 2113.5 1145.59 2118.4 1144.51C2120.85 1143.97 2123.28 1143.37 2125.69 1142.58C2128.09 1141.79 2130.48 1141.15 2132.84 1140.32C2136.38 1139.03 2139.86 1137.64 2143.3 1136.15L2143.78 1135.92L2143.91 1135.4C2144.28 1133.1 2142.47 1130.98 2139.84 1130.65C2139.35 1130.59 2138.84 1130.6 2138.35 1130.67V1130.67Z" fill="white"/>
<path d="M2127.28 1115.02C2142.27 1115.02 2154.41 1104.31 2154.41 1091.09C2154.41 1077.88 2142.27 1067.17 2127.28 1067.17C2112.3 1067.17 2100.16 1077.88 2100.16 1091.09C2100.16 1104.31 2112.3 1115.02 2127.28 1115.02Z" fill="white"/>
<path d="M2127.28 1102.32C2134.21 1102.32 2139.82 1097.3 2139.82 1091.09C2139.82 1084.89 2134.21 1079.86 2127.28 1079.86C2120.36 1079.86 2114.75 1084.89 2114.75 1091.09C2114.75 1097.3 2120.36 1102.32 2127.28 1102.32Z" fill="#35220B"/>
<path d="M2056.72 1115.02C2071.7 1115.02 2083.84 1104.31 2083.84 1091.09C2083.84 1077.88 2071.7 1067.17 2056.72 1067.17C2041.73 1067.17 2029.59 1077.88 2029.59 1091.09C2029.59 1104.31 2041.73 1115.02 2056.72 1115.02Z" fill="white"/>
<path d="M2056.72 1102.32C2063.64 1102.32 2069.25 1097.3 2069.25 1091.09C2069.25 1084.89 2063.64 1079.86 2056.72 1079.86C2049.79 1079.86 2044.18 1084.89 2044.18 1091.09C2044.18 1097.3 2049.79 1102.32 2056.72 1102.32Z" fill="#35220B"/>
</svg>
