<svg width="4000" height="4000" viewBox="0 0 4000 4000" fill="none" xmlns="http://www.w3.org/2000/svg">
<g clip-path="url(#clip0_6_2)">
<g clip-path="url(#clip1_6_2)">
<path d="M2426.88 2654.76H2296.54V2689.86H2426.88V2654.76Z" fill="#A4E869"/>
<path d="M2444.26 2654.76H2279.16C2279.16 2635.37 2294.72 2619.66 2313.92 2619.66H2409.5C2428.71 2619.66 2444.26 2635.37 2444.26 2654.76Z" fill="#88C057"/>
<path d="M2392.12 2593.33V2567H2331.3V2593.33H2336.97C2343.44 2593.33 2348.68 2598.62 2348.68 2605.15V2619.66H2374.75V2605.15C2374.75 2598.62 2379.99 2593.33 2386.45 2593.33H2392.12Z" fill="#BDC3C7"/>
<path d="M2267.58 2882.93H2453.2C2453.18 2877.08 2453.26 2871.23 2453.43 2865.38H2267.36C2267.53 2871.23 2267.62 2877.08 2267.58 2882.93Z" fill="#88C057"/>
<path d="M2266.53 2847.93C2266.72 2847.92 2266.87 2847.83 2267.06 2847.83H2453.73C2453.93 2847.83 2454.08 2847.92 2454.26 2847.93C2454.65 2842.03 2455.13 2836.14 2455.72 2830.28H2265.07C2265.66 2836.15 2266.15 2842.03 2266.53 2847.93Z" fill="#88C057"/>
<path d="M2265.48 2935.59C2265.18 2935.59 2264.93 2935.45 2264.63 2935.41C2264.08 2940.34 2263.52 2945.27 2262.83 2950.15L2262.34 2953.14H2458.32L2457.97 2950.15C2457.27 2945.27 2456.71 2940.34 2456.17 2935.41C2455.87 2935.45 2455.62 2935.59 2455.32 2935.59H2265.48Z" fill="#88C057"/>
<path d="M2267.5 2900.48C2267.4 2900.48 2267.32 2900.43 2267.22 2900.43C2266.99 2906.32 2266.66 2912.18 2266.23 2918.03H2454.58C2454.14 2912.18 2453.81 2906.31 2453.59 2900.43C2453.49 2900.43 2453.41 2900.48 2453.32 2900.48H2267.5Z" fill="#88C057"/>
<path d="M2450.87 2689.86H2267.13C2254.06 2689.86 2244.08 2701.66 2246.11 2714.71L2257.21 2777.93C2257.71 2777.84 2258.17 2777.62 2258.7 2777.62H2461.54C2461.97 2777.62 2462.35 2777.8 2462.77 2777.88L2471.88 2714.71C2473.92 2701.66 2463.94 2689.86 2450.87 2689.86Z" fill="#88C057"/>
<path d="M2260.88 2970.69C2260.37 2970.69 2259.94 2970.49 2259.46 2970.4L2252.94 3009.55C2247.76 3046.25 2277.45 3078.69 2314.05 3075.82C2348.92 3073.09 2379.24 3073.44 2403.91 3075.04C2440.54 3077.42 2470.13 3045.46 2464.94 3008.77L2460.38 2970.49C2460.03 2970.52 2459.73 2970.69 2459.37 2970.69H2260.88Z" fill="#88C057"/>
<path d="M2261.78 2803.95C2262.25 2806.93 2262.61 2809.96 2263.01 2812.96C2263.41 2812.91 2263.77 2812.72 2264.19 2812.72H2456.62C2457.04 2812.72 2457.39 2812.91 2457.79 2812.96C2458.2 2809.96 2458.56 2806.93 2459.03 2803.95L2460.3 2795.17H2260.26L2261.78 2803.95Z" fill="#88C057"/>
<path d="M2258.7 2777.62C2258.17 2777.62 2257.71 2777.83 2257.22 2777.93L2260.24 2795.17H2460.28L2462.77 2777.88C2462.35 2777.8 2461.98 2777.62 2461.55 2777.62H2258.7Z" fill="#A4E869"/>
<path d="M2264.19 2812.72C2263.77 2812.72 2263.41 2812.91 2263.02 2812.96C2263.8 2818.7 2264.49 2824.47 2265.07 2830.28H2455.73C2456.32 2824.47 2457 2818.71 2457.78 2812.96C2457.38 2812.91 2457.03 2812.72 2456.61 2812.72H2264.19Z" fill="#A4E869"/>
<path d="M2267.06 2847.83C2266.87 2847.83 2266.72 2847.92 2266.53 2847.93C2266.91 2853.73 2267.19 2859.55 2267.36 2865.38H2453.44C2453.61 2859.55 2453.89 2853.74 2454.26 2847.93C2454.08 2847.92 2453.93 2847.83 2453.73 2847.83H2267.06Z" fill="#A4E869"/>
<path d="M2267.21 2900.43C2267.31 2900.43 2267.39 2900.48 2267.49 2900.48H2453.31C2453.4 2900.48 2453.48 2900.43 2453.58 2900.43C2453.35 2894.6 2453.23 2888.78 2453.2 2882.93H2267.58C2267.57 2888.77 2267.45 2894.6 2267.21 2900.43Z" fill="#A4E869"/>
<path d="M2264.64 2935.41C2264.93 2935.44 2265.19 2935.59 2265.49 2935.59H2455.32C2455.63 2935.59 2455.88 2935.45 2456.18 2935.41C2455.54 2929.64 2455.02 2923.85 2454.59 2918.03H2266.23C2265.79 2923.85 2265.27 2929.64 2264.64 2935.41Z" fill="#A4E869"/>
<path d="M2259.46 2970.4C2259.94 2970.49 2260.37 2970.69 2260.88 2970.69H2459.37C2459.73 2970.69 2460.03 2970.52 2460.39 2970.48L2458.32 2953.14H2262.34L2259.46 2970.4Z" fill="#A4E869"/>
</g>
<path d="M2430.6 2979.89C2373.78 2979.94 2337.61 2911.78 2372.01 2864.62C2356.09 2819.41 2390.09 2769.23 2438.67 2768.07C2494.67 2766.73 2527.03 2826.57 2521.17 2877.2C2515.69 2924.51 2483.64 2979.85 2430.6 2979.89V2979.89Z" fill="#F7C394" stroke="#333333" stroke-width="5" stroke-miterlimit="10"/>
<path d="M2521.17 2877.2C2514.39 2935.77 2466.8 3004 2395.8 2971C2464.62 2962.2 2512.8 2845.5 2478.91 2779.16C2484.3 2783 2492.8 2787.5 2506.51 2806.77C2518.8 2828.5 2524.21 2852.97 2521.17 2877.2Z" fill="black" fill-opacity="0.1"/>
</g>
<defs>
<clipPath id="clip0_6_2">
<rect width="4000" height="4000" fill="white"/>
</clipPath>
<clipPath id="clip1_6_2">
<rect width="504" height="509" fill="white" transform="translate(2107 2567)"/>
</clipPath>
</defs>
</svg>
