<svg width="4000" height="4000" viewBox="0 0 4000 4000" fill="none" xmlns="http://www.w3.org/2000/svg">
<g clip-path="url(#clip0_6_2)">
<g clip-path="url(#clip1_6_2)">
<path d="M2475.1 3068.8H2242.9C2227.88 3068.8 2215.7 3056.63 2215.7 3041.61V2995.58C2215.7 2980.57 2227.88 2968.39 2242.9 2968.39H2475.1C2490.12 2968.39 2502.3 2980.57 2502.3 2995.58V3041.61C2502.3 3056.63 2490.12 3068.8 2475.1 3068.8Z" fill="#94D1EA"/>
<path d="M2475.1 2968.39H2242.9C2227.88 2968.39 2215.7 2956.21 2215.7 2941.19V2895.17C2215.7 2880.15 2227.88 2867.98 2242.9 2867.98H2475.1C2490.12 2867.98 2502.3 2880.15 2502.3 2895.17V2941.19C2502.3 2956.21 2490.12 2968.39 2475.1 2968.39Z" fill="#94D1EA"/>
<path d="M2475.1 2867.98H2242.9C2227.88 2867.98 2215.7 2855.8 2215.7 2840.78V2794.76C2215.7 2779.74 2227.88 2767.56 2242.9 2767.56H2475.1C2490.12 2767.56 2502.3 2779.74 2502.3 2794.76V2840.78C2502.3 2855.8 2490.12 2867.98 2475.1 2867.98Z" fill="#94D1EA"/>
<path d="M2475.1 2767.56H2242.9C2227.88 2767.56 2215.7 2755.39 2215.7 2740.37V2694.35C2215.7 2679.33 2227.88 2667.15 2242.9 2667.15H2475.1C2490.12 2667.15 2502.3 2679.33 2502.3 2694.35V2740.37C2502.3 2755.39 2490.12 2767.56 2475.1 2767.56Z" fill="#94D1EA"/>
<path d="M2410.25 2620.09H2307.75V2667.16H2410.25V2620.09Z" fill="#EAE8E8"/>
<path d="M2423.85 2620.08H2294.15V2591.32C2294.15 2583.52 2300.47 2577.2 2308.27 2577.2H2409.73C2417.53 2577.2 2423.85 2583.52 2423.85 2591.32V2620.08H2423.85Z" fill="#FFBA7A"/>
<path d="M2512.5 2740.37V2694.35C2512.5 2673.73 2495.72 2656.95 2475.1 2656.95H2420.45V2630.28H2423.85C2429.48 2630.28 2434.05 2625.72 2434.05 2620.08V2591.32C2434.05 2577.91 2423.14 2567 2409.73 2567H2308.27C2294.86 2567 2283.95 2577.91 2283.95 2591.32V2620.08C2283.95 2625.72 2288.52 2630.28 2294.15 2630.28H2297.55V2656.95H2242.9C2222.28 2656.95 2205.5 2673.73 2205.5 2694.35V2740.37C2205.5 2751.08 2210.03 2760.74 2217.27 2767.56C2210.03 2774.39 2205.5 2784.05 2205.5 2794.76V2840.78C2205.5 2851.49 2210.03 2861.15 2217.27 2867.98C2210.03 2874.8 2205.5 2884.46 2205.5 2895.17V2941.19C2205.5 2951.9 2210.03 2961.56 2217.27 2968.39C2210.03 2975.21 2205.5 2984.87 2205.5 2995.58V3041.6C2205.5 3062.22 2222.28 3079 2242.9 3079H2475.1C2495.72 3079 2512.49 3062.22 2512.49 3041.6V2995.58C2512.49 2984.87 2507.96 2975.21 2500.73 2968.39C2507.96 2961.56 2512.49 2951.9 2512.49 2941.19V2895.17C2512.49 2884.46 2507.96 2874.8 2500.73 2867.98C2507.96 2861.15 2512.49 2851.49 2512.49 2840.78V2794.76C2512.49 2784.05 2507.96 2774.39 2500.73 2767.56C2507.97 2760.74 2512.5 2751.08 2512.5 2740.37ZM2304.35 2609.88V2591.32C2304.35 2589.16 2306.11 2587.4 2308.27 2587.4H2409.73C2411.89 2587.4 2413.65 2589.16 2413.65 2591.32V2609.88C2413.65 2609.88 2304.35 2609.88 2304.35 2609.88ZM2317.95 2630.28H2400.05V2656.95H2317.95V2630.28ZM2492.1 2995.58V3041.61C2492.1 3050.98 2484.47 3058.6 2475.1 3058.6H2242.9C2233.53 3058.6 2225.9 3050.98 2225.9 3041.61V2995.58C2225.9 2986.21 2233.53 2978.59 2242.9 2978.59H2475.1C2484.47 2978.59 2492.1 2986.21 2492.1 2995.58ZM2492.1 2895.17V2941.19C2492.1 2950.57 2484.47 2958.19 2475.1 2958.19H2242.9C2233.53 2958.19 2225.9 2950.57 2225.9 2941.19V2895.17C2225.9 2885.8 2233.53 2878.18 2242.9 2878.18H2475.1C2484.47 2878.18 2492.1 2885.8 2492.1 2895.17ZM2492.1 2794.76V2840.78C2492.1 2850.15 2484.47 2857.78 2475.1 2857.78H2242.9C2233.53 2857.78 2225.9 2850.15 2225.9 2840.78V2794.76C2225.9 2785.39 2233.53 2777.76 2242.9 2777.76H2475.1C2484.47 2777.76 2492.1 2785.39 2492.1 2794.76ZM2475.1 2677.35C2484.47 2677.35 2492.1 2684.98 2492.1 2694.35V2740.37C2492.1 2749.74 2484.47 2757.36 2475.1 2757.36H2242.9C2233.53 2757.36 2225.9 2749.74 2225.9 2740.37V2694.35C2225.9 2684.98 2233.53 2677.35 2242.9 2677.35H2475.1V2677.35Z" fill="#5E282D"/>
<path d="M2320.3 2726.11H2247.08C2241.45 2726.11 2236.88 2730.67 2236.88 2736.31C2236.88 2741.94 2241.45 2746.51 2247.08 2746.51H2320.3C2325.93 2746.51 2330.5 2741.94 2330.5 2736.31C2330.5 2730.67 2325.93 2726.11 2320.3 2726.11Z" fill="#5E282D"/>
<path d="M2357.95 2726.11H2351.68C2346.05 2726.11 2341.48 2730.67 2341.48 2736.31C2341.48 2741.94 2346.05 2746.51 2351.68 2746.51H2357.95C2363.59 2746.51 2368.15 2741.94 2368.15 2736.31C2368.15 2730.67 2363.59 2726.11 2357.95 2726.11Z" fill="#5E282D"/>
</g>
<path d="M2430.6 2979.89C2373.78 2979.94 2337.61 2911.78 2372.01 2864.62C2356.09 2819.41 2390.09 2769.23 2438.67 2768.07C2494.67 2766.73 2527.03 2826.57 2521.17 2877.2C2515.69 2924.51 2483.64 2979.85 2430.6 2979.89V2979.89Z" fill="#F7C394" stroke="#333333" stroke-width="5" stroke-miterlimit="10"/>
<path d="M2521.17 2877.2C2514.39 2935.77 2466.8 3004 2395.8 2971C2464.62 2962.2 2512.8 2845.5 2478.91 2779.16C2484.3 2783 2492.8 2787.5 2506.51 2806.77C2518.8 2828.5 2524.21 2852.97 2521.17 2877.2Z" fill="black" fill-opacity="0.1"/>
</g>
<defs>
<clipPath id="clip0_6_2">
<rect width="4000" height="4000" fill="white"/>
</clipPath>
<clipPath id="clip1_6_2">
<rect width="511.999" height="511.999" fill="white" transform="translate(2103 2567)"/>
</clipPath>
</defs>
</svg>
