<svg width="4000" height="4000" viewBox="0 0 4000 4000" fill="none" xmlns="http://www.w3.org/2000/svg">
<g clip-path="url(#clip0_6_2)">
<path d="M2380.67 2621.52L2418.01 2695.5L2331 2819.28L2243.99 2695.5L2281.33 2621.52V2576.5H2380.67V2621.52Z" fill="#C8FEFF"/>
<path d="M2442.79 2767.09V3043.49C2442.79 3055.87 2432.66 3066 2420.28 3066H2241.72C2229.34 3066 2219.22 3055.87 2219.22 3043.49V2767.09C2219.22 2754.71 2223.77 2735.55 2229.35 2724.5L2243.99 2695.5C2265.75 2695.5 2265.75 2711.76 2287.5 2711.76C2309.25 2711.76 2309.25 2695.5 2331 2695.5C2352.75 2695.5 2352.75 2711.76 2374.5 2711.76C2396.25 2711.76 2396.26 2695.5 2418.01 2695.5L2432.65 2724.5C2438.23 2735.55 2442.79 2754.71 2442.79 2767.09Z" fill="#E8D6BD"/>
<path d="M2252.97 3040.68C2248.31 3040.68 2244.53 3036.9 2244.53 3032.24V2998.48C2244.53 2993.82 2248.31 2990.04 2252.97 2990.04C2257.63 2990.04 2261.41 2993.82 2261.41 2998.48V3032.24C2261.41 3036.9 2257.63 3040.68 2252.97 3040.68Z" fill="white"/>
<path d="M2252.97 2973.16C2248.31 2973.16 2244.53 2969.39 2244.53 2964.72V2767.1C2244.53 2758.78 2248.21 2743.33 2251.96 2735.91C2254.06 2731.75 2259.13 2730.08 2263.29 2732.18C2267.45 2734.28 2269.13 2739.35 2267.02 2743.52C2264.45 2748.61 2261.41 2761.39 2261.41 2767.1V2964.73C2261.41 2969.39 2257.63 2973.16 2252.97 2973.16Z" fill="white"/>
<path d="M2346.91 2629.96H2315.09C2310.43 2629.96 2306.65 2626.18 2306.65 2621.52C2306.65 2616.85 2310.43 2613.08 2315.09 2613.08H2346.91C2351.57 2613.08 2355.35 2616.85 2355.35 2621.52C2355.35 2626.18 2351.57 2629.96 2346.91 2629.96Z" fill="white"/>
<path d="M2386.3 2554H2275.7V2587.76H2386.3V2554Z" fill="#51C0C2"/>
<path d="M2430.6 2979.89C2373.78 2979.94 2337.61 2911.78 2372.01 2864.62C2356.09 2819.41 2390.09 2769.23 2438.67 2768.07C2494.67 2766.73 2527.03 2826.57 2521.17 2877.2C2515.69 2924.51 2483.64 2979.85 2430.6 2979.89V2979.89Z" fill="#F7C394" stroke="#333333" stroke-width="5" stroke-miterlimit="10"/>
<path d="M2521.17 2877.2C2514.39 2935.77 2466.8 3004 2395.8 2971C2464.62 2962.2 2512.8 2845.5 2478.91 2779.16C2484.3 2783 2492.8 2787.5 2506.51 2806.77C2518.8 2828.5 2524.21 2852.97 2521.17 2877.2Z" fill="black" fill-opacity="0.1"/>
</g>
<defs>
<clipPath id="clip0_6_2">
<rect width="4000" height="4000" fill="white"/>
</clipPath>
</defs>
</svg>
