<svg width="4000" height="4000" viewBox="0 0 4000 4000" fill="none" xmlns="http://www.w3.org/2000/svg">
<g clip-path="url(#clip0_6_2)">
<path d="M2446.23 2891.25V2808.46C2446.23 2778.5 2447.22 2766.85 2425.91 2745.55C2402.54 2722.17 2411.07 2688.96 2411.07 2688.96H2410.17H2310.84H2309.94C2309.94 2688.96 2318.12 2722.17 2294.74 2745.55C2272.1 2768.19 2272.89 2778.5 2272.89 2808.46V3001.95C2272.89 3015.6 2283.95 3026.67 2297.61 3026.67H2421.52C2435.17 3026.67 2446.24 3015.6 2446.24 3001.95L2446.23 2891.25Z" fill="#58595B"/>
<path d="M2446.23 2808.46C2446.23 2778.5 2447.22 2766.85 2425.92 2745.55C2402.54 2722.17 2411.07 2688.96 2411.07 2688.96H2410.17H2384.48C2384.48 2688.96 2381.73 2717.56 2399.33 2745.55C2410.32 2763.04 2406.54 2778.5 2406.54 2808.46V2891.25L2406.55 3001.95C2406.55 3015.6 2395.48 3026.67 2381.82 3026.67H2421.52C2435.17 3026.67 2446.24 3015.6 2446.24 3001.95L2446.23 2891.25V2808.46H2446.23Z" fill="#414042"/>
<path d="M2412.09 2689.54H2307.53C2299.04 2689.54 2292.32 2682.36 2292.89 2673.89L2294.77 2645.72C2294.77 2638.99 2301.57 2633.53 2309.95 2633.53H2409.44C2417.83 2633.53 2424.63 2638.99 2424.63 2645.72L2426.73 2673.77C2427.36 2682.28 2420.63 2689.54 2412.09 2689.54Z" fill="#AE7E0F"/>
<path d="M2394.52 2633.76H2325.23L2326.81 2626.87C2329.25 2616.24 2330.48 2605.37 2330.48 2594.47V2594.51C2330.48 2578.69 2343.31 2531.52 2359.13 2531.52C2374.95 2531.52 2387.77 2575.83 2387.77 2591.65C2387.77 2604.4 2389.6 2617.09 2393.21 2629.32L2394.52 2633.76Z" fill="#AE7E0F"/>
<path d="M2426.73 2673.77L2424.63 2645.72C2424.63 2638.99 2417.83 2633.53 2409.44 2633.53H2394.45L2392.78 2627.86C2389.31 2616.08 2387.81 2603.84 2387.77 2591.56C2387.73 2575.67 2374.92 2531.52 2359.13 2531.52C2367.63 2558.56 2368.38 2579.29 2368.38 2591.65C2368.38 2604.4 2370.21 2617.08 2373.81 2629.32L2375.05 2633.53H2371.62H2309.95C2301.98 2633.53 2295.45 2638.47 2294.83 2644.74C2297.64 2641.38 2302.51 2639.15 2308.07 2639.15H2350.98C2370.66 2639.15 2387.11 2654.16 2388.9 2673.76C2388.9 2673.77 2388.9 2673.77 2388.9 2673.77C2389.54 2682.28 2382.81 2689.54 2374.27 2689.54H2412.1C2420.63 2689.54 2427.36 2682.28 2426.73 2673.77Z" fill="#9B6700"/>
<path d="M2394.3 2891.48C2394.3 2909.83 2379.42 2924.7 2361.07 2924.7C2342.73 2924.7 2327.85 2909.83 2327.85 2891.48C2327.85 2877.07 2348.35 2851.62 2357.14 2841.37C2359.21 2838.96 2362.94 2838.96 2365.01 2841.37C2373.8 2851.63 2394.3 2877.07 2394.3 2891.48Z" fill="#AE7E0F"/>
<path d="M2354.3 2831.11C2348.39 2837.56 2318.87 2870.8 2318.87 2891.38C2318.87 2914.35 2337.55 2933.03 2360.51 2933.03C2383.48 2933.03 2402.16 2914.35 2402.16 2891.38C2402.16 2870.8 2372.64 2837.56 2366.73 2831.11C2365.13 2829.37 2362.88 2828.38 2360.51 2828.38C2358.15 2828.38 2355.9 2829.37 2354.3 2831.11ZM2385.31 2891.38C2385.31 2905.05 2374.19 2916.18 2360.51 2916.18C2346.84 2916.18 2335.72 2905.05 2335.72 2891.38C2335.72 2882.6 2348.71 2863.72 2360.51 2849.61C2372.31 2863.72 2385.31 2882.6 2385.31 2891.38Z" fill="black"/>
<path d="M2454.1 2804.57C2454.14 2776.45 2454.16 2762.34 2431.31 2739.49C2428.02 2736.2 2422.69 2736.2 2419.4 2739.49C2416.11 2742.78 2416.11 2748.12 2419.4 2751.41C2437.3 2769.31 2437.29 2778.19 2437.25 2804.54L2437.25 2808.36L2437.25 3001.85C2437.25 3006.2 2435.56 3010.29 2432.48 3013.37C2429.41 3016.45 2425.31 3018.14 2420.96 3018.14H2297.05C2288.06 3018.14 2280.75 3010.83 2280.75 3001.85V2808.37L2280.75 2805.45C2280.73 2778.17 2280.72 2770.83 2300.15 2751.41C2318.19 2733.36 2319.82 2710.85 2318.9 2697.87H2398.67V2712.13C2398.67 2716.8 2402.45 2720.58 2407.12 2720.58C2411.79 2720.58 2415.57 2716.8 2415.57 2712.13V2697.48C2420.48 2696.61 2425.04 2694.18 2428.47 2690.48C2432.82 2685.78 2435.05 2679.43 2434.57 2673.04L2432.49 2645.26C2432.26 2634.06 2421.76 2625.01 2408.88 2625.01H2400.23C2397.2 2614.11 2395.64 2602.87 2395.64 2591.55C2395.64 2581.85 2391.95 2565.77 2386.66 2552.44C2378.89 2532.91 2369.44 2523 2358.56 2523C2333.47 2523 2321.55 2580.01 2321.49 2594.31C2321.49 2594.33 2321.49 2594.35 2321.49 2594.37C2321.49 2604.63 2320.33 2614.89 2318.04 2624.89L2318.01 2625H2309.39C2296.5 2625 2285.98 2634.08 2285.78 2645.3L2283.92 2673.23C2283.49 2679.58 2285.75 2685.89 2290.1 2690.55C2293.29 2693.96 2297.46 2696.29 2301.96 2697.3C2302.92 2706.57 2302.61 2725.11 2288.22 2739.49C2263.86 2763.86 2263.87 2776.9 2263.9 2805.46L2263.9 3001.85C2263.9 3020.13 2278.77 3035 2297.05 3035H2420.95C2429.81 3035 2438.13 3031.55 2444.39 3025.29C2450.65 3019.03 2454.1 3010.7 2454.1 3001.85L2454.1 2808.36L2454.1 2804.57ZM2338.34 2594.43C2338.34 2594.42 2338.34 2594.42 2338.34 2594.41C2338.34 2588.03 2341.12 2573.82 2345.78 2561.08C2351.93 2544.22 2357.47 2540.04 2358.56 2539.85C2359.89 2539.85 2365.29 2544.31 2370.99 2558.67C2375.87 2570.95 2378.79 2585.03 2378.79 2591.55C2378.79 2602.84 2380.13 2614.06 2382.79 2625H2335.25C2337.3 2614.95 2338.34 2604.69 2338.34 2594.43ZM2300.73 2674.35L2302.61 2646.19C2302.63 2646 2302.63 2645.81 2302.63 2645.62C2302.63 2644.12 2305.33 2641.86 2309.39 2641.86H2322.73C2323.36 2642.01 2324.01 2642.09 2324.67 2642.09H2393.96C2394.62 2642.09 2395.28 2642.01 2395.91 2641.86H2408.88C2412.94 2641.86 2415.64 2644.12 2415.64 2645.62C2415.64 2645.83 2415.65 2646.04 2415.66 2646.25L2417.76 2674.3C2417.9 2676.05 2417.31 2677.73 2416.11 2679.02C2414.92 2680.3 2413.29 2681.01 2411.53 2681.01H2409.44H2309.21H2306.97C2305.22 2681.01 2303.6 2680.31 2302.41 2679.03C2301.21 2677.76 2300.62 2676.09 2300.73 2674.35Z" fill="black"/>
<path d="M2430.6 2979.89C2373.78 2979.94 2337.61 2911.78 2372.01 2864.62C2356.09 2819.41 2390.09 2769.23 2438.67 2768.07C2494.67 2766.73 2527.03 2826.57 2521.17 2877.2C2515.69 2924.51 2483.64 2979.85 2430.6 2979.89V2979.89Z" fill="#F7C394" stroke="#333333" stroke-width="5" stroke-miterlimit="10"/>
<path d="M2521.17 2877.2C2514.39 2935.77 2466.8 3004 2395.8 2971C2464.62 2962.2 2512.8 2845.5 2478.91 2779.16C2484.3 2783 2492.8 2787.5 2506.51 2806.77C2518.8 2828.5 2524.21 2852.97 2521.17 2877.2Z" fill="black" fill-opacity="0.1"/>
</g>
<defs>
<clipPath id="clip0_6_2">
<rect width="4000" height="4000" fill="white"/>
</clipPath>
</defs>
</svg>
