<svg width="4000" height="4000" viewBox="0 0 4000 4000" fill="none" xmlns="http://www.w3.org/2000/svg">
<g clip-path="url(#clip0_6_2)">
<g clip-path="url(#clip1_6_2)">
<path d="M2048.48 2699.85C2048.48 2699.85 2014.9 2728.39 2009.03 2765.32C2003.99 2795.53 2040.92 2814 2062.75 2792.18C2073.66 2781.27 2075.34 2763.64 2065.26 2751.05C2056.03 2737.62 2046.8 2719.99 2048.48 2699.85Z" fill="#54C9FD"/>
<path d="M2145 2700.69C2145 2700.69 2111.43 2729.23 2105.55 2766.16C2100.52 2796.37 2124.86 2814.84 2146.68 2793.02C2157.59 2782.11 2159.27 2764.48 2149.2 2751.89C2139.97 2739.3 2142.48 2720.83 2145 2700.69Z" fill="#54C9FD"/>
<path d="M2165.99 2751.05C2155.91 2737.62 2146.68 2719.99 2148.36 2699.85C2148.36 2699.85 2146.68 2701.53 2143.32 2704.89C2141.64 2723.35 2139.97 2740.14 2148.36 2752.73C2157.59 2765.32 2156.75 2782.94 2145.84 2793.86C2142.48 2797.21 2138.29 2799.73 2134.93 2801.41C2144.16 2803.09 2155.07 2800.57 2162.63 2793.02C2174.38 2781.27 2176.06 2763.64 2165.99 2751.05Z" fill="#33A9F8"/>
<path d="M2065.26 2751.05C2055.19 2737.62 2045.96 2719.99 2047.64 2699.85C2047.64 2699.85 2045.96 2701.53 2042.6 2704.89C2040.92 2723.35 2039.24 2740.14 2047.64 2752.73C2056.87 2765.32 2056.03 2782.94 2045.12 2793.86C2041.76 2797.21 2037.57 2799.73 2034.21 2801.41C2043.44 2803.09 2054.35 2800.57 2061.91 2793.02C2073.66 2781.27 2075.34 2763.64 2065.26 2751.05Z" fill="#33A9F8"/>
<path d="M2086.25 2825.75C2086.25 2825.75 2052.67 2854.29 2046.8 2891.22C2041.76 2921.44 2078.69 2939.9 2100.52 2918.08C2111.43 2907.17 2113.11 2889.54 2103.04 2876.95C2093.8 2863.52 2084.57 2845.89 2086.25 2825.75Z" fill="#54C9FD"/>
<path d="M2103.04 2876.95C2092.96 2863.52 2083.73 2845.89 2085.41 2825.75C2085.41 2825.75 2083.73 2827.43 2080.37 2830.79C2078.69 2849.25 2077.02 2866.04 2085.41 2878.63C2094.64 2891.22 2093.8 2908.85 2082.89 2919.76C2079.53 2923.11 2075.34 2925.63 2071.98 2927.31C2081.21 2928.99 2092.12 2926.47 2099.68 2918.92C2111.43 2907.17 2112.27 2889.54 2103.04 2876.95Z" fill="#33A9F8"/>
<path d="M2290.21 2650.33H2348.96V2566.39H2290.21V2650.33Z" fill="#FCC309"/>
<path d="M2348.96 2650.33H2374.14V2566.39H2348.96V2650.33Z" fill="#FD9808"/>
<path d="M2374.14 2566.39V2650.33H2399.32V2583.18C2399.32 2573.95 2391.77 2566.39 2382.54 2566.39C2382.54 2566.39 2374.14 2566.39 2374.14 2566.39Z" fill="#FD9808"/>
<path d="M2124.86 2658.72C2113.11 2658.72 2105.55 2647.81 2108.91 2637.74C2118.14 2606.68 2147.52 2583.18 2181.09 2583.18H2290.21V2616.75H2181.09C2162.63 2616.75 2146.68 2629.34 2140.81 2646.13C2139.13 2653.68 2132.41 2658.72 2124.86 2658.72Z" fill="#FCC309"/>
<path d="M2256.64 2683.9H2382.54V2650.33H2256.64V2683.9Z" fill="#FFDD09"/>
<path d="M2382.54 2683.9H2407.72V2650.33H2382.54V2683.9Z" fill="#FD9808"/>
<path d="M2407.72 2650.33V2683.9H2432.9V2663.76C2432.9 2656.2 2427.02 2650.33 2419.47 2650.33H2407.72Z" fill="#FFDD09"/>
<path d="M2214.67 2994.46H2449.68V2759.44H2214.67V2994.46Z" fill="#FFDD09"/>
<path d="M2407.72 3053.21H2231.46C2222.22 3053.21 2214.67 3045.66 2214.67 3036.43V2700.69C2214.67 2691.46 2222.22 2683.9 2231.46 2683.9H2407.72C2416.95 2683.9 2424.5 2691.46 2424.5 2700.69V3036.43C2424.5 3045.66 2416.95 3053.21 2407.72 3053.21Z" fill="#FFDD09"/>
<path d="M2432.9 2683.9H2407.72C2416.95 2683.9 2424.5 2691.46 2424.5 2700.69V3036.43C2424.5 3045.66 2416.95 3053.21 2407.72 3053.21H2432.9C2442.13 3053.21 2449.68 3045.66 2449.68 3036.43V2700.69C2449.68 2691.46 2442.13 2683.9 2432.9 2683.9Z" fill="#FD9808"/>
<path d="M2458.08 2683.9H2432.9C2442.13 2683.9 2449.68 2691.46 2449.68 2700.69V3036.43C2449.68 3045.66 2442.13 3053.21 2432.9 3053.21H2458.08C2467.31 3053.21 2474.86 3045.66 2474.86 3036.43V2700.69C2474.86 2691.46 2467.31 2683.9 2458.08 2683.9Z" fill="#FFDD09"/>
<path d="M2307 2876.95C2307 2812.32 2279.3 2759.44 2214.67 2759.44V2994.46C2279.3 2994.46 2307 2942.42 2307 2876.95Z" fill="#54C9FD"/>
<path d="M2214.67 2759.44C2279.3 2759.44 2307 2812.32 2307 2876.95C2307 2941.58 2279.3 2994.46 2214.67 2994.46C2279.3 2994.46 2332.18 2941.58 2332.18 2876.95C2332.18 2812.32 2279.3 2759.44 2214.67 2759.44Z" fill="#33A9F8"/>
<path d="M2231.46 3053.21H2256.64C2247.4 3053.21 2239.85 3045.66 2239.85 3036.43V2700.69C2239.85 2691.46 2247.4 2683.9 2256.64 2683.9H2231.46C2222.22 2683.9 2214.67 2691.46 2214.67 2700.69V3036.43C2214.67 3045.66 2222.22 3053.21 2231.46 3053.21Z" fill="white"/>
<path d="M2307 2759.44H2357.36V2683.9H2307V2759.44Z" fill="#54C9FD"/>
<path d="M2432.9 3061.61H2231.46C2217.19 3061.61 2206.28 3050.7 2206.28 3036.43V2700.69C2206.28 2686.42 2217.19 2675.51 2231.46 2675.51H2432.9C2447.17 2675.51 2458.08 2686.42 2458.08 2700.69V3036.43C2458.08 3050.7 2447.17 3061.61 2432.9 3061.61ZM2231.46 2692.3C2226.42 2692.3 2223.06 2695.65 2223.06 2700.69V3036.43C2223.06 3041.46 2226.42 3044.82 2231.46 3044.82H2432.9C2437.93 3044.82 2441.29 3041.46 2441.29 3036.43V2700.69C2441.29 2695.65 2437.93 2692.3 2432.9 2692.3L2231.46 2692.3Z" fill="black"/>
<path d="M2458.08 3002.85H2206.27V2751.05H2458.08V3002.85H2458.08ZM2223.06 2986.07H2441.29V2767.84H2223.06V2986.07Z" fill="black"/>
<path d="M2214.67 3002.85H2206.28V2751.05H2214.67C2284.33 2751.05 2340.57 2807.29 2340.57 2876.95C2340.57 2946.62 2284.33 3002.85 2214.67 3002.85ZM2223.06 2768.68V2986.07C2279.3 2981.87 2323.78 2934.87 2323.78 2876.95C2323.78 2819.04 2279.3 2772.87 2223.06 2768.68Z" fill="black"/>
<path d="M2416.11 2692.3H2248.24V2641.93H2416.11V2692.3ZM2265.03 2675.51H2399.32V2658.72H2265.03V2675.51Z" fill="black"/>
<path d="M2382.54 2658.72H2281.82V2558H2382.54V2658.72H2382.54ZM2298.6 2641.93H2365.75V2574.79H2298.6V2641.93Z" fill="black"/>
<path d="M2124.86 2667.12C2116.47 2667.12 2108.91 2663.76 2104.71 2657.04C2099.68 2650.33 2098.84 2642.77 2100.52 2635.22C2110.59 2599.97 2144.16 2574.79 2181.09 2574.79H2298.6V2625.15H2181.09C2165.99 2625.15 2153.4 2634.38 2149.2 2648.65C2145.84 2659.56 2135.77 2667.12 2124.86 2667.12ZM2181.09 2591.57C2151.72 2591.57 2124.86 2611.72 2116.46 2639.42C2115.63 2641.94 2116.46 2644.45 2118.14 2646.97C2119.82 2649.49 2122.34 2650.33 2124.86 2650.33C2128.22 2650.33 2131.57 2647.81 2133.25 2643.61C2139.97 2622.63 2159.27 2608.36 2181.09 2608.36H2281.82V2591.57H2181.09Z" fill="black"/>
<path d="M2365.75 2767.84H2298.6V2675.51H2365.75V2767.84ZM2315.39 2751.05H2348.96V2692.3H2315.39V2751.05Z" fill="black"/>
<path d="M2040.92 2809.8C2035.05 2809.8 2028.33 2808.12 2022.46 2805.61C2006.51 2797.21 1998.12 2781.26 2001.47 2763.64C2007.35 2724.19 2041.76 2694.81 2043.44 2693.13C2045.96 2690.62 2049.32 2690.62 2052.67 2692.29C2056.03 2693.97 2057.71 2697.33 2056.87 2700.69C2055.19 2718.31 2064.42 2735.1 2072.82 2746.01C2084.57 2761.96 2082.89 2783.78 2069.46 2798.05C2061.07 2805.61 2051 2809.8 2040.92 2809.8ZM2041.76 2719.15C2032.53 2730.06 2020.78 2747.69 2018.26 2766.16C2016.58 2778.75 2023.3 2786.3 2030.85 2790.5C2038.41 2793.85 2049.32 2794.69 2057.71 2786.3C2066.1 2777.91 2066.94 2765.32 2059.39 2756.08C2050.16 2744.33 2044.28 2731.74 2041.76 2719.15Z" fill="black"/>
<path d="M2141.65 2809.8C2135.77 2809.8 2129.06 2808.12 2123.18 2805.61C2107.23 2797.21 2098.84 2781.26 2102.2 2763.64C2108.07 2724.19 2142.48 2694.81 2144.16 2693.13C2146.68 2690.62 2150.88 2690.62 2153.4 2692.29C2155.91 2693.97 2158.43 2697.33 2157.59 2700.69C2155.91 2718.31 2165.15 2735.1 2173.54 2746.01C2185.29 2761.96 2183.61 2783.78 2170.18 2798.05C2161.79 2805.61 2151.72 2809.8 2141.65 2809.8ZM2142.48 2719.15C2133.25 2730.06 2121.5 2747.69 2118.98 2766.16C2117.3 2778.75 2124.02 2786.3 2131.57 2790.5C2139.13 2793.85 2150.04 2794.69 2158.43 2786.3C2166.82 2777.91 2167.66 2765.32 2160.11 2756.08C2150.88 2744.33 2145 2731.74 2142.48 2719.15Z" fill="black"/>
<path d="M2078.69 2935.71C2072.82 2935.71 2066.1 2934.03 2060.23 2931.51C2044.28 2923.12 2035.89 2907.17 2039.24 2889.54C2045.12 2850.09 2079.53 2820.72 2081.21 2819.04C2083.73 2816.52 2087.93 2816.52 2090.44 2818.2C2093.8 2819.88 2095.48 2823.23 2094.64 2826.59C2092.96 2844.22 2102.2 2861 2110.59 2871.92C2122.34 2887.86 2120.66 2909.69 2107.23 2923.95C2098.84 2931.51 2088.77 2935.71 2078.69 2935.71ZM2079.53 2845.06C2070.3 2855.97 2058.55 2873.59 2056.03 2892.06C2054.35 2904.65 2061.07 2912.2 2068.62 2916.4C2076.18 2919.76 2087.09 2920.6 2095.48 2912.2C2103.87 2903.81 2104.71 2891.22 2097.16 2881.99C2087.93 2870.24 2082.05 2857.65 2079.53 2845.06Z" fill="black"/>
</g>
<path d="M2430.6 2979.89C2373.78 2979.94 2337.61 2911.78 2372.01 2864.62C2356.09 2819.41 2390.09 2769.23 2438.67 2768.07C2494.67 2766.73 2527.03 2826.57 2521.17 2877.2C2515.69 2924.51 2483.64 2979.85 2430.6 2979.89V2979.89Z" fill="#F7C394" stroke="#333333" stroke-width="5" stroke-miterlimit="10"/>
<path d="M2521.17 2877.2C2514.39 2935.77 2466.8 3004 2395.8 2971C2464.62 2962.2 2512.8 2845.5 2478.91 2779.16C2484.3 2783 2492.8 2787.5 2506.51 2806.77C2518.8 2828.5 2524.21 2852.97 2521.17 2877.2Z" fill="black" fill-opacity="0.1"/>
</g>
<defs>
<clipPath id="clip0_6_2">
<rect width="4000" height="4000" fill="white"/>
</clipPath>
<clipPath id="clip1_6_2">
<rect width="503.607" height="503.607" fill="white" transform="translate(1986 2558)"/>
</clipPath>
</defs>
</svg>
