<svg width="4000" height="4000" viewBox="0 0 4000 4000" fill="none" xmlns="http://www.w3.org/2000/svg">
<g clip-path="url(#clip0_6_2)">
<path d="M2431.4 2976.39H2286.6V3007.42H2431.4V2976.39Z" fill="#9E1717"/>
<path d="M2286.6 2778.14H2431.4V2778.21C2431.4 2753.98 2417.43 2730.43 2394.93 2716.75C2390.82 2714.25 2388.31 2709.78 2388.31 2704.97V2679.88H2329.69V2703.97C2329.69 2708.9 2327.06 2713.46 2322.79 2715.92C2300.47 2728.8 2286.59 2752.67 2286.59 2778.21V2778.14H2286.6Z" fill="#9E1717"/>
<path d="M2415.89 2697.56V2665.51V2536.79C2415.89 2529.18 2410.29 2523 2402.67 2523H2316.48C2308.86 2523 2302.11 2529.18 2302.11 2536.79V2665.51V2696.39C2276.25 2714.91 2259.01 2745.56 2259.01 2778.21V3021.21C2259.01 3028.83 2265.76 3035 2273.38 3035H2445.77C2453.39 3035 2458.99 3028.83 2458.99 3021.21V2778.21C2458.99 2746.92 2443.47 2716.68 2415.89 2697.56ZM2388.31 2581.61V2652.29H2329.69V2581.61H2388.31ZM2322.79 2715.92C2327.06 2713.46 2329.69 2708.9 2329.69 2703.97V2679.88H2388.31V2704.97C2388.31 2709.78 2390.82 2714.25 2394.93 2716.75C2417.43 2730.44 2431.41 2753.99 2431.41 2778.21V2778.14H2286.6V2778.21C2286.6 2752.67 2300.47 2728.8 2322.79 2715.92ZM2431.4 2805.72V2948.8H2286.6V2805.72H2431.4ZM2286.6 3007.42V2976.39H2431.4V3007.42H2286.6Z" fill="black"/>
<path d="M2388.31 2581.61H2329.69V2652.29H2388.31V2581.61Z" fill="#D21E1E"/>
<path d="M2431.4 2948.8V2805.72H2286.6V2948.8H2431.4ZM2303.51 2862.65C2305.91 2845.98 2317.25 2832.08 2332.39 2827.24C2336.82 2825.83 2341.31 2825.11 2345.74 2825.11C2350.41 2825.11 2354.93 2825.88 2359.21 2827.39C2363.57 2825.84 2368.21 2825.04 2372.98 2825.04C2377.55 2825.04 2382.19 2825.78 2386.77 2827.24C2401.9 2832.08 2413.23 2845.98 2415.64 2862.65C2417.56 2876 2415.24 2902.15 2378.09 2927.33C2372.6 2931.05 2366.2 2933.02 2359.58 2933.02C2352.95 2933.02 2346.54 2931.05 2341.06 2927.34C2303.91 2902.16 2301.59 2876 2303.51 2862.65Z" fill="white"/>
<path d="M2356.54 2904.5C2357.45 2905.12 2358.51 2905.43 2359.58 2905.43C2360.64 2905.43 2361.7 2905.12 2362.61 2904.5C2400.03 2879.14 2388.95 2856.9 2378.37 2853.51C2376.45 2852.9 2374.66 2852.62 2372.98 2852.62C2368.91 2852.62 2365.55 2854.29 2363.02 2856.95C2362.03 2857.99 2360.72 2858.49 2359.39 2858.49C2357.98 2858.49 2356.56 2857.94 2355.46 2856.88C2352.88 2854.39 2349.69 2852.69 2345.74 2852.69C2344.21 2852.69 2342.56 2852.94 2340.79 2853.51C2330.19 2856.9 2319.12 2879.14 2356.54 2904.5Z" fill="#D21E1E"/>
<path d="M2341.06 2927.34C2346.55 2931.05 2352.95 2933.02 2359.58 2933.02C2366.2 2933.02 2372.61 2931.05 2378.09 2927.34C2415.24 2902.16 2417.56 2876 2415.64 2862.65C2413.23 2845.98 2401.91 2832.09 2386.77 2827.24C2382.19 2825.78 2377.55 2825.04 2372.98 2825.04C2368.21 2825.04 2363.57 2825.84 2359.21 2827.39C2354.93 2825.88 2350.41 2825.11 2345.74 2825.11C2341.31 2825.11 2336.82 2825.83 2332.39 2827.24C2317.25 2832.09 2305.92 2845.98 2303.51 2862.65C2301.59 2876 2303.91 2902.16 2341.06 2927.34ZM2340.79 2853.51C2342.56 2852.95 2344.21 2852.69 2345.74 2852.69C2349.69 2852.69 2352.88 2854.39 2355.46 2856.88C2356.56 2857.94 2357.98 2858.49 2359.39 2858.49C2360.72 2858.49 2362.03 2857.99 2363.02 2856.95C2365.56 2854.29 2368.91 2852.62 2372.98 2852.62C2374.65 2852.62 2376.45 2852.9 2378.36 2853.52C2388.95 2856.9 2400.03 2879.14 2362.61 2904.51C2361.7 2905.13 2360.64 2905.44 2359.58 2905.44C2358.52 2905.44 2357.45 2905.13 2356.54 2904.51C2319.12 2879.14 2330.19 2856.9 2340.79 2853.51Z" fill="black"/>
<path d="M2430.6 2979.89C2373.78 2979.94 2337.61 2911.78 2372.01 2864.62C2356.09 2819.41 2390.09 2769.23 2438.67 2768.07C2494.67 2766.73 2527.03 2826.57 2521.17 2877.2C2515.69 2924.51 2483.64 2979.85 2430.6 2979.89V2979.89Z" fill="#F7C394" stroke="#333333" stroke-width="5" stroke-miterlimit="10"/>
<path d="M2521.17 2877.2C2514.39 2935.77 2466.8 3004 2395.8 2971C2464.62 2962.2 2512.8 2845.5 2478.91 2779.16C2484.3 2783 2492.8 2787.5 2506.51 2806.77C2518.8 2828.5 2524.21 2852.97 2521.17 2877.2Z" fill="black" fill-opacity="0.1"/>
</g>
<defs>
<clipPath id="clip0_6_2">
<rect width="4000" height="4000" fill="white"/>
</clipPath>
</defs>
</svg>
