<svg width="4000" height="4000" viewBox="0 0 4000 4000" fill="none" xmlns="http://www.w3.org/2000/svg">
<g clip-path="url(#clip0_6_2)">
<g clip-path="url(#clip1_6_2)">
<path d="M2491.2 2866.39C2490.63 2873.54 2487.74 2891.44 2473.57 2911.53C2465.63 2904.8 2453.76 2903.28 2443.87 2903.46V2875.69C2466.04 2865.37 2484.08 2865.69 2491.2 2866.39Z" fill="url(#paint0_linear_6_2)"/>
<path d="M2440.93 2769.96C2441.96 2770.11 2442.94 2770.3 2443.88 2770.51C2443.39 2773.93 2440.98 2777.03 2436.58 2779.92C2433.43 2775.94 2429.45 2772.77 2424.97 2770.57C2430.37 2769.41 2435.8 2769.2 2440.93 2769.96Z" fill="url(#paint1_linear_6_2)"/>
<path d="M2502.06 2681.89L2507.68 2690.98L2497.04 2689.91C2495.73 2689.78 2494.44 2690.3 2493.59 2691.3L2486.68 2699.46L2484.41 2689.01C2484.13 2687.73 2483.24 2686.66 2482.02 2686.16L2472.13 2682.11L2481.36 2676.72C2482.5 2676.06 2483.23 2674.88 2483.33 2673.57L2484.13 2662.91L2492.1 2670.02C2493.09 2670.9 2494.44 2671.24 2495.72 2670.93L2506.1 2668.39L2501.8 2678.17C2501.27 2679.38 2501.36 2680.77 2502.06 2681.89Z" fill="url(#paint2_linear_6_2)"/>
<path d="M2399.37 2671.64C2400.09 2673.76 2399.9 2676.01 2398.84 2677.98C2397.79 2679.91 2396.06 2681.27 2393.94 2681.81C2368.94 2688.18 2342.5 2688.18 2317.49 2681.81C2315.38 2681.27 2313.64 2679.91 2312.59 2677.98C2311.53 2676.01 2311.34 2673.76 2312.07 2671.63L2312.14 2671.41C2313.25 2668.18 2316.32 2666.09 2319.61 2666.09C2320.24 2666.09 2320.88 2666.17 2321.52 2666.33C2343.89 2672.01 2367.54 2672.01 2389.91 2666.33C2390.55 2666.17 2391.19 2666.09 2391.82 2666.09C2395.11 2666.09 2398.18 2668.18 2399.28 2671.38L2399.33 2671.52L2399.37 2671.64Z" fill="url(#paint3_linear_6_2)"/>
<path d="M2267.56 2862.78V2891.26L2266.88 2890.96C2264.66 2889.97 2262.86 2888.26 2261.75 2886.1C2259.1 2880.95 2256.53 2872.28 2263.99 2865.44C2264.95 2864.56 2266.14 2863.67 2267.56 2862.78Z" fill="url(#paint4_linear_6_2)"/>
<path d="M2267.56 3011.95V3043.29L2263.57 3041.37C2261.29 3038.21 2252.77 3024.84 2263.66 3014.86C2264.71 3013.89 2266.02 3012.92 2267.56 3011.95Z" fill="url(#paint5_linear_6_2)"/>
<path d="M2435.32 3046.22C2434.67 3047.52 2433.51 3048.54 2432.06 3048.94C2407.19 3055.9 2381.51 3059.43 2355.72 3059.43C2329.92 3059.43 2304.24 3055.9 2279.37 3048.94C2279.28 3048.92 2279.19 3048.88 2279.11 3048.85L2277.97 3048.31C2277.17 3047.79 2276.53 3047.07 2276.11 3046.22C2279.06 3045.39 2281.8 3043.9 2284.07 3041.82C2286.24 3039.84 2289.06 3038.75 2292 3038.75C2294.94 3038.75 2297.75 3039.84 2299.92 3041.81C2303.57 3045.15 2308.3 3046.98 2313.24 3046.98C2318.18 3046.98 2322.91 3045.15 2326.55 3041.82C2328.72 3039.84 2331.54 3038.75 2334.48 3038.75C2337.42 3038.75 2340.23 3039.84 2342.4 3041.81C2346.03 3045.14 2350.77 3046.98 2355.72 3046.98C2360.65 3046.98 2365.38 3045.15 2369.02 3041.82C2371.19 3039.84 2374.01 3038.75 2376.95 3038.75C2379.89 3038.75 2382.7 3039.84 2384.87 3041.81C2388.52 3045.15 2393.25 3046.98 2398.19 3046.98C2403.13 3046.98 2407.86 3045.15 2411.5 3041.82C2413.68 3039.84 2416.49 3038.75 2419.43 3038.75C2422.37 3038.75 2425.18 3039.84 2427.35 3041.81C2429.63 3043.9 2432.37 3045.39 2435.32 3046.22Z" fill="url(#paint6_linear_6_2)"/>
<path d="M2435.87 3024.26V3037.94C2434.73 3037.44 2433.67 3036.75 2432.74 3035.9C2429.09 3032.58 2424.36 3030.75 2419.43 3030.75C2414.49 3030.75 2409.76 3032.58 2406.11 3035.91C2403.94 3037.89 2401.13 3038.98 2398.19 3038.98C2395.25 3038.98 2392.44 3037.89 2390.26 3035.9C2386.61 3032.58 2381.88 3030.75 2376.95 3030.75C2372.01 3030.75 2367.29 3032.58 2363.63 3035.91C2361.46 3037.89 2358.65 3038.98 2355.72 3038.98C2352.77 3038.98 2349.96 3037.89 2347.79 3035.9C2344.14 3032.58 2339.41 3030.75 2334.48 3030.75C2329.54 3030.75 2324.82 3032.58 2321.16 3035.91C2318.99 3037.89 2316.18 3038.98 2313.24 3038.98C2310.3 3038.98 2307.49 3037.89 2305.31 3035.9C2301.66 3032.58 2296.93 3030.75 2292 3030.75C2287.06 3030.75 2282.34 3032.58 2278.67 3035.91C2277.75 3036.76 2276.69 3037.44 2275.56 3037.95V3024.26C2278.72 3023.47 2281.66 3021.92 2284.08 3019.71C2286.24 3017.73 2289.06 3016.64 2292 3016.64C2294.94 3016.64 2297.75 3017.73 2299.93 3019.72C2303.58 3023.04 2308.3 3024.87 2313.24 3024.87C2318.17 3024.87 2322.9 3023.04 2326.56 3019.71C2328.72 3017.73 2331.54 3016.64 2334.48 3016.64C2337.42 3016.64 2340.23 3017.73 2342.4 3019.71C2346.04 3023.04 2350.77 3024.87 2355.72 3024.87C2360.65 3024.87 2365.37 3023.04 2369.03 3019.71C2371.2 3017.73 2374.01 3016.64 2376.95 3016.64C2379.89 3016.64 2382.7 3017.73 2384.88 3019.72C2388.53 3023.04 2393.25 3024.87 2398.19 3024.87C2403.12 3024.87 2407.85 3023.04 2411.51 3019.71C2413.68 3017.73 2416.49 3016.64 2419.43 3016.64C2422.37 3016.64 2425.18 3017.73 2427.35 3019.72C2429.78 3021.92 2432.72 3023.47 2435.87 3024.26Z" fill="url(#paint7_linear_6_2)"/>
<path d="M2435.87 3002.14V3015.84C2434.73 3015.33 2433.67 3014.65 2432.75 3013.81C2429.1 3010.47 2424.37 3008.64 2419.43 3008.64C2414.49 3008.64 2409.76 3010.47 2406.12 3013.8C2403.94 3015.78 2401.13 3016.87 2398.19 3016.87C2395.25 3016.87 2392.43 3015.78 2390.27 3013.81C2386.62 3010.47 2381.89 3008.64 2376.95 3008.64C2372.01 3008.64 2367.28 3010.47 2363.64 3013.8C2361.46 3015.78 2358.65 3016.87 2355.72 3016.87C2352.77 3016.87 2349.96 3015.78 2347.8 3013.81C2344.15 3010.47 2339.42 3008.64 2334.48 3008.64C2329.54 3008.64 2324.81 3010.47 2321.17 3013.8C2318.99 3015.78 2316.18 3016.87 2313.24 3016.87C2310.3 3016.87 2307.48 3015.78 2305.32 3013.81C2301.67 3010.47 2296.94 3008.64 2292 3008.64C2287.06 3008.64 2282.33 3010.47 2278.68 3013.81C2277.75 3014.65 2276.7 3015.33 2275.56 3015.84V3007.81C2282.28 3004.86 2291.05 3001.99 2301.93 2999.18C2305.24 3001.49 2309.18 3002.75 2313.24 3002.75C2318.17 3002.75 2322.9 3000.92 2326.55 2997.6C2328.72 2995.62 2331.54 2994.53 2334.48 2994.53C2337.42 2994.53 2340.23 2995.62 2342.4 2997.59C2346.04 3000.92 2350.77 3002.75 2355.72 3002.75C2360.65 3002.75 2365.37 3000.92 2369.02 2997.6C2371.19 2995.62 2374.01 2994.53 2376.95 2994.53C2379.89 2994.53 2382.7 2995.62 2384.88 2997.6C2388.53 3000.92 2393.25 3002.75 2398.19 3002.75C2403.12 3002.75 2407.85 3000.92 2411.5 2997.6C2413.68 2995.62 2416.49 2994.53 2419.43 2994.53C2422.37 2994.53 2425.18 2995.62 2427.36 2997.6C2429.78 2999.8 2432.72 3001.35 2435.87 3002.14Z" fill="url(#paint8_linear_6_2)"/>
<path d="M2382.02 2984.49C2379.31 2984.87 2376.65 2985.25 2374.04 2985.63C2363.92 2987.11 2354.51 2988.6 2345.77 2990.1C2346.47 2990.59 2347.15 2991.1 2347.79 2991.68C2349.96 2993.66 2352.77 2994.75 2355.72 2994.75C2358.65 2994.75 2361.46 2993.66 2363.64 2991.68C2366.61 2988.98 2370.28 2987.27 2374.2 2986.72C2375.1 2986.59 2376.02 2986.53 2376.95 2986.53C2381.88 2986.53 2386.61 2988.36 2390.26 2991.68C2392.43 2993.66 2395.25 2994.75 2398.19 2994.75C2401.13 2994.75 2403.94 2993.66 2406.12 2991.68C2409.77 2988.36 2414.49 2986.53 2419.43 2986.53C2424.36 2986.53 2429.09 2988.36 2432.74 2991.68C2433.67 2992.53 2434.73 2993.21 2435.87 2993.72V2973.25C2421.7 2977.71 2404.01 2981.4 2382.02 2984.49Z" fill="url(#paint9_linear_6_2)"/>
<path d="M2474.14 2930.47C2474.68 2944.19 2462.71 2955.44 2438.54 2963.93C2424.06 2969.02 2405.21 2973.15 2380.91 2976.57C2325.17 2984.39 2288.84 2992.59 2269.85 3001.62C2264.85 3003.99 2261.05 3006.39 2258.25 3008.96C2249.59 3016.9 2249.14 3026.62 2251.48 3034.69C2250.89 3034.21 2250.3 3033.7 2249.71 3033.15C2241.74 3025.73 2238.41 3015.79 2239.82 3003.58C2241.37 2990.08 2252.26 2979.29 2273.1 2970.61C2292.78 2962.41 2318.97 2957.15 2341.99 2953.09C2348.25 2951.98 2356.98 2951.01 2367.1 2949.89C2391.04 2947.24 2420.83 2943.95 2441.27 2936.3C2455.38 2931.01 2463.46 2924.04 2465.37 2915.53C2466.61 2916.22 2467.76 2917.02 2468.78 2917.95C2472.17 2921 2473.92 2925.1 2474.14 2930.47Z" fill="url(#paint10_linear_6_2)"/>
<path d="M2275.56 2959.59C2276.12 2959.84 2276.66 2960.13 2277.18 2960.47C2276.63 2960.66 2276.1 2960.86 2275.56 2961.06V2959.59Z" fill="#FF0000"/>
<path d="M2363.64 2938.66C2361.47 2936.67 2358.66 2935.58 2355.71 2935.58C2352.78 2935.58 2349.97 2936.67 2347.8 2938.65C2345.06 2941.15 2341.71 2942.8 2338.12 2943.47C2336.93 2943.7 2335.71 2943.81 2334.48 2943.81C2329.54 2943.81 2324.82 2941.98 2321.17 2938.66C2318.99 2936.67 2316.18 2935.58 2313.24 2935.58C2310.3 2935.58 2307.49 2936.67 2305.32 2938.65C2301.66 2941.98 2296.93 2943.81 2292 2943.81C2287.06 2943.81 2282.34 2941.98 2278.69 2938.66C2277.76 2937.81 2276.7 2937.13 2275.56 2936.62V2951.16C2278.71 2951.95 2281.66 2953.5 2284.08 2955.72C2284.79 2956.37 2285.59 2956.93 2286.45 2957.38C2302.96 2952.31 2321.5 2948.61 2338.5 2945.58C2339.2 2945.46 2339.9 2945.33 2340.6 2945.21C2347.11 2944.06 2355.96 2943.08 2366.22 2941.94C2366.84 2941.87 2367.48 2941.8 2368.12 2941.73C2366.51 2940.93 2365 2939.9 2363.64 2938.66Z" fill="url(#paint11_linear_6_2)"/>
<path d="M2364.08 2924.84L2382.55 2934.38C2380.84 2935.31 2378.92 2935.81 2376.95 2935.81C2374.01 2935.81 2371.19 2934.72 2369.03 2932.75C2367.1 2930.98 2364.85 2929.65 2362.44 2928.77L2364.08 2924.84Z" fill="url(#paint12_linear_6_2)"/>
<path d="M2457.73 2912.72C2457.1 2917.89 2452.44 2922.52 2443.87 2926.54V2911.46C2447.99 2911.39 2453 2911.63 2457.73 2912.72Z" fill="url(#paint13_linear_6_2)"/>
<path d="M2398.19 2935.58C2400.23 2935.58 2402.21 2936.12 2403.97 2937.11C2399.22 2937.88 2394.41 2938.57 2389.62 2939.19C2389.83 2939.01 2390.06 2938.84 2390.27 2938.65C2392.44 2936.67 2395.25 2935.58 2398.19 2935.58Z" fill="url(#paint14_linear_6_2)"/>
<path d="M2518.74 2693.66C2519.54 2694.96 2519.54 2696.6 2518.73 2697.89C2517.93 2699.18 2516.45 2699.9 2514.94 2699.75L2498.33 2698.08L2487.55 2710.81C2486.77 2711.72 2485.65 2712.23 2484.49 2712.23C2484.17 2712.23 2483.85 2712.19 2483.53 2712.11C2482.05 2711.74 2480.91 2710.56 2480.58 2709.08L2477.04 2692.77L2461.6 2686.44C2460.19 2685.86 2459.23 2684.54 2459.12 2683.02C2459.01 2681.5 2459.78 2680.05 2461.1 2679.29L2475.51 2670.87L2476.75 2654.23C2476.87 2652.71 2477.83 2651.39 2479.25 2650.82C2480.66 2650.25 2482.27 2650.53 2483.41 2651.54L2495.86 2662.65L2512.07 2658.69C2513.55 2658.33 2515.11 2658.84 2516.09 2660.01C2517.07 2661.18 2517.3 2662.8 2516.68 2664.19L2509.97 2679.47L2518.74 2693.66ZM2507.68 2690.98L2502.06 2681.89C2501.36 2680.77 2501.27 2679.38 2501.8 2678.17L2506.1 2668.39L2495.72 2670.93C2494.44 2671.24 2493.09 2670.9 2492.1 2670.02L2484.13 2662.91L2483.33 2673.57C2483.23 2674.88 2482.5 2676.06 2481.36 2676.72L2472.13 2682.11L2482.02 2686.16C2483.24 2686.66 2484.13 2687.73 2484.41 2689.01L2486.68 2699.46L2493.59 2691.3C2494.44 2690.3 2495.73 2689.78 2497.04 2689.91L2507.68 2690.98Z" fill="black"/>
<path d="M2499.33 2862.77C2499.37 2863.84 2500.1 2888.88 2478.86 2917.88C2480.84 2921.4 2481.95 2925.5 2482.13 2930.16C2482.81 2947.22 2469.94 2960.78 2443.87 2970.51V3043.91C2443.87 3049.82 2439.9 3055.05 2434.22 3056.65C2408.65 3063.8 2382.24 3067.43 2355.72 3067.43C2331.33 3067.43 2306.97 3064.59 2283.38 3058.36C2281.32 3057.81 2264.55 3051.22 2255.29 3046.48C2246.69 3042.08 2228.73 3029.92 2231.87 3002.67C2233.72 2986.61 2245.4 2974.04 2267.56 2964.28V2900.02C2267.56 2900.02 2258.12 2895.94 2257.63 2895.73C2250.52 2892.7 2230.75 2881.71 2233.96 2853.88C2234.44 2849.72 2235.63 2845.81 2237.53 2842.13C2200.7 2812.51 2198.19 2772.43 2198.1 2770.71C2198 2768.75 2199.32 2767.01 2201.24 2766.59C2202.12 2766.4 2214.32 2763.85 2231.49 2766.15C2210.09 2719.33 2224.27 2686.4 2224.92 2684.94C2225.66 2683.28 2227.43 2682.33 2229.22 2682.62C2230.9 2682.9 2270.73 2689.98 2298.52 2741.59C2302.52 2749.02 2305.89 2756.72 2308.59 2764.54C2309 2764.2 2309.4 2763.85 2309.78 2763.45C2311.98 2761.11 2313.08 2758.06 2312.89 2754.87C2311.53 2733.06 2312.78 2711.2 2316.6 2689.82C2316.24 2689.73 2315.87 2689.66 2315.51 2689.56C2311.28 2688.48 2307.65 2685.65 2305.56 2681.79C2303.45 2677.89 2303.06 2673.24 2304.5 2669.05L2304.57 2668.83C2306.44 2663.37 2311.1 2659.54 2316.45 2658.43L2317.39 2601.4H2317.42C2318.11 2590.9 2340.5 2586 2355.72 2586C2370.94 2586 2393.32 2590.9 2394.01 2601.4H2394.04L2394.97 2658.43C2400.33 2659.53 2404.99 2663.37 2406.86 2668.82L2406.9 2668.93L2406.95 2669.08C2408.37 2673.24 2407.99 2677.89 2405.88 2681.79C2403.79 2685.65 2400.16 2688.48 2395.92 2689.56C2395.56 2689.66 2395.2 2689.73 2394.83 2689.82C2398.65 2711.24 2399.91 2733.1 2398.55 2754.87C2398.54 2755.11 2398.53 2755.36 2398.53 2755.6C2398.53 2760.85 2402.09 2765.3 2406.95 2766.68C2407.97 2766.97 2413.65 2765.58 2416.99 2764.46C2425.33 2761.68 2434.01 2760.85 2442.1 2762.04C2457.73 2764.35 2466.63 2773.03 2467.16 2786.49C2467.69 2799.49 2459.84 2810.34 2443.87 2818.77V2866.93C2473.41 2854.25 2495.23 2858.81 2496.19 2859.02C2497.97 2859.41 2499.25 2860.95 2499.33 2862.77ZM2473.57 2911.53C2487.74 2891.44 2490.63 2873.54 2491.2 2866.39C2484.08 2865.69 2466.04 2865.37 2443.87 2875.69V2903.46C2453.76 2903.28 2465.63 2904.8 2473.57 2911.53ZM2438.54 2963.93C2462.71 2955.44 2474.68 2944.19 2474.14 2930.47C2473.92 2925.1 2472.17 2921 2468.78 2917.95C2467.76 2917.02 2466.61 2916.22 2465.37 2915.53C2463.46 2924.04 2455.38 2931.01 2441.27 2936.3C2420.83 2943.95 2391.04 2947.24 2367.1 2949.89C2356.98 2951.01 2348.25 2951.98 2341.99 2953.09C2318.97 2957.15 2292.78 2962.41 2273.1 2970.61C2252.26 2979.29 2241.37 2990.08 2239.82 3003.58C2238.41 3015.79 2241.74 3025.73 2249.71 3033.15C2250.3 3033.7 2250.89 3034.21 2251.48 3034.69C2249.14 3026.62 2249.59 3016.9 2258.25 3008.96C2261.05 3006.39 2264.85 3003.99 2269.85 3001.62C2288.84 2992.59 2325.17 2984.39 2380.91 2976.57C2405.21 2973.15 2424.06 2969.02 2438.54 2963.93ZM2438.1 2812.74C2452.69 2805.58 2459.58 2797.1 2459.17 2786.81C2458.93 2780.68 2456.39 2776.23 2451.49 2773.35C2450.01 2779.35 2445.27 2784.53 2437.32 2788.77C2434.91 2790.07 2432.1 2791.31 2429 2792.48C2409.97 2799.6 2382.25 2802.67 2359.99 2805.13C2350.59 2806.17 2342.47 2807.07 2336.66 2808.1C2315.27 2811.88 2290.94 2816.76 2272.67 2824.37C2253.4 2832.4 2243.34 2842.35 2241.91 2854.8C2240.25 2869.17 2246.12 2877.91 2252.01 2882.96C2250.04 2875.47 2250.74 2866.74 2258.58 2859.55C2261.19 2857.15 2264.73 2854.91 2269.42 2852.68C2287.08 2844.28 2320.88 2836.66 2372.74 2829.36C2395.33 2826.2 2412.84 2822.36 2426.27 2817.64C2430.67 2816.09 2434.65 2814.44 2438.1 2812.74ZM2443.87 2926.54C2452.44 2922.52 2457.1 2917.89 2457.73 2912.72C2453 2911.63 2447.99 2911.39 2443.87 2911.46V2926.54ZM2443.88 2770.51C2442.94 2770.3 2441.96 2770.11 2440.93 2769.96C2435.8 2769.2 2430.37 2769.41 2424.97 2770.57C2429.45 2772.77 2433.43 2775.94 2436.58 2779.92C2440.98 2777.03 2443.39 2773.93 2443.88 2770.51ZM2435.87 3037.94V3024.26C2432.72 3023.47 2429.78 3021.92 2427.35 3019.72C2425.18 3017.73 2422.37 3016.64 2419.43 3016.64C2416.49 3016.64 2413.68 3017.73 2411.51 3019.71C2407.85 3023.04 2403.12 3024.87 2398.19 3024.87C2393.25 3024.87 2388.53 3023.04 2384.88 3019.72C2382.7 3017.73 2379.89 3016.64 2376.95 3016.64C2374.01 3016.64 2371.2 3017.73 2369.03 3019.71C2365.37 3023.04 2360.65 3024.87 2355.72 3024.87C2350.77 3024.87 2346.04 3023.04 2342.4 3019.71C2340.23 3017.73 2337.42 3016.64 2334.48 3016.64C2331.54 3016.64 2328.72 3017.73 2326.56 3019.71C2322.9 3023.04 2318.17 3024.87 2313.24 3024.87C2308.3 3024.87 2303.58 3023.04 2299.93 3019.72C2297.75 3017.73 2294.94 3016.64 2292 3016.64C2289.06 3016.64 2286.24 3017.73 2284.08 3019.71C2281.66 3021.92 2278.72 3023.47 2275.56 3024.26V3037.95C2276.69 3037.44 2277.75 3036.76 2278.67 3035.91C2282.34 3032.58 2287.06 3030.75 2292 3030.75C2296.93 3030.75 2301.66 3032.58 2305.31 3035.9C2307.49 3037.89 2310.3 3038.98 2313.24 3038.98C2316.18 3038.98 2318.99 3037.89 2321.16 3035.91C2324.82 3032.58 2329.54 3030.75 2334.48 3030.75C2339.41 3030.75 2344.14 3032.58 2347.79 3035.9C2349.96 3037.89 2352.77 3038.98 2355.72 3038.98C2358.65 3038.98 2361.46 3037.89 2363.63 3035.91C2367.29 3032.58 2372.01 3030.75 2376.95 3030.75C2381.88 3030.75 2386.61 3032.58 2390.26 3035.9C2392.44 3037.89 2395.25 3038.98 2398.19 3038.98C2401.13 3038.98 2403.94 3037.89 2406.11 3035.91C2409.76 3032.58 2414.49 3030.75 2419.43 3030.75C2424.36 3030.75 2429.09 3032.58 2432.74 3035.9C2433.67 3036.75 2434.73 3037.44 2435.87 3037.94ZM2435.87 3015.84V3002.14C2432.72 3001.35 2429.78 2999.8 2427.36 2997.6C2425.18 2995.62 2422.37 2994.53 2419.43 2994.53C2416.49 2994.53 2413.68 2995.62 2411.5 2997.6C2407.85 3000.92 2403.12 3002.75 2398.19 3002.75C2393.25 3002.75 2388.53 3000.92 2384.88 2997.6C2382.7 2995.62 2379.89 2994.53 2376.95 2994.53C2374.01 2994.53 2371.19 2995.62 2369.02 2997.6C2365.37 3000.92 2360.65 3002.75 2355.72 3002.75C2350.77 3002.75 2346.04 3000.92 2342.4 2997.59C2340.23 2995.62 2337.42 2994.53 2334.48 2994.53C2331.54 2994.53 2328.72 2995.62 2326.55 2997.6C2322.9 3000.92 2318.17 3002.75 2313.24 3002.75C2309.18 3002.75 2305.24 3001.49 2301.93 2999.18C2291.05 3001.99 2282.28 3004.86 2275.56 3007.81V3015.84C2276.7 3015.33 2277.75 3014.65 2278.68 3013.81C2282.33 3010.47 2287.06 3008.64 2292 3008.64C2296.94 3008.64 2301.67 3010.47 2305.32 3013.81C2307.48 3015.78 2310.3 3016.87 2313.24 3016.87C2316.18 3016.87 2318.99 3015.78 2321.17 3013.8C2324.81 3010.47 2329.54 3008.64 2334.48 3008.64C2339.42 3008.64 2344.15 3010.47 2347.8 3013.81C2349.96 3015.78 2352.77 3016.87 2355.72 3016.87C2358.65 3016.87 2361.46 3015.78 2363.64 3013.8C2367.28 3010.47 2372.01 3008.64 2376.95 3008.64C2381.89 3008.64 2386.62 3010.47 2390.27 3013.81C2392.43 3015.78 2395.25 3016.87 2398.19 3016.87C2401.13 3016.87 2403.94 3015.78 2406.12 3013.8C2409.76 3010.47 2414.49 3008.64 2419.43 3008.64C2424.37 3008.64 2429.1 3010.47 2432.75 3013.81C2433.67 3014.65 2434.73 3015.33 2435.87 3015.84ZM2435.87 2993.72V2973.25C2421.7 2977.71 2404.01 2981.4 2382.02 2984.49C2379.31 2984.87 2376.65 2985.25 2374.04 2985.63C2363.92 2987.11 2354.51 2988.6 2345.77 2990.1C2346.47 2990.59 2347.15 2991.1 2347.79 2991.68C2349.96 2993.66 2352.77 2994.75 2355.72 2994.75C2358.65 2994.75 2361.46 2993.66 2363.64 2991.68C2366.61 2988.98 2370.28 2987.27 2374.2 2986.72C2375.1 2986.59 2376.02 2986.53 2376.95 2986.53C2381.88 2986.53 2386.61 2988.36 2390.26 2991.68C2392.43 2993.66 2395.25 2994.75 2398.19 2994.75C2401.13 2994.75 2403.94 2993.66 2406.12 2991.68C2409.77 2988.36 2414.49 2986.53 2419.43 2986.53C2424.36 2986.53 2429.09 2988.36 2432.74 2991.68C2433.67 2992.53 2434.73 2993.21 2435.87 2993.72ZM2435.87 2929.73V2886.54C2435.87 2879.31 2432.73 2872.44 2427.25 2867.68C2425.95 2866.56 2425.52 2864.73 2426.17 2863.14C2427.4 2860.14 2428.03 2856.97 2428.03 2853.7C2428.03 2843.29 2421.48 2833.87 2411.72 2830.27L2411.73 2830.24C2400.96 2832.91 2388.42 2835.24 2373.86 2837.29C2336.25 2842.57 2308.43 2847.98 2289.62 2853.68C2289.62 2853.7 2289.62 2853.71 2289.62 2853.73C2289.62 2856.88 2290.64 2859.86 2292.59 2862.33C2293.43 2863.4 2293.66 2864.83 2293.22 2866.11C2292.77 2867.4 2291.7 2868.37 2290.38 2868.69C2284.36 2870.14 2279.15 2873.7 2275.56 2878.72V2928.19C2278.72 2928.98 2281.66 2930.54 2284.08 2932.75C2286.24 2934.72 2289.06 2935.81 2292 2935.81C2294.94 2935.81 2297.75 2934.72 2299.93 2932.74C2303.57 2929.42 2308.3 2927.58 2313.24 2927.58C2318.18 2927.58 2322.91 2929.42 2326.56 2932.75C2328.72 2934.72 2331.54 2935.81 2334.48 2935.81C2337.42 2935.81 2340.23 2934.72 2342.41 2932.74C2345.68 2929.75 2349.84 2927.98 2354.24 2927.65L2356.95 2921.16L2311.4 2897.62L2315.07 2890.51L2360.04 2913.75L2369.57 2890.9L2340.53 2875.89L2344.2 2868.79L2372.66 2883.49L2381.96 2861.21L2369.05 2853.87L2373.01 2846.92L2385.07 2853.78L2390.9 2839.8L2398.28 2842.88L2392.07 2857.76L2406.8 2866.14L2402.84 2873.09L2388.97 2865.2L2379.79 2887.18L2407.62 2901.56L2403.95 2908.67L2376.7 2894.59L2367.17 2917.43L2390.15 2929.31C2392.66 2928.19 2395.39 2927.58 2398.19 2927.58C2403.13 2927.58 2407.86 2929.42 2411.51 2932.75C2412.65 2933.79 2413.94 2934.55 2415.35 2935.07C2422.74 2933.58 2429.72 2931.84 2435.87 2929.73ZM2435.87 2865.04V2856.79C2435.65 2859.09 2435.21 2861.36 2434.52 2863.56C2434.99 2864.04 2435.43 2864.53 2435.87 2865.04ZM2435.87 2850.62V2822.52C2433.68 2823.43 2431.36 2824.32 2428.93 2825.18C2426.93 2825.88 2424.84 2826.56 2422.67 2827.23C2430.09 2832.75 2434.98 2841.25 2435.87 2850.62ZM2432.06 3048.94C2433.51 3048.54 2434.67 3047.52 2435.32 3046.22C2432.37 3045.39 2429.63 3043.9 2427.35 3041.81C2425.18 3039.84 2422.37 3038.75 2419.43 3038.75C2416.49 3038.75 2413.68 3039.84 2411.5 3041.82C2407.86 3045.15 2403.13 3046.98 2398.19 3046.98C2393.25 3046.98 2388.52 3045.15 2384.87 3041.81C2382.7 3039.84 2379.89 3038.75 2376.95 3038.75C2374.01 3038.75 2371.19 3039.84 2369.02 3041.82C2365.38 3045.15 2360.65 3046.98 2355.72 3046.98C2350.77 3046.98 2346.03 3045.14 2342.4 3041.81C2340.23 3039.84 2337.42 3038.75 2334.48 3038.75C2331.54 3038.75 2328.72 3039.84 2326.55 3041.82C2322.91 3045.15 2318.18 3046.98 2313.24 3046.98C2308.3 3046.98 2303.57 3045.15 2299.92 3041.81C2297.75 3039.84 2294.94 3038.75 2292 3038.75C2289.06 3038.75 2286.24 3039.84 2284.07 3041.82C2281.8 3043.9 2279.06 3045.39 2276.11 3046.22C2276.53 3047.07 2277.17 3047.79 2277.97 3048.31L2279.11 3048.85C2279.19 3048.88 2279.28 3048.92 2279.37 3048.94C2304.24 3055.9 2329.92 3059.43 2355.72 3059.43C2381.51 3059.43 2407.19 3055.9 2432.06 3048.94ZM2426.19 2784.99C2427.29 2784.57 2428.33 2784.15 2429.33 2783.72C2424.81 2778.65 2418.42 2775.52 2411.53 2775.15C2411.11 2775.14 2410.63 2775.12 2410.15 2775.12C2399.33 2775.12 2390.53 2766.36 2390.53 2755.6C2390.53 2755.22 2390.54 2754.79 2390.57 2754.38C2391.88 2733.35 2390.68 2712.24 2387.02 2691.55C2376.7 2693.57 2366.21 2694.59 2355.72 2694.59C2345.22 2694.59 2334.74 2693.57 2324.42 2691.55C2320.76 2712.2 2319.56 2733.31 2320.87 2754.37C2321.21 2759.8 2319.33 2764.97 2315.61 2768.93C2311.91 2772.86 2306.68 2775.12 2301.28 2775.12C2294.41 2775.12 2287.95 2777.8 2283.1 2782.66C2281.3 2784.46 2279.79 2786.49 2278.61 2788.7C2276.58 2792.46 2275.56 2796.54 2275.56 2800.84V2814.67C2278.06 2813.76 2280.63 2812.9 2283.27 2812.07C2284.29 2797.18 2296.72 2785.37 2311.86 2785.37C2313.77 2785.37 2315.66 2785.56 2317.51 2785.93C2319.16 2775.04 2328.59 2766.67 2339.93 2766.67C2350.29 2766.67 2359.13 2773.71 2361.77 2783.36C2362.66 2783.26 2363.56 2783.2 2364.46 2783.2C2372.51 2783.2 2379.84 2787.44 2383.9 2794.21C2399.19 2792.13 2414.57 2789.34 2426.19 2784.99ZM2398.84 2677.98C2399.9 2676.01 2400.09 2673.76 2399.37 2671.64L2399.33 2671.52L2399.28 2671.38C2398.18 2668.18 2395.11 2666.09 2391.82 2666.09C2391.19 2666.09 2390.55 2666.17 2389.91 2666.33C2367.54 2672.01 2343.89 2672.01 2321.52 2666.33C2320.88 2666.17 2320.24 2666.09 2319.61 2666.09C2316.32 2666.09 2313.25 2668.18 2312.14 2671.41L2312.07 2671.63C2311.34 2673.76 2311.53 2676.01 2312.59 2677.98C2313.64 2679.91 2315.38 2681.27 2317.49 2681.81C2342.5 2688.18 2368.94 2688.18 2393.94 2681.81C2396.06 2681.27 2397.79 2679.91 2398.84 2677.98ZM2403.97 2937.11C2402.21 2936.12 2400.23 2935.58 2398.19 2935.58C2395.25 2935.58 2392.44 2936.67 2390.27 2938.65C2390.06 2938.84 2389.83 2939.01 2389.62 2939.19C2394.41 2938.57 2399.22 2937.88 2403.97 2937.11ZM2386.98 2658.8L2386.2 2611.56C2378.16 2615.76 2365.46 2617.77 2355.72 2617.77C2345.97 2617.77 2333.27 2615.76 2325.22 2611.56L2324.45 2658.8C2344.93 2663.84 2366.5 2663.84 2386.98 2658.8ZM2382.55 2934.38L2364.08 2924.84L2362.44 2928.77C2364.85 2929.65 2367.1 2930.98 2369.03 2932.75C2371.19 2934.72 2374.01 2935.81 2376.95 2935.81C2378.92 2935.81 2380.84 2935.31 2382.55 2934.38ZM2386.02 2601.89C2384.97 2599.46 2372.52 2594 2355.72 2594C2338.91 2594 2326.47 2599.46 2325.42 2601.89C2326.47 2604.31 2338.91 2609.77 2355.72 2609.77C2372.52 2609.77 2384.97 2604.31 2386.02 2601.89ZM2374.72 2795.39C2372.03 2792.76 2368.37 2791.2 2364.46 2791.2C2362.89 2791.2 2361.32 2791.46 2359.8 2791.97C2358.62 2792.37 2357.33 2792.19 2356.3 2791.5C2355.26 2790.8 2354.61 2789.67 2354.54 2788.43C2354.06 2780.71 2347.65 2774.67 2339.93 2774.67C2331.84 2774.67 2325.26 2781.25 2325.26 2789.34C2325.26 2789.88 2325.28 2790.38 2325.33 2790.83C2325.49 2792.24 2324.89 2793.62 2323.76 2794.47C2322.62 2795.32 2321.13 2795.51 2319.82 2794.96C2317.29 2793.91 2314.61 2793.37 2311.86 2793.37C2301.99 2793.37 2293.73 2800.33 2291.69 2809.59C2305.89 2805.68 2321.2 2802.7 2335.27 2800.22C2341.33 2799.15 2349.57 2798.24 2359.11 2797.18C2364.09 2796.63 2369.35 2796.04 2374.72 2795.39ZM2366.22 2941.94C2366.84 2941.87 2367.48 2941.8 2368.12 2941.73C2366.51 2940.93 2365 2939.9 2363.64 2938.66C2361.47 2936.67 2358.66 2935.58 2355.71 2935.58C2352.78 2935.58 2349.97 2936.67 2347.8 2938.65C2345.06 2941.15 2341.71 2942.8 2338.12 2943.47C2336.93 2943.7 2335.71 2943.81 2334.48 2943.81C2329.54 2943.81 2324.82 2941.98 2321.17 2938.66C2318.99 2936.67 2316.18 2935.58 2313.24 2935.58C2310.3 2935.58 2307.49 2936.67 2305.32 2938.65C2301.66 2941.98 2296.93 2943.81 2292 2943.81C2287.06 2943.81 2282.34 2941.98 2278.69 2938.66C2277.76 2937.81 2276.7 2937.13 2275.56 2936.62V2951.16C2278.71 2951.95 2281.66 2953.5 2284.08 2955.72C2284.79 2956.37 2285.59 2956.93 2286.45 2957.38C2302.96 2952.31 2321.5 2948.61 2338.5 2945.58C2339.2 2945.46 2339.9 2945.33 2340.6 2945.21C2347.11 2944.06 2355.96 2943.08 2366.22 2941.94ZM2301.02 2767.13C2298.47 2759.72 2295.27 2752.43 2291.48 2745.38C2269.99 2705.48 2240.76 2694.08 2231.13 2691.31C2228.28 2700.6 2222.05 2729.89 2241.21 2767.91C2251.31 2770.21 2262.52 2774.29 2273.84 2781.27C2274.92 2779.76 2276.11 2778.33 2277.44 2777C2283.74 2770.69 2292.1 2767.19 2301.02 2767.13ZM2283.46 2862.56C2282.58 2860.56 2282.01 2858.45 2281.77 2856.26C2279.53 2857.07 2277.45 2857.87 2275.56 2858.69V2867.22C2277.96 2865.32 2280.61 2863.74 2283.46 2862.56ZM2277.18 2960.47C2276.66 2960.13 2276.12 2959.84 2275.56 2959.59V2961.06C2276.1 2960.86 2276.63 2960.66 2277.18 2960.47ZM2267.56 2800.84C2267.56 2796.53 2268.4 2792.26 2269.99 2788.3C2258.23 2780.99 2246.54 2777.09 2236.28 2775.11L2236.01 2775.25C2235.98 2775.18 2235.94 2775.11 2235.9 2775.04C2222.63 2772.53 2211.82 2773.21 2206.51 2773.86C2208.01 2783.89 2214.61 2813.07 2241.99 2835.45C2247.6 2828.71 2256.08 2822.88 2267.56 2817.85V2800.84ZM2267.56 3043.29V3011.95C2266.02 3012.92 2264.71 3013.89 2263.66 3014.86C2252.77 3024.84 2261.29 3038.21 2263.57 3041.37L2267.56 3043.29ZM2267.56 2891.26V2862.78C2266.14 2863.67 2264.95 2864.56 2263.99 2865.44C2256.53 2872.28 2259.1 2880.95 2261.75 2886.1C2262.86 2888.26 2264.66 2889.97 2266.88 2890.96L2267.56 2891.26Z" fill="black"/>
<path d="M2459.17 2786.81C2459.58 2797.1 2452.69 2805.58 2438.1 2812.74C2434.65 2814.44 2430.67 2816.09 2426.27 2817.64C2412.84 2822.36 2395.33 2826.2 2372.74 2829.36C2320.88 2836.66 2287.08 2844.28 2269.42 2852.68C2264.73 2854.91 2261.19 2857.15 2258.58 2859.55C2250.74 2866.74 2250.04 2875.47 2252.01 2882.96C2246.12 2877.91 2240.25 2869.17 2241.91 2854.8C2243.34 2842.35 2253.4 2832.4 2272.67 2824.37C2290.94 2816.76 2315.27 2811.88 2336.66 2808.1C2342.47 2807.07 2350.59 2806.17 2359.99 2805.13C2382.25 2802.67 2409.97 2799.6 2429 2792.48C2432.1 2791.31 2434.91 2790.07 2437.32 2788.77C2445.27 2784.53 2450.01 2779.35 2451.49 2773.35C2456.39 2776.23 2458.93 2780.68 2459.17 2786.81Z" fill="url(#paint15_linear_6_2)"/>
<path d="M2435.87 2886.54V2929.73C2429.72 2931.84 2422.74 2933.58 2415.35 2935.07C2413.94 2934.55 2412.65 2933.79 2411.51 2932.75C2407.86 2929.42 2403.13 2927.58 2398.19 2927.58C2395.39 2927.58 2392.66 2928.19 2390.15 2929.31L2367.17 2917.43L2376.7 2894.59L2403.95 2908.67L2407.62 2901.56L2379.79 2887.18L2388.97 2865.2L2402.84 2873.09L2406.8 2866.14L2392.07 2857.76L2398.28 2842.88L2390.9 2839.8L2385.07 2853.78L2373.01 2846.92L2369.05 2853.87L2381.96 2861.21L2372.66 2883.49L2344.2 2868.79L2340.53 2875.89L2369.57 2890.9L2360.04 2913.75L2315.07 2890.51L2311.4 2897.62L2356.95 2921.16L2354.24 2927.65C2349.84 2927.98 2345.68 2929.75 2342.41 2932.74C2340.23 2934.72 2337.42 2935.81 2334.48 2935.81C2331.54 2935.81 2328.72 2934.72 2326.56 2932.75C2322.91 2929.42 2318.18 2927.58 2313.24 2927.58C2308.3 2927.58 2303.57 2929.42 2299.93 2932.74C2297.75 2934.72 2294.94 2935.81 2292 2935.81C2289.06 2935.81 2286.24 2934.72 2284.08 2932.75C2281.66 2930.54 2278.72 2928.98 2275.56 2928.19V2878.72C2279.15 2873.7 2284.36 2870.14 2290.38 2868.69C2291.7 2868.37 2292.77 2867.4 2293.22 2866.11C2293.66 2864.83 2293.43 2863.4 2292.59 2862.33C2290.64 2859.86 2289.62 2856.88 2289.62 2853.73C2289.62 2853.71 2289.62 2853.7 2289.62 2853.68C2308.43 2847.98 2336.25 2842.57 2373.86 2837.29C2388.42 2835.24 2400.96 2832.91 2411.73 2830.24L2411.72 2830.27C2421.48 2833.87 2428.03 2843.29 2428.03 2853.7C2428.03 2856.97 2427.4 2860.14 2426.17 2863.14C2425.52 2864.73 2425.95 2866.56 2427.25 2867.68C2432.73 2872.44 2435.87 2879.31 2435.87 2886.54ZM2346.4 2855.03C2348.56 2854.57 2349.94 2852.44 2349.47 2850.28C2349.01 2848.12 2346.88 2846.74 2344.72 2847.21C2337.75 2848.71 2331.79 2852.83 2327.93 2858.81C2326.8 2860.56 2325.89 2862.41 2325.2 2864.32C2319.01 2857.91 2309.74 2854.74 2300.4 2856.76C2298.24 2857.22 2296.87 2859.35 2297.33 2861.51C2297.8 2863.67 2299.93 2865.05 2302.09 2864.58C2312.15 2862.41 2322.1 2868.83 2324.27 2878.89C2324.67 2880.77 2326.33 2882.05 2328.17 2882.05C2328.45 2882.05 2328.73 2882.02 2329.02 2881.96C2330.89 2881.56 2332.18 2879.9 2332.18 2878.06C2332.18 2877.78 2332.15 2877.49 2332.09 2877.21C2331.03 2872.33 2331.94 2867.34 2334.65 2863.15C2337.35 2858.97 2341.52 2856.08 2346.4 2855.03Z" fill="url(#paint16_linear_6_2)"/>
<path d="M2429.33 2783.72C2428.33 2784.15 2427.29 2784.57 2426.19 2784.99C2414.57 2789.34 2399.19 2792.13 2383.9 2794.21C2379.84 2787.44 2372.51 2783.2 2364.46 2783.2C2363.56 2783.2 2362.66 2783.26 2361.77 2783.36C2359.13 2773.71 2350.29 2766.67 2339.93 2766.67C2328.59 2766.67 2319.16 2775.04 2317.51 2785.93C2315.66 2785.56 2313.77 2785.37 2311.86 2785.37C2296.72 2785.37 2284.29 2797.18 2283.27 2812.07C2280.63 2812.9 2278.06 2813.76 2275.56 2814.67V2800.84C2275.56 2796.54 2276.58 2792.46 2278.61 2788.7C2279.79 2786.49 2281.3 2784.46 2283.1 2782.66C2287.95 2777.8 2294.41 2775.12 2301.28 2775.12C2306.68 2775.12 2311.91 2772.86 2315.61 2768.93C2319.33 2764.97 2321.21 2759.8 2320.87 2754.37C2319.56 2733.31 2320.76 2712.2 2324.42 2691.55C2334.74 2693.57 2345.22 2694.59 2355.72 2694.59C2366.21 2694.59 2376.7 2693.57 2387.02 2691.55C2390.68 2712.24 2391.88 2733.35 2390.57 2754.38C2390.54 2754.79 2390.53 2755.22 2390.53 2755.6C2390.53 2766.36 2399.33 2775.12 2410.15 2775.12C2410.63 2775.12 2411.11 2775.14 2411.53 2775.15C2418.42 2775.52 2424.81 2778.65 2429.33 2783.72ZM2373.75 2739.31C2377.89 2736.41 2380.42 2731.67 2380.42 2726.43C2380.42 2717.73 2373.35 2710.66 2364.66 2710.66C2355.97 2710.66 2348.9 2717.73 2348.9 2726.43C2348.9 2726.45 2348.9 2726.48 2348.9 2726.5C2342.34 2729.31 2337.88 2735.83 2337.88 2743.19C2337.88 2753.2 2346.02 2761.34 2356.02 2761.34C2366.03 2761.34 2374.17 2753.2 2374.17 2743.19C2374.17 2741.88 2374.03 2740.58 2373.75 2739.31Z" fill="url(#paint17_linear_6_2)"/>
<path d="M2386.2 2611.56L2386.98 2658.8C2366.5 2663.84 2344.93 2663.84 2324.45 2658.8L2325.22 2611.56C2333.27 2615.76 2345.97 2617.77 2355.72 2617.77C2365.46 2617.77 2378.16 2615.76 2386.2 2611.56Z" fill="url(#paint18_linear_6_2)"/>
<path d="M2380.42 2726.43C2380.42 2731.67 2377.89 2736.41 2373.75 2739.31C2374.03 2740.58 2374.17 2741.88 2374.17 2743.19C2374.17 2753.2 2366.03 2761.34 2356.02 2761.34C2346.02 2761.34 2337.88 2753.2 2337.88 2743.19C2337.88 2735.83 2342.34 2729.31 2348.9 2726.5C2348.9 2726.48 2348.9 2726.45 2348.9 2726.43C2348.9 2717.73 2355.97 2710.66 2364.66 2710.66C2373.35 2710.66 2380.42 2717.73 2380.42 2726.43ZM2367.46 2733.65C2370.48 2732.48 2372.42 2729.65 2372.42 2726.43C2372.42 2722.15 2368.94 2718.66 2364.66 2718.66C2360.38 2718.66 2356.9 2722.15 2356.9 2726.43C2356.9 2727.04 2356.98 2727.67 2357.15 2728.34C2357.42 2729.4 2357.24 2730.53 2356.66 2731.46C2356.07 2732.39 2355.13 2733.03 2354.05 2733.24C2349.31 2734.18 2345.88 2738.36 2345.88 2743.19C2345.88 2748.79 2350.43 2753.34 2356.02 2753.34C2361.62 2753.34 2366.17 2748.79 2366.17 2743.19C2366.17 2741.76 2365.87 2740.36 2365.27 2739.03C2364.81 2738.03 2364.79 2736.89 2365.21 2735.87C2365.62 2734.85 2366.44 2734.05 2367.46 2733.65Z" fill="black"/>
<path d="M2355.72 2594C2372.52 2594 2384.97 2599.46 2386.02 2601.89C2384.97 2604.31 2372.52 2609.77 2355.72 2609.77C2338.91 2609.77 2326.47 2604.31 2325.42 2601.89C2326.47 2599.46 2338.91 2594 2355.72 2594Z" fill="url(#paint19_linear_6_2)"/>
<path d="M2372.42 2726.43C2372.42 2729.65 2370.48 2732.48 2367.46 2733.65C2366.44 2734.05 2365.62 2734.85 2365.21 2735.87C2364.79 2736.89 2364.81 2738.03 2365.27 2739.03C2365.87 2740.36 2366.17 2741.76 2366.17 2743.19C2366.17 2748.79 2361.62 2753.34 2356.02 2753.34C2350.43 2753.34 2345.88 2748.79 2345.88 2743.19C2345.88 2738.36 2349.31 2734.18 2354.05 2733.24C2355.13 2733.03 2356.07 2732.39 2356.66 2731.46C2357.24 2730.53 2357.42 2729.4 2357.15 2728.34C2356.98 2727.67 2356.9 2727.04 2356.9 2726.43C2356.9 2722.15 2360.38 2718.66 2364.66 2718.66C2368.94 2718.66 2372.42 2722.15 2372.42 2726.43Z" fill="url(#paint20_linear_6_2)"/>
<path d="M2364.46 2791.2C2368.37 2791.2 2372.03 2792.76 2374.72 2795.39C2369.35 2796.04 2364.09 2796.63 2359.11 2797.18C2349.57 2798.24 2341.33 2799.15 2335.27 2800.22C2321.2 2802.7 2305.89 2805.68 2291.69 2809.59C2293.73 2800.33 2301.99 2793.37 2311.86 2793.37C2314.61 2793.37 2317.29 2793.91 2319.82 2794.96C2321.13 2795.51 2322.62 2795.32 2323.76 2794.47C2324.89 2793.62 2325.49 2792.24 2325.33 2790.83C2325.28 2790.38 2325.26 2789.88 2325.26 2789.34C2325.26 2781.25 2331.84 2774.67 2339.93 2774.67C2347.65 2774.67 2354.06 2780.71 2354.54 2788.43C2354.61 2789.67 2355.26 2790.8 2356.3 2791.5C2357.33 2792.19 2358.62 2792.37 2359.8 2791.97C2361.32 2791.46 2362.89 2791.2 2364.46 2791.2Z" fill="url(#paint21_linear_6_2)"/>
<path d="M2349.47 2850.28C2349.94 2852.44 2348.56 2854.57 2346.4 2855.03C2341.52 2856.08 2337.35 2858.97 2334.65 2863.15C2331.94 2867.34 2331.03 2872.33 2332.09 2877.21C2332.15 2877.49 2332.18 2877.78 2332.18 2878.06C2332.18 2879.9 2330.89 2881.56 2329.02 2881.96C2328.73 2882.02 2328.45 2882.05 2328.17 2882.05C2326.33 2882.05 2324.67 2880.77 2324.27 2878.89C2322.1 2868.83 2312.15 2862.41 2302.09 2864.58C2299.93 2865.05 2297.8 2863.67 2297.33 2861.51C2296.87 2859.35 2298.24 2857.22 2300.4 2856.76C2309.74 2854.74 2319.01 2857.91 2325.2 2864.32C2325.89 2862.41 2326.8 2860.56 2327.93 2858.81C2331.79 2852.83 2337.75 2848.71 2344.72 2847.21C2346.88 2846.74 2349.01 2848.12 2349.47 2850.28Z" fill="black"/>
<path d="M2291.48 2745.38C2295.27 2752.43 2298.47 2759.72 2301.02 2767.13C2292.1 2767.19 2283.74 2770.69 2277.44 2777C2276.11 2778.33 2274.92 2779.76 2273.84 2781.27C2262.52 2774.29 2251.31 2770.21 2241.21 2767.91C2222.05 2729.89 2228.28 2700.6 2231.13 2691.31C2240.76 2694.08 2269.99 2705.48 2291.48 2745.38Z" fill="url(#paint22_linear_6_2)"/>
<path d="M2435.87 2865.04V2856.79C2435.65 2859.09 2435.21 2861.36 2434.52 2863.56C2434.99 2864.04 2435.43 2864.53 2435.87 2865.04Z" fill="url(#paint23_linear_6_2)"/>
<path d="M2428.93 2825.18C2426.93 2825.88 2424.84 2826.56 2422.67 2827.23C2430.09 2832.75 2434.98 2841.25 2435.87 2850.62V2822.52C2433.68 2823.43 2431.36 2824.32 2428.93 2825.18Z" fill="url(#paint24_linear_6_2)"/>
<path d="M2275.56 2858.69V2867.22C2277.96 2865.32 2280.61 2863.74 2283.46 2862.56C2282.58 2860.56 2282.01 2858.45 2281.77 2856.26C2279.53 2857.07 2277.45 2857.87 2275.56 2858.69Z" fill="url(#paint25_linear_6_2)"/>
<path d="M2269.99 2788.3C2268.4 2792.26 2267.56 2796.53 2267.56 2800.84V2817.85C2256.08 2822.88 2247.6 2828.71 2241.99 2835.45C2214.61 2813.07 2208.01 2783.89 2206.51 2773.86C2211.82 2773.21 2222.63 2772.53 2235.9 2775.04C2235.94 2775.11 2235.98 2775.18 2236.01 2775.25L2236.28 2775.11C2246.54 2777.09 2258.23 2780.99 2269.99 2788.3Z" fill="url(#paint26_linear_6_2)"/>
<path d="M2261.28 2633.88C2261.4 2635.4 2260.65 2636.85 2259.34 2637.63L2250.04 2643.2L2249.35 2654.03C2249.25 2655.55 2248.3 2656.88 2246.89 2657.46C2246.4 2657.67 2245.87 2657.77 2245.36 2657.77C2244.41 2657.77 2243.47 2657.43 2242.72 2656.78L2234.55 2649.65L2224.05 2652.34C2222.57 2652.72 2221.01 2652.23 2220.02 2651.07C2219.03 2649.91 2218.78 2648.3 2219.38 2646.9L2223.63 2636.92L2217.83 2627.76C2217.01 2626.47 2217 2624.83 2217.79 2623.53C2218.59 2622.23 2220.05 2621.5 2221.56 2621.63L2232.37 2622.6L2239.29 2614.25C2240.26 2613.08 2241.81 2612.56 2243.29 2612.91C2244.77 2613.26 2245.93 2614.43 2246.27 2615.91L2248.69 2626.48L2258.77 2630.48C2260.18 2631.04 2261.16 2632.36 2261.28 2633.88ZM2244.13 2637.42L2248.28 2634.93L2243.78 2633.14C2242.56 2632.66 2241.65 2631.6 2241.36 2630.32L2240.28 2625.59L2237.19 2629.32C2236.34 2630.34 2235.05 2630.88 2233.75 2630.76L2228.92 2630.32L2231.52 2634.42C2232.22 2635.53 2232.33 2636.92 2231.82 2638.13L2229.91 2642.58L2234.61 2641.38C2234.93 2641.3 2235.27 2641.26 2235.6 2641.26C2236.55 2641.26 2237.49 2641.6 2238.23 2642.24L2241.88 2645.43L2242.19 2640.59C2242.27 2639.28 2243 2638.09 2244.13 2637.42Z" fill="black"/>
<path d="M2248.28 2634.93L2244.13 2637.42C2243 2638.09 2242.27 2639.28 2242.19 2640.59L2241.88 2645.43L2238.23 2642.24C2237.49 2641.6 2236.55 2641.26 2235.6 2641.26C2235.27 2641.26 2234.93 2641.3 2234.61 2641.38L2229.91 2642.58L2231.82 2638.13C2232.33 2636.92 2232.22 2635.53 2231.52 2634.42L2228.92 2630.32L2233.75 2630.76C2235.05 2630.88 2236.34 2630.34 2237.19 2629.32L2240.28 2625.59L2241.36 2630.32C2241.65 2631.6 2242.56 2632.66 2243.78 2633.14L2248.28 2634.93Z" fill="url(#paint27_linear_6_2)"/>
</g>
<path d="M2430.6 2979.89C2373.78 2979.94 2337.61 2911.78 2372.01 2864.62C2356.09 2819.41 2390.09 2769.23 2438.67 2768.07C2494.67 2766.73 2527.03 2826.57 2521.17 2877.2C2515.69 2924.51 2483.64 2979.85 2430.6 2979.89V2979.89Z" fill="#F7C394" stroke="#333333" stroke-width="5" stroke-miterlimit="10"/>
<path d="M2521.17 2877.2C2514.39 2935.77 2466.8 3004 2395.8 2971C2464.62 2962.2 2512.8 2845.5 2478.91 2779.16C2484.3 2783 2492.8 2787.5 2506.51 2806.77C2518.8 2828.5 2524.21 2852.97 2521.17 2877.2Z" fill="black" fill-opacity="0.1"/>
</g>
<defs>
<linearGradient id="paint0_linear_6_2" x1="2491.2" y1="2888.81" x2="2443.87" y2="2888.81" gradientUnits="userSpaceOnUse">
<stop stop-color="#3BAD5B"/>
<stop offset="0.2216" stop-color="#39A958"/>
<stop offset="0.4249" stop-color="#329E50"/>
<stop offset="0.6211" stop-color="#268C43"/>
<stop offset="0.8116" stop-color="#157230"/>
<stop offset="0.9987" stop-color="#005017"/>
<stop offset="1" stop-color="#005017"/>
</linearGradient>
<linearGradient id="paint1_linear_6_2" x1="2434.42" y1="2779.92" x2="2434.42" y2="2769.51" gradientUnits="userSpaceOnUse">
<stop stop-color="#A59C16"/>
<stop offset="0.4412" stop-color="#56520C"/>
<stop offset="0.9479"/>
</linearGradient>
<linearGradient id="paint2_linear_6_2" x1="2472.13" y1="2681.18" x2="2507.68" y2="2681.18" gradientUnits="userSpaceOnUse">
<stop stop-color="#ED1C24"/>
<stop offset="0.1372" stop-color="#E81B23"/>
<stop offset="0.303" stop-color="#D91A21"/>
<stop offset="0.4837" stop-color="#C1171D"/>
<stop offset="0.6749" stop-color="#9F1318"/>
<stop offset="0.8723" stop-color="#730E12"/>
<stop offset="1" stop-color="#530A0D"/>
</linearGradient>
<linearGradient id="paint3_linear_6_2" x1="2311.63" y1="2676.34" x2="2399.8" y2="2676.34" gradientUnits="userSpaceOnUse">
<stop stop-color="#00788A"/>
<stop offset="0.1494" stop-color="#007F8A"/>
<stop offset="0.3607" stop-color="#00918A"/>
<stop offset="0.5686" stop-color="#00AA8B"/>
<stop offset="0.6505" stop-color="#00A689"/>
<stop offset="0.7299" stop-color="#009A83"/>
<stop offset="0.8085" stop-color="#00877A"/>
<stop offset="0.8864" stop-color="#006B6D"/>
<stop offset="0.9632" stop-color="#00495C"/>
<stop offset="1" stop-color="#003552"/>
</linearGradient>
<linearGradient id="paint4_linear_6_2" x1="2263.32" y1="2891.26" x2="2263.32" y2="2862.78" gradientUnits="userSpaceOnUse">
<stop stop-color="#A59C16"/>
<stop offset="0.4412" stop-color="#56520C"/>
<stop offset="0.9479"/>
</linearGradient>
<linearGradient id="paint5_linear_6_2" x1="2262.9" y1="3043.29" x2="2262.9" y2="3011.95" gradientUnits="userSpaceOnUse">
<stop stop-color="#A59C16"/>
<stop offset="0.4412" stop-color="#56520C"/>
<stop offset="0.9479"/>
</linearGradient>
<linearGradient id="paint6_linear_6_2" x1="2276.11" y1="3049.09" x2="2435.32" y2="3049.09" gradientUnits="userSpaceOnUse">
<stop stop-color="#0087AA"/>
<stop offset="0.1376" stop-color="#0081A3"/>
<stop offset="0.3328" stop-color="#007191"/>
<stop offset="0.5622" stop-color="#005772"/>
<stop offset="0.8157" stop-color="#003248"/>
<stop offset="1" stop-color="#001425"/>
</linearGradient>
<linearGradient id="paint7_linear_6_2" x1="2435.87" y1="3027.81" x2="2275.56" y2="3027.81" gradientUnits="userSpaceOnUse">
<stop stop-color="#0087AA"/>
<stop offset="0.1376" stop-color="#0081A3"/>
<stop offset="0.3328" stop-color="#007191"/>
<stop offset="0.5622" stop-color="#005772"/>
<stop offset="0.8157" stop-color="#003248"/>
<stop offset="1" stop-color="#001425"/>
</linearGradient>
<linearGradient id="paint8_linear_6_2" x1="2275.56" y1="3005.7" x2="2435.87" y2="3005.7" gradientUnits="userSpaceOnUse">
<stop stop-color="#0087AA"/>
<stop offset="0.1376" stop-color="#0081A3"/>
<stop offset="0.3328" stop-color="#007191"/>
<stop offset="0.5622" stop-color="#005772"/>
<stop offset="0.8157" stop-color="#003248"/>
<stop offset="1" stop-color="#001425"/>
</linearGradient>
<linearGradient id="paint9_linear_6_2" x1="2435.87" y1="2984" x2="2345.77" y2="2984" gradientUnits="userSpaceOnUse">
<stop stop-color="#0087AA"/>
<stop offset="0.1376" stop-color="#0081A3"/>
<stop offset="0.3328" stop-color="#007191"/>
<stop offset="0.5622" stop-color="#005772"/>
<stop offset="0.8157" stop-color="#003248"/>
<stop offset="1" stop-color="#001425"/>
</linearGradient>
<linearGradient id="paint10_linear_6_2" x1="2239.5" y1="2975.11" x2="2474.16" y2="2975.11" gradientUnits="userSpaceOnUse">
<stop stop-color="#ED1C24"/>
<stop offset="0.1372" stop-color="#E81B23"/>
<stop offset="0.303" stop-color="#D91A21"/>
<stop offset="0.4837" stop-color="#C1171D"/>
<stop offset="0.6749" stop-color="#9F1318"/>
<stop offset="0.8723" stop-color="#730E12"/>
<stop offset="1" stop-color="#530A0D"/>
</linearGradient>
<linearGradient id="paint11_linear_6_2" x1="2275.56" y1="2946.48" x2="2368.12" y2="2946.48" gradientUnits="userSpaceOnUse">
<stop stop-color="#0087AA"/>
<stop offset="0.1376" stop-color="#0081A3"/>
<stop offset="0.3328" stop-color="#007191"/>
<stop offset="0.5622" stop-color="#005772"/>
<stop offset="0.8157" stop-color="#003248"/>
<stop offset="1" stop-color="#001425"/>
</linearGradient>
<linearGradient id="paint12_linear_6_2" x1="2362.44" y1="2930.33" x2="2382.55" y2="2930.33" gradientUnits="userSpaceOnUse">
<stop offset="0.5089" stop-color="#00417A"/>
<stop offset="0.6591" stop-color="#003564"/>
<stop offset="0.9712" stop-color="#00172B"/>
<stop offset="1" stop-color="#001425"/>
</linearGradient>
<linearGradient id="paint13_linear_6_2" x1="2450.8" y1="2926.54" x2="2450.8" y2="2911.45" gradientUnits="userSpaceOnUse">
<stop stop-color="#A59C16"/>
<stop offset="0.4412" stop-color="#56520C"/>
<stop offset="0.9479"/>
</linearGradient>
<linearGradient id="paint14_linear_6_2" x1="2389.62" y1="2937.39" x2="2403.97" y2="2937.39" gradientUnits="userSpaceOnUse">
<stop offset="0.5089" stop-color="#00417A"/>
<stop offset="0.6591" stop-color="#003564"/>
<stop offset="0.9712" stop-color="#00172B"/>
<stop offset="1" stop-color="#001425"/>
</linearGradient>
<linearGradient id="paint15_linear_6_2" x1="2241.62" y1="2828.16" x2="2459.19" y2="2828.16" gradientUnits="userSpaceOnUse">
<stop stop-color="#ED1C24"/>
<stop offset="0.1372" stop-color="#E81B23"/>
<stop offset="0.303" stop-color="#D91A21"/>
<stop offset="0.4837" stop-color="#C1171D"/>
<stop offset="0.6749" stop-color="#9F1318"/>
<stop offset="0.8723" stop-color="#730E12"/>
<stop offset="1" stop-color="#530A0D"/>
</linearGradient>
<linearGradient id="paint16_linear_6_2" x1="2275.56" y1="2883.02" x2="2435.87" y2="2883.02" gradientUnits="userSpaceOnUse">
<stop stop-color="#002C43"/>
<stop offset="0.5344" stop-color="#006D94"/>
<stop offset="0.6192" stop-color="#00688D"/>
<stop offset="0.7395" stop-color="#00597B"/>
<stop offset="0.8802" stop-color="#00405D"/>
<stop offset="1" stop-color="#00273D"/>
</linearGradient>
<linearGradient id="paint17_linear_6_2" x1="2277.27" y1="2751.22" x2="2430.28" y2="2756.57" gradientUnits="userSpaceOnUse">
<stop stop-color="#00788A"/>
<stop offset="0.0574" stop-color="#077C8D"/>
<stop offset="0.1387" stop-color="#198995"/>
<stop offset="0.2344" stop-color="#389EA3"/>
<stop offset="0.3401" stop-color="#62BAB6"/>
<stop offset="0.4414" stop-color="#91DACC"/>
<stop offset="0.5686" stop-color="#00AA8B"/>
<stop offset="0.6505" stop-color="#00A689"/>
<stop offset="0.7299" stop-color="#009A83"/>
<stop offset="0.8085" stop-color="#00877A"/>
<stop offset="0.8864" stop-color="#006B6D"/>
<stop offset="0.9632" stop-color="#00495C"/>
<stop offset="1" stop-color="#003552"/>
</linearGradient>
<linearGradient id="paint18_linear_6_2" x1="2324.45" y1="2637.07" x2="2386.98" y2="2637.07" gradientUnits="userSpaceOnUse">
<stop stop-color="#ED1C24"/>
<stop offset="0.1372" stop-color="#E81B23"/>
<stop offset="0.303" stop-color="#D91A21"/>
<stop offset="0.4837" stop-color="#C1171D"/>
<stop offset="0.6749" stop-color="#9F1318"/>
<stop offset="0.8723" stop-color="#730E12"/>
<stop offset="1" stop-color="#530A0D"/>
</linearGradient>
<linearGradient id="paint19_linear_6_2" x1="2370.95" y1="2586.65" x2="2340.48" y2="2617.12" gradientUnits="userSpaceOnUse">
<stop stop-color="#ED1C24"/>
<stop offset="0.1372" stop-color="#E81B23"/>
<stop offset="0.303" stop-color="#D91A21"/>
<stop offset="0.4837" stop-color="#C1171D"/>
<stop offset="0.6749" stop-color="#9F1318"/>
<stop offset="0.8723" stop-color="#730E12"/>
<stop offset="1" stop-color="#530A0D"/>
</linearGradient>
<linearGradient id="paint20_linear_6_2" x1="2359.15" y1="2753.34" x2="2359.15" y2="2718.66" gradientUnits="userSpaceOnUse">
<stop stop-color="#006D94"/>
<stop offset="0.1822" stop-color="#00688D"/>
<stop offset="0.4405" stop-color="#00597B"/>
<stop offset="0.7426" stop-color="#00405D"/>
<stop offset="1" stop-color="#00273D"/>
</linearGradient>
<linearGradient id="paint21_linear_6_2" x1="2291.69" y1="2792.13" x2="2374.72" y2="2792.13" gradientUnits="userSpaceOnUse">
<stop stop-color="#006D94"/>
<stop offset="0.1822" stop-color="#00688D"/>
<stop offset="0.4405" stop-color="#00597B"/>
<stop offset="0.7426" stop-color="#00405D"/>
<stop offset="1" stop-color="#00273D"/>
</linearGradient>
<linearGradient id="paint22_linear_6_2" x1="2216.32" y1="2716.95" x2="2301.57" y2="2766.17" gradientUnits="userSpaceOnUse">
<stop stop-color="#3BAD5B"/>
<stop offset="0.1886" stop-color="#38A857"/>
<stop offset="0.4066" stop-color="#2F9A4D"/>
<stop offset="0.6392" stop-color="#20833C"/>
<stop offset="0.8805" stop-color="#0C6325"/>
<stop offset="1" stop-color="#005017"/>
</linearGradient>
<linearGradient id="paint23_linear_6_2" x1="2435.19" y1="2856.79" x2="2435.19" y2="2865.04" gradientUnits="userSpaceOnUse">
<stop stop-color="#00AA8B"/>
<stop offset="0.5029" stop-color="#005D66"/>
<stop offset="0.798" stop-color="#003552"/>
</linearGradient>
<linearGradient id="paint24_linear_6_2" x1="2429.27" y1="2822.52" x2="2429.27" y2="2850.62" gradientUnits="userSpaceOnUse">
<stop stop-color="#00AA8B"/>
<stop offset="0.5029" stop-color="#005D66"/>
<stop offset="0.798" stop-color="#003552"/>
</linearGradient>
<linearGradient id="paint25_linear_6_2" x1="2279.51" y1="2856.26" x2="2279.51" y2="2867.22" gradientUnits="userSpaceOnUse">
<stop stop-color="#00AA8B"/>
<stop offset="0.5029" stop-color="#005D66"/>
<stop offset="0.798" stop-color="#003552"/>
</linearGradient>
<linearGradient id="paint26_linear_6_2" x1="2206.51" y1="2804.35" x2="2269.99" y2="2804.35" gradientUnits="userSpaceOnUse">
<stop stop-color="#3BAD5B"/>
<stop offset="0.1762" stop-color="#37A757"/>
<stop offset="0.4134" stop-color="#2C964A"/>
<stop offset="0.6853" stop-color="#1A7A35"/>
<stop offset="0.981" stop-color="#025319"/>
<stop offset="1" stop-color="#005017"/>
</linearGradient>
<linearGradient id="paint27_linear_6_2" x1="2228.92" y1="2635.51" x2="2248.28" y2="2635.51" gradientUnits="userSpaceOnUse">
<stop stop-color="#ED1C24"/>
<stop offset="0.1372" stop-color="#E81B23"/>
<stop offset="0.303" stop-color="#D91A21"/>
<stop offset="0.4837" stop-color="#C1171D"/>
<stop offset="0.6749" stop-color="#9F1318"/>
<stop offset="0.8723" stop-color="#730E12"/>
<stop offset="1" stop-color="#530A0D"/>
</linearGradient>
<clipPath id="clip0_6_2">
<rect width="4000" height="4000" fill="white"/>
</clipPath>
<clipPath id="clip1_6_2">
<rect width="481.43" height="481.43" fill="white" transform="translate(2118 2586)"/>
</clipPath>
</defs>
</svg>
